{
    "header": {
      "keySignatures": [
        {
          "key": "G",
          "scale": "major",
          "ticks": 0
        },
        {
          "key": "G",
          "scale": "major",
          "ticks": 0
        }
      ],
      "meta": [],
      "name": "Piano\u0000",
      "ppq": 480,
      "tempos": [
        {
          "bpm": 94.00012846684224,
          "ticks": 0
        }
      ],
      "timeSignatures": [
        {
          "ticks": 0,
          "timeSignature": [
            4,
            4
          ],
          "measures": 0
        },
        {
          "ticks": 5760,
          "timeSignature": [
            2,
            4
          ],
          "measures": 3
        },
        {
          "ticks": 6720,
          "timeSignature": [
            4,
            4
          ],
          "measures": 4
        },
        {
          "ticks": 24000,
          "timeSignature": [
            2,
            4
          ],
          "measures": 13
        },
        {
          "ticks": 24960,
          "timeSignature": [
            4,
            4
          ],
          "measures": 14
        }
      ]
    },
    "tracks": [
      {
        "channel": 0,
        "controlChanges": {
          "7": [
            {
              "number": 7,
              "ticks": 0,
              "time": 0,
              "value": 0.7874015748031497
            }
          ],
          "10": [
            {
              "number": 10,
              "ticks": 0,
              "time": 0,
              "value": 0.5039370078740157
            }
          ],
          "91": [
            {
              "number": 91,
              "ticks": 0,
              "time": 0,
              "value": 0
            }
          ],
          "93": [
            {
              "number": 93,
              "ticks": 0,
              "time": 0,
              "value": 0
            }
          ],
          "121": [
            {
              "number": 121,
              "ticks": 0,
              "time": 0,
              "value": 0
            }
          ]
        },
        "pitchBends": [],
        "instrument": {
          "family": "piano",
          "name": "acoustic grand piano",
          "number": 0
        },
        "name": "Piano\u0000",
        "notes": [
          {
            "duration": 0.3018612895833339,
            "durationTicks": 227,
            "midi": 76,
            "name": "E5",
            "ticks": 4320,
            "time": 5.744673,
            "velocity": 0.6299212598425197
          },
          {
            "duration": 0.301861289583333,
            "durationTicks": 227,
            "midi": 71,
            "name": "B4",
            "ticks": 4560,
            "time": 6.0638215,
            "velocity": 0.6299212598425197
          },
          {
            "duration": 0.605052364583333,
            "durationTicks": 455,
            "midi": 79,
            "name": "G5",
            "ticks": 4800,
            "time": 6.38297,
            "velocity": 0.6299212598425197
          },
          {
            "duration": 0.605052364583333,
            "durationTicks": 455,
            "midi": 76,
            "name": "E5",
            "ticks": 5280,
            "time": 7.021267,
            "velocity": 0.6299212598425197
          },
          {
            "duration": 0.30186128958333214,
            "durationTicks": 227,
            "midi": 76,
            "name": "E5",
            "ticks": 7200,
            "time": 9.574455,
            "velocity": 0.6299212598425197
          },
          {
            "duration": 0.3018612895833339,
            "durationTicks": 227,
            "midi": 75,
            "name": "D#5",
            "ticks": 7440,
            "time": 9.8936035,
            "velocity": 0.6299212598425197
          },
          {
            "duration": 0.6050523645833348,
            "durationTicks": 455,
            "midi": 83,
            "name": "B5",
            "ticks": 7680,
            "time": 10.212752,
            "velocity": 0.6299212598425197
          },
          {
            "duration": 0.3018612895833339,
            "durationTicks": 227,
            "midi": 79,
            "name": "G5",
            "ticks": 8160,
            "time": 10.851049,
            "velocity": 0.6299212598425197
          },
          {
            "duration": 0.30186128958333214,
            "durationTicks": 227,
            "midi": 81,
            "name": "A5",
            "ticks": 8400,
            "time": 11.1701975,
            "velocity": 0.6299212598425197
          },
          {
            "duration": 1.2114345145833347,
            "durationTicks": 911,
            "midi": 76,
            "name": "E5",
            "ticks": 8640,
            "time": 11.489346,
            "velocity": 0.6299212598425197
          },
          {
            "duration": 0.6050523645833348,
            "durationTicks": 455,
            "midi": 76,
            "name": "E5",
            "ticks": 11520,
            "time": 15.319128,
            "velocity": 0.6299212598425197
          },
          {
            "duration": 0.30186128958333214,
            "durationTicks": 227,
            "midi": 79,
            "name": "G5",
            "ticks": 12000,
            "time": 15.957425,
            "velocity": 0.6299212598425197
          },
          {
            "duration": 0.30186128958333214,
            "durationTicks": 227,
            "midi": 81,
            "name": "A5",
            "ticks": 12240,
            "time": 16.2765735,
            "velocity": 0.6299212598425197
          },
          {
            "duration": 0.6050523645833366,
            "durationTicks": 455,
            "midi": 75,
            "name": "D#5",
            "ticks": 12480,
            "time": 16.595722,
            "velocity": 0.6299212598425197
          },
          {
            "duration": 0.605052364583333,
            "durationTicks": 455,
            "midi": 76,
            "name": "E5",
            "ticks": 12960,
            "time": 17.234019,
            "velocity": 0.6299212598425197
          },
          {
            "duration": 0.9082434395833303,
            "durationTicks": 683,
            "midi": 79,
            "name": "G5",
            "ticks": 13440,
            "time": 17.872316,
            "velocity": 0.6299212598425197
          },
          {
            "duration": 0.30186128958333214,
            "durationTicks": 227,
            "midi": 81,
            "name": "A5",
            "ticks": 14160,
            "time": 18.8297615,
            "velocity": 0.6299212598425197
          },
          {
            "duration": 0.605052364583333,
            "durationTicks": 455,
            "midi": 75,
            "name": "D#5",
            "ticks": 14400,
            "time": 19.14891,
            "velocity": 0.6299212598425197
          },
          {
            "duration": 0.6050523645833366,
            "durationTicks": 455,
            "midi": 76,
            "name": "E5",
            "ticks": 14880,
            "time": 19.787207,
            "velocity": 0.6299212598425197
          },
          {
            "duration": 0.3018612895833357,
            "durationTicks": 227,
            "midi": 79,
            "name": "G5",
            "ticks": 15360,
            "time": 20.425504,
            "velocity": 0.6299212598425197
          },
          {
            "duration": 0.3018612895833357,
            "durationTicks": 227,
            "midi": 72,
            "name": "C5",
            "ticks": 15600,
            "time": 20.7446525,
            "velocity": 0.6299212598425197
          },
          {
            "duration": 0.3018612895833357,
            "durationTicks": 227,
            "midi": 72,
            "name": "C5",
            "ticks": 15840,
            "time": 21.063801,
            "velocity": 0.6299212598425197
          },
          {
            "duration": 0.3018612895833357,
            "durationTicks": 227,
            "midi": 71,
            "name": "B4",
            "ticks": 16080,
            "time": 21.3829495,
            "velocity": 0.6299212598425197
          },
          {
            "duration": 0.3018612895833357,
            "durationTicks": 227,
            "midi": 74,
            "name": "D5",
            "ticks": 16080,
            "time": 21.3829495,
            "velocity": 0.6299212598425197
          },
          {
            "duration": 1.2114345145833347,
            "durationTicks": 911,
            "midi": 71,
            "name": "B4",
            "ticks": 16320,
            "time": 21.702098,
            "velocity": 0.6299212598425197
          },
          {
            "duration": 1.2114345145833347,
            "durationTicks": 911,
            "midi": 76,
            "name": "E5",
            "ticks": 16320,
            "time": 21.702098,
            "velocity": 0.6299212598425197
          },
          {
            "duration": 0.3018612895833357,
            "durationTicks": 227,
            "midi": 71,
            "name": "B4",
            "ticks": 18720,
            "time": 24.893583,
            "velocity": 0.6299212598425197
          },
          {
            "duration": 0.3018612895833357,
            "durationTicks": 227,
            "midi": 79,
            "name": "G5",
            "ticks": 18720,
            "time": 24.893583,
            "velocity": 0.6299212598425197
          },
          {
            "duration": 0.3018612895833357,
            "durationTicks": 227,
            "midi": 73,
            "name": "C#5",
            "ticks": 18960,
            "time": 25.2127315,
            "velocity": 0.6299212598425197
          },
          {
            "duration": 0.3018612895833357,
            "durationTicks": 227,
            "midi": 78,
            "name": "F#5",
            "ticks": 18960,
            "time": 25.2127315,
            "velocity": 0.6299212598425197
          },
          {
            "duration": 0.6050523645833294,
            "durationTicks": 455,
            "midi": 76,
            "name": "E5",
            "ticks": 19200,
            "time": 25.53188,
            "velocity": 0.6299212598425197
          },
          {
            "duration": 0.3018612895833357,
            "durationTicks": 227,
            "midi": 71,
            "name": "B4",
            "ticks": 19680,
            "time": 26.170177,
            "velocity": 0.6299212598425197
          },
          {
            "duration": 0.3018612895833357,
            "durationTicks": 227,
            "midi": 79,
            "name": "G5",
            "ticks": 19680,
            "time": 26.170177,
            "velocity": 0.6299212598425197
          },
          {
            "duration": 0.3018612895833357,
            "durationTicks": 227,
            "midi": 73,
            "name": "C#5",
            "ticks": 19920,
            "time": 26.4893255,
            "velocity": 0.6299212598425197
          },
          {
            "duration": 0.3018612895833357,
            "durationTicks": 227,
            "midi": 78,
            "name": "F#5",
            "ticks": 19920,
            "time": 26.4893255,
            "velocity": 0.6299212598425197
          },
          {
            "duration": 0.605052364583333,
            "durationTicks": 455,
            "midi": 76,
            "name": "E5",
            "ticks": 20160,
            "time": 26.808474,
            "velocity": 0.6299212598425197
          },
          {
            "duration": 0.30186128958333214,
            "durationTicks": 227,
            "midi": 76,
            "name": "E5",
            "ticks": 20640,
            "time": 27.446771000000002,
            "velocity": 0.6299212598425197
          },
          {
            "duration": 0.3018612895833357,
            "durationTicks": 227,
            "midi": 75,
            "name": "D#5",
            "ticks": 20880,
            "time": 27.7659195,
            "velocity": 0.6299212598425197
          },
          {
            "duration": 0.605052364583333,
            "durationTicks": 455,
            "midi": 83,
            "name": "B5",
            "ticks": 21120,
            "time": 28.085068,
            "velocity": 0.6299212598425197
          },
          {
            "duration": 0.3018612895833357,
            "durationTicks": 227,
            "midi": 71,
            "name": "B4",
            "ticks": 21600,
            "time": 28.723365,
            "velocity": 0.6299212598425197
          },
          {
            "duration": 0.30186128958333214,
            "durationTicks": 227,
            "midi": 74,
            "name": "D5",
            "ticks": 21840,
            "time": 29.042513500000002,
            "velocity": 0.6299212598425197
          },
          {
            "duration": 0.605052364583333,
            "durationTicks": 455,
            "midi": 76,
            "name": "E5",
            "ticks": 22080,
            "time": 29.361662,
            "velocity": 0.6299212598425197
          },
          {
            "duration": 0.3018612895833357,
            "durationTicks": 227,
            "midi": 76,
            "name": "E5",
            "ticks": 22560,
            "time": 29.999959,
            "velocity": 0.6299212598425197
          },
          {
            "duration": 0.3018612895833357,
            "durationTicks": 227,
            "midi": 71,
            "name": "B4",
            "ticks": 22800,
            "time": 30.3191075,
            "velocity": 0.6299212598425197
          },
          {
            "duration": 0.605052364583333,
            "durationTicks": 455,
            "midi": 79,
            "name": "G5",
            "ticks": 23040,
            "time": 30.638256,
            "velocity": 0.6299212598425197
          },
          {
            "duration": 1.817816664583333,
            "durationTicks": 1367,
            "midi": 76,
            "name": "E5",
            "ticks": 23520,
            "time": 31.276553,
            "velocity": 0.6299212598425197
          },
          {
            "duration": 0.3018612895833357,
            "durationTicks": 227,
            "midi": 76,
            "name": "E5",
            "ticks": 25440,
            "time": 33.829741,
            "velocity": 0.6299212598425197
          },
          {
            "duration": 0.3018612895833357,
            "durationTicks": 227,
            "midi": 75,
            "name": "D#5",
            "ticks": 25680,
            "time": 34.1488895,
            "velocity": 0.6299212598425197
          },
          {
            "duration": 0.6050523645833294,
            "durationTicks": 455,
            "midi": 83,
            "name": "B5",
            "ticks": 25920,
            "time": 34.468038,
            "velocity": 0.6299212598425197
          },
          {
            "duration": 0.3018612895833357,
            "durationTicks": 227,
            "midi": 79,
            "name": "G5",
            "ticks": 26400,
            "time": 35.106335,
            "velocity": 0.6299212598425197
          },
          {
            "duration": 0.3018612895833357,
            "durationTicks": 227,
            "midi": 81,
            "name": "A5",
            "ticks": 26640,
            "time": 35.4254835,
            "velocity": 0.6299212598425197
          },
          {
            "duration": 1.2114345145833312,
            "durationTicks": 911,
            "midi": 76,
            "name": "E5",
            "ticks": 26880,
            "time": 35.744632,
            "velocity": 0.6299212598425197
          },
          {
            "duration": 0.3018612895833357,
            "durationTicks": 227,
            "midi": 81,
            "name": "A5",
            "ticks": 29760,
            "time": 39.574414,
            "velocity": 0.6299212598425197
          },
          {
            "duration": 0.3018612895833357,
            "durationTicks": 227,
            "midi": 76,
            "name": "E5",
            "ticks": 30000,
            "time": 39.8935625,
            "velocity": 0.6299212598425197
          },
          {
            "duration": 0.3018612895833357,
            "durationTicks": 227,
            "midi": 81,
            "name": "A5",
            "ticks": 30240,
            "time": 40.212711,
            "velocity": 0.6299212598425197
          },
          {
            "duration": 0.3018612895833357,
            "durationTicks": 227,
            "midi": 83,
            "name": "B5",
            "ticks": 30480,
            "time": 40.5318595,
            "velocity": 0.6299212598425197
          },
          {
            "duration": 0.6050523645833366,
            "durationTicks": 455,
            "midi": 75,
            "name": "D#5",
            "ticks": 30720,
            "time": 40.851008,
            "velocity": 0.6299212598425197
          },
          {
            "duration": 0.6050523645833366,
            "durationTicks": 455,
            "midi": 76,
            "name": "E5",
            "ticks": 31200,
            "time": 41.489305,
            "velocity": 0.6299212598425197
          },
          {
            "duration": 0.9082434395833303,
            "durationTicks": 683,
            "midi": 79,
            "name": "G5",
            "ticks": 31680,
            "time": 42.127602,
            "velocity": 0.6299212598425197
          },
          {
            "duration": 0.3018612895833286,
            "durationTicks": 227,
            "midi": 81,
            "name": "A5",
            "ticks": 32400,
            "time": 43.0850475,
            "velocity": 0.6299212598425197
          },
          {
            "duration": 0.6050523645833366,
            "durationTicks": 455,
            "midi": 75,
            "name": "D#5",
            "ticks": 32640,
            "time": 43.404196,
            "velocity": 0.6299212598425197
          },
          {
            "duration": 0.6050523645833366,
            "durationTicks": 455,
            "midi": 76,
            "name": "E5",
            "ticks": 33120,
            "time": 44.042493,
            "velocity": 0.6299212598425197
          },
          {
            "duration": 0.9082434395833303,
            "durationTicks": 683,
            "midi": 84,
            "name": "C6",
            "ticks": 33600,
            "time": 44.68079,
            "velocity": 0.6299212598425197
          },
          {
            "duration": 0.3018612895833286,
            "durationTicks": 227,
            "midi": 83,
            "name": "B5",
            "ticks": 34320,
            "time": 45.6382355,
            "velocity": 0.6299212598425197
          },
          {
            "duration": 1.2114345145833312,
            "durationTicks": 911,
            "midi": 76,
            "name": "E5",
            "ticks": 34560,
            "time": 45.957384,
            "velocity": 0.6299212598425197
          }
        ],
        "endOfTrackTicks": 35472
      },
      {
        "channel": 0,
        "controlChanges": {},
        "pitchBends": [],
        "instrument": {
          "family": "piano",
          "name": "acoustic grand piano",
          "number": 0
        },
        "name": "Piano\u0000",
        "notes": [
          {
            "duration": 0.3018612895833333,
            "durationTicks": 227,
            "midi": 40,
            "name": "E2",
            "ticks": 0,
            "time": 0,
            "velocity": 0.6299212598425197
          },
          {
            "duration": 0.3018612895833333,
            "durationTicks": 227,
            "midi": 52,
            "name": "E3",
            "ticks": 0,
            "time": 0,
            "velocity": 0.6299212598425197
          },
          {
            "duration": 0.15824446458333336,
            "durationTicks": 119,
            "midi": 55,
            "name": "G3",
            "ticks": 240,
            "time": 0.3191485,
            "velocity": 0.6299212598425197
          },
          {
            "duration": 0.15824446458333336,
            "durationTicks": 119,
            "midi": 59,
            "name": "B3",
            "ticks": 240,
            "time": 0.3191485,
            "velocity": 0.6299212598425197
          },
          {
            "duration": 0.15824446458333336,
            "durationTicks": 119,
            "midi": 64,
            "name": "E4",
            "ticks": 240,
            "time": 0.3191485,
            "velocity": 0.6299212598425197
          },
          {
            "duration": 0.1582444645833334,
            "durationTicks": 119,
            "midi": 55,
            "name": "G3",
            "ticks": 720,
            "time": 0.9574455,
            "velocity": 0.6299212598425197
          },
          {
            "duration": 0.1582444645833334,
            "durationTicks": 119,
            "midi": 59,
            "name": "B3",
            "ticks": 720,
            "time": 0.9574455,
            "velocity": 0.6299212598425197
          },
          {
            "duration": 0.1582444645833334,
            "durationTicks": 119,
            "midi": 64,
            "name": "E4",
            "ticks": 720,
            "time": 0.9574455,
            "velocity": 0.6299212598425197
          },
          {
            "duration": 0.1582444645833334,
            "durationTicks": 119,
            "midi": 55,
            "name": "G3",
            "ticks": 1200,
            "time": 1.5957425,
            "velocity": 0.6299212598425197
          },
          {
            "duration": 0.1582444645833334,
            "durationTicks": 119,
            "midi": 59,
            "name": "B3",
            "ticks": 1200,
            "time": 1.5957425,
            "velocity": 0.6299212598425197
          },
          {
            "duration": 0.1582444645833334,
            "durationTicks": 119,
            "midi": 64,
            "name": "E4",
            "ticks": 1200,
            "time": 1.5957425,
            "velocity": 0.6299212598425197
          },
          {
            "duration": 0.30186128958333347,
            "durationTicks": 227,
            "midi": 36,
            "name": "C2",
            "ticks": 1440,
            "time": 1.914891,
            "velocity": 0.6299212598425197
          },
          {
            "duration": 0.30186128958333347,
            "durationTicks": 227,
            "midi": 48,
            "name": "C3",
            "ticks": 1440,
            "time": 1.914891,
            "velocity": 0.6299212598425197
          },
          {
            "duration": 0.30186128958333347,
            "durationTicks": 227,
            "midi": 38,
            "name": "D2",
            "ticks": 1680,
            "time": 2.2340395,
            "velocity": 0.6299212598425197
          },
          {
            "duration": 0.30186128958333347,
            "durationTicks": 227,
            "midi": 50,
            "name": "D3",
            "ticks": 1680,
            "time": 2.2340395,
            "velocity": 0.6299212598425197
          },
          {
            "duration": 0.301861289583333,
            "durationTicks": 227,
            "midi": 40,
            "name": "E2",
            "ticks": 1920,
            "time": 2.553188,
            "velocity": 0.6299212598425197
          },
          {
            "duration": 0.301861289583333,
            "durationTicks": 227,
            "midi": 52,
            "name": "E3",
            "ticks": 1920,
            "time": 2.553188,
            "velocity": 0.6299212598425197
          },
          {
            "duration": 0.1582444645833334,
            "durationTicks": 119,
            "midi": 55,
            "name": "G3",
            "ticks": 2160,
            "time": 2.8723365,
            "velocity": 0.6299212598425197
          },
          {
            "duration": 0.1582444645833334,
            "durationTicks": 119,
            "midi": 59,
            "name": "B3",
            "ticks": 2160,
            "time": 2.8723365,
            "velocity": 0.6299212598425197
          },
          {
            "duration": 0.1582444645833334,
            "durationTicks": 119,
            "midi": 64,
            "name": "E4",
            "ticks": 2160,
            "time": 2.8723365,
            "velocity": 0.6299212598425197
          },
          {
            "duration": 0.1582444645833334,
            "durationTicks": 119,
            "midi": 55,
            "name": "G3",
            "ticks": 2640,
            "time": 3.5106335,
            "velocity": 0.6299212598425197
          },
          {
            "duration": 0.1582444645833334,
            "durationTicks": 119,
            "midi": 59,
            "name": "B3",
            "ticks": 2640,
            "time": 3.5106335,
            "velocity": 0.6299212598425197
          },
          {
            "duration": 0.1582444645833334,
            "durationTicks": 119,
            "midi": 64,
            "name": "E4",
            "ticks": 2640,
            "time": 3.5106335,
            "velocity": 0.6299212598425197
          },
          {
            "duration": 0.1582444645833334,
            "durationTicks": 119,
            "midi": 55,
            "name": "G3",
            "ticks": 3120,
            "time": 4.1489305,
            "velocity": 0.6299212598425197
          },
          {
            "duration": 0.1582444645833334,
            "durationTicks": 119,
            "midi": 59,
            "name": "B3",
            "ticks": 3120,
            "time": 4.1489305,
            "velocity": 0.6299212598425197
          },
          {
            "duration": 0.1582444645833334,
            "durationTicks": 119,
            "midi": 64,
            "name": "E4",
            "ticks": 3120,
            "time": 4.1489305,
            "velocity": 0.6299212598425197
          },
          {
            "duration": 0.301861289583333,
            "durationTicks": 227,
            "midi": 36,
            "name": "C2",
            "ticks": 3360,
            "time": 4.468079,
            "velocity": 0.6299212598425197
          },
          {
            "duration": 0.301861289583333,
            "durationTicks": 227,
            "midi": 48,
            "name": "C3",
            "ticks": 3360,
            "time": 4.468079,
            "velocity": 0.6299212598425197
          },
          {
            "duration": 0.301861289583333,
            "durationTicks": 227,
            "midi": 38,
            "name": "D2",
            "ticks": 3600,
            "time": 4.7872275,
            "velocity": 0.6299212598425197
          },
          {
            "duration": 0.301861289583333,
            "durationTicks": 227,
            "midi": 50,
            "name": "D3",
            "ticks": 3600,
            "time": 4.7872275,
            "velocity": 0.6299212598425197
          },
          {
            "duration": 0.301861289583333,
            "durationTicks": 227,
            "midi": 40,
            "name": "E2",
            "ticks": 3840,
            "time": 5.106376,
            "velocity": 0.6299212598425197
          },
          {
            "duration": 0.301861289583333,
            "durationTicks": 227,
            "midi": 52,
            "name": "E3",
            "ticks": 3840,
            "time": 5.106376,
            "velocity": 0.6299212598425197
          },
          {
            "duration": 0.1582444645833334,
            "durationTicks": 119,
            "midi": 55,
            "name": "G3",
            "ticks": 4080,
            "time": 5.4255245,
            "velocity": 0.6299212598425197
          },
          {
            "duration": 0.1582444645833334,
            "durationTicks": 119,
            "midi": 59,
            "name": "B3",
            "ticks": 4080,
            "time": 5.4255245,
            "velocity": 0.6299212598425197
          },
          {
            "duration": 0.1582444645833334,
            "durationTicks": 119,
            "midi": 64,
            "name": "E4",
            "ticks": 4080,
            "time": 5.4255245,
            "velocity": 0.6299212598425197
          },
          {
            "duration": 0.1582444645833334,
            "durationTicks": 119,
            "midi": 55,
            "name": "G3",
            "ticks": 4560,
            "time": 6.0638215,
            "velocity": 0.6299212598425197
          },
          {
            "duration": 0.1582444645833334,
            "durationTicks": 119,
            "midi": 59,
            "name": "B3",
            "ticks": 4560,
            "time": 6.0638215,
            "velocity": 0.6299212598425197
          },
          {
            "duration": 0.1582444645833334,
            "durationTicks": 119,
            "midi": 64,
            "name": "E4",
            "ticks": 4560,
            "time": 6.0638215,
            "velocity": 0.6299212598425197
          },
          {
            "duration": 0.1582444645833334,
            "durationTicks": 119,
            "midi": 55,
            "name": "G3",
            "ticks": 5040,
            "time": 6.7021185,
            "velocity": 0.6299212598425197
          },
          {
            "duration": 0.1582444645833334,
            "durationTicks": 119,
            "midi": 59,
            "name": "B3",
            "ticks": 5040,
            "time": 6.7021185,
            "velocity": 0.6299212598425197
          },
          {
            "duration": 0.1582444645833334,
            "durationTicks": 119,
            "midi": 64,
            "name": "E4",
            "ticks": 5040,
            "time": 6.7021185,
            "velocity": 0.6299212598425197
          },
          {
            "duration": 0.301861289583333,
            "durationTicks": 227,
            "midi": 36,
            "name": "C2",
            "ticks": 5280,
            "time": 7.021267,
            "velocity": 0.6299212598425197
          },
          {
            "duration": 0.301861289583333,
            "durationTicks": 227,
            "midi": 48,
            "name": "C3",
            "ticks": 5280,
            "time": 7.021267,
            "velocity": 0.6299212598425197
          },
          {
            "duration": 0.301861289583333,
            "durationTicks": 227,
            "midi": 38,
            "name": "D2",
            "ticks": 5520,
            "time": 7.3404155,
            "velocity": 0.6299212598425197
          },
          {
            "duration": 0.301861289583333,
            "durationTicks": 227,
            "midi": 50,
            "name": "D3",
            "ticks": 5520,
            "time": 7.3404155,
            "velocity": 0.6299212598425197
          },
          {
            "duration": 0.3018612895833339,
            "durationTicks": 227,
            "midi": 40,
            "name": "E2",
            "ticks": 5760,
            "time": 7.659564,
            "velocity": 0.6299212598425197
          },
          {
            "duration": 0.3018612895833339,
            "durationTicks": 227,
            "midi": 52,
            "name": "E3",
            "ticks": 5760,
            "time": 7.659564,
            "velocity": 0.6299212598425197
          },
          {
            "duration": 0.1582444645833334,
            "durationTicks": 119,
            "midi": 55,
            "name": "G3",
            "ticks": 6000,
            "time": 7.9787125,
            "velocity": 0.6299212598425197
          },
          {
            "duration": 0.1582444645833334,
            "durationTicks": 119,
            "midi": 59,
            "name": "B3",
            "ticks": 6000,
            "time": 7.9787125,
            "velocity": 0.6299212598425197
          },
          {
            "duration": 0.1582444645833334,
            "durationTicks": 119,
            "midi": 64,
            "name": "E4",
            "ticks": 6000,
            "time": 7.9787125,
            "velocity": 0.6299212598425197
          },
          {
            "duration": 0.1582444645833334,
            "durationTicks": 119,
            "midi": 55,
            "name": "G3",
            "ticks": 6480,
            "time": 8.6170095,
            "velocity": 0.6299212598425197
          },
          {
            "duration": 0.1582444645833334,
            "durationTicks": 119,
            "midi": 59,
            "name": "B3",
            "ticks": 6480,
            "time": 8.6170095,
            "velocity": 0.6299212598425197
          },
          {
            "duration": 0.1582444645833334,
            "durationTicks": 119,
            "midi": 64,
            "name": "E4",
            "ticks": 6480,
            "time": 8.6170095,
            "velocity": 0.6299212598425197
          },
          {
            "duration": 0.1582444645833334,
            "durationTicks": 119,
            "midi": 55,
            "name": "G3",
            "ticks": 6960,
            "time": 9.2553065,
            "velocity": 0.6299212598425197
          },
          {
            "duration": 0.1582444645833334,
            "durationTicks": 119,
            "midi": 59,
            "name": "B3",
            "ticks": 6960,
            "time": 9.2553065,
            "velocity": 0.6299212598425197
          },
          {
            "duration": 0.1582444645833334,
            "durationTicks": 119,
            "midi": 64,
            "name": "E4",
            "ticks": 6960,
            "time": 9.2553065,
            "velocity": 0.6299212598425197
          },
          {
            "duration": 0.1582444645833334,
            "durationTicks": 119,
            "midi": 55,
            "name": "G3",
            "ticks": 7440,
            "time": 9.8936035,
            "velocity": 0.6299212598425197
          },
          {
            "duration": 0.1582444645833334,
            "durationTicks": 119,
            "midi": 59,
            "name": "B3",
            "ticks": 7440,
            "time": 9.8936035,
            "velocity": 0.6299212598425197
          },
          {
            "duration": 0.1582444645833334,
            "durationTicks": 119,
            "midi": 64,
            "name": "E4",
            "ticks": 7440,
            "time": 9.8936035,
            "velocity": 0.6299212598425197
          },
          {
            "duration": 0.15824446458333163,
            "durationTicks": 119,
            "midi": 55,
            "name": "G3",
            "ticks": 7920,
            "time": 10.5319005,
            "velocity": 0.6299212598425197
          },
          {
            "duration": 0.15824446458333163,
            "durationTicks": 119,
            "midi": 59,
            "name": "B3",
            "ticks": 7920,
            "time": 10.5319005,
            "velocity": 0.6299212598425197
          },
          {
            "duration": 0.15824446458333163,
            "durationTicks": 119,
            "midi": 64,
            "name": "E4",
            "ticks": 7920,
            "time": 10.5319005,
            "velocity": 0.6299212598425197
          },
          {
            "duration": 0.15824446458333163,
            "durationTicks": 119,
            "midi": 55,
            "name": "G3",
            "ticks": 8400,
            "time": 11.1701975,
            "velocity": 0.6299212598425197
          },
          {
            "duration": 0.15824446458333163,
            "durationTicks": 119,
            "midi": 59,
            "name": "B3",
            "ticks": 8400,
            "time": 11.1701975,
            "velocity": 0.6299212598425197
          },
          {
            "duration": 0.15824446458333163,
            "durationTicks": 119,
            "midi": 64,
            "name": "E4",
            "ticks": 8400,
            "time": 11.1701975,
            "velocity": 0.6299212598425197
          },
          {
            "duration": 0.3018612895833339,
            "durationTicks": 227,
            "midi": 43,
            "name": "G2",
            "ticks": 8640,
            "time": 11.489346,
            "velocity": 0.6299212598425197
          },
          {
            "duration": 0.3018612895833339,
            "durationTicks": 227,
            "midi": 55,
            "name": "G3",
            "ticks": 8640,
            "time": 11.489346,
            "velocity": 0.6299212598425197
          },
          {
            "duration": 0.15824446458333163,
            "durationTicks": 119,
            "midi": 55,
            "name": "G3",
            "ticks": 8880,
            "time": 11.8084945,
            "velocity": 0.6299212598425197
          },
          {
            "duration": 0.15824446458333163,
            "durationTicks": 119,
            "midi": 59,
            "name": "B3",
            "ticks": 8880,
            "time": 11.8084945,
            "velocity": 0.6299212598425197
          },
          {
            "duration": 0.15824446458333163,
            "durationTicks": 119,
            "midi": 64,
            "name": "E4",
            "ticks": 8880,
            "time": 11.8084945,
            "velocity": 0.6299212598425197
          },
          {
            "duration": 0.1582444645833334,
            "durationTicks": 119,
            "midi": 55,
            "name": "G3",
            "ticks": 9360,
            "time": 12.4467915,
            "velocity": 0.6299212598425197
          },
          {
            "duration": 0.1582444645833334,
            "durationTicks": 119,
            "midi": 59,
            "name": "B3",
            "ticks": 9360,
            "time": 12.4467915,
            "velocity": 0.6299212598425197
          },
          {
            "duration": 0.1582444645833334,
            "durationTicks": 119,
            "midi": 64,
            "name": "E4",
            "ticks": 9360,
            "time": 12.4467915,
            "velocity": 0.6299212598425197
          },
          {
            "duration": 0.1582444645833334,
            "durationTicks": 119,
            "midi": 55,
            "name": "G3",
            "ticks": 9840,
            "time": 13.0850885,
            "velocity": 0.6299212598425197
          },
          {
            "duration": 0.1582444645833334,
            "durationTicks": 119,
            "midi": 59,
            "name": "B3",
            "ticks": 9840,
            "time": 13.0850885,
            "velocity": 0.6299212598425197
          },
          {
            "duration": 0.1582444645833334,
            "durationTicks": 119,
            "midi": 64,
            "name": "E4",
            "ticks": 9840,
            "time": 13.0850885,
            "velocity": 0.6299212598425197
          },
          {
            "duration": 0.3018612895833339,
            "durationTicks": 227,
            "midi": 43,
            "name": "G2",
            "ticks": 10080,
            "time": 13.404237,
            "velocity": 0.6299212598425197
          },
          {
            "duration": 0.3018612895833339,
            "durationTicks": 227,
            "midi": 55,
            "name": "G3",
            "ticks": 10080,
            "time": 13.404237,
            "velocity": 0.6299212598425197
          },
          {
            "duration": 0.30186128958333214,
            "durationTicks": 227,
            "midi": 42,
            "name": "F#2",
            "ticks": 10320,
            "time": 13.723385500000001,
            "velocity": 0.6299212598425197
          },
          {
            "duration": 0.30186128958333214,
            "durationTicks": 227,
            "midi": 54,
            "name": "F#3",
            "ticks": 10320,
            "time": 13.723385500000001,
            "velocity": 0.6299212598425197
          },
          {
            "duration": 0.3018612895833339,
            "durationTicks": 227,
            "midi": 43,
            "name": "G2",
            "ticks": 10560,
            "time": 14.042534,
            "velocity": 0.6299212598425197
          },
          {
            "duration": 0.3018612895833339,
            "durationTicks": 227,
            "midi": 55,
            "name": "G3",
            "ticks": 10560,
            "time": 14.042534,
            "velocity": 0.6299212598425197
          },
          {
            "duration": 0.15824446458333163,
            "durationTicks": 119,
            "midi": 55,
            "name": "G3",
            "ticks": 10800,
            "time": 14.3616825,
            "velocity": 0.6299212598425197
          },
          {
            "duration": 0.15824446458333163,
            "durationTicks": 119,
            "midi": 59,
            "name": "B3",
            "ticks": 10800,
            "time": 14.3616825,
            "velocity": 0.6299212598425197
          },
          {
            "duration": 0.15824446458333163,
            "durationTicks": 119,
            "midi": 64,
            "name": "E4",
            "ticks": 10800,
            "time": 14.3616825,
            "velocity": 0.6299212598425197
          },
          {
            "duration": 0.15824446458333163,
            "durationTicks": 119,
            "midi": 55,
            "name": "G3",
            "ticks": 11280,
            "time": 14.9999795,
            "velocity": 0.6299212598425197
          },
          {
            "duration": 0.15824446458333163,
            "durationTicks": 119,
            "midi": 59,
            "name": "B3",
            "ticks": 11280,
            "time": 14.9999795,
            "velocity": 0.6299212598425197
          },
          {
            "duration": 0.15824446458333163,
            "durationTicks": 119,
            "midi": 64,
            "name": "E4",
            "ticks": 11280,
            "time": 14.9999795,
            "velocity": 0.6299212598425197
          },
          {
            "duration": 0.15824446458333163,
            "durationTicks": 119,
            "midi": 55,
            "name": "G3",
            "ticks": 11760,
            "time": 15.6382765,
            "velocity": 0.6299212598425197
          },
          {
            "duration": 0.15824446458333163,
            "durationTicks": 119,
            "midi": 59,
            "name": "B3",
            "ticks": 11760,
            "time": 15.6382765,
            "velocity": 0.6299212598425197
          },
          {
            "duration": 0.15824446458333163,
            "durationTicks": 119,
            "midi": 64,
            "name": "E4",
            "ticks": 11760,
            "time": 15.6382765,
            "velocity": 0.6299212598425197
          },
          {
            "duration": 0.15824446458332986,
            "durationTicks": 119,
            "midi": 55,
            "name": "G3",
            "ticks": 12240,
            "time": 16.2765735,
            "velocity": 0.6299212598425197
          },
          {
            "duration": 0.15824446458332986,
            "durationTicks": 119,
            "midi": 59,
            "name": "B3",
            "ticks": 12240,
            "time": 16.2765735,
            "velocity": 0.6299212598425197
          },
          {
            "duration": 0.15824446458332986,
            "durationTicks": 119,
            "midi": 64,
            "name": "E4",
            "ticks": 12240,
            "time": 16.2765735,
            "velocity": 0.6299212598425197
          },
          {
            "duration": 0.3018612895833357,
            "durationTicks": 227,
            "midi": 45,
            "name": "A2",
            "ticks": 12480,
            "time": 16.595722,
            "velocity": 0.6299212598425197
          },
          {
            "duration": 0.3018612895833357,
            "durationTicks": 227,
            "midi": 57,
            "name": "A3",
            "ticks": 12480,
            "time": 16.595722,
            "velocity": 0.6299212598425197
          },
          {
            "duration": 0.1582444645833334,
            "durationTicks": 119,
            "midi": 60,
            "name": "C4",
            "ticks": 12720,
            "time": 16.9148705,
            "velocity": 0.6299212598425197
          },
          {
            "duration": 0.1582444645833334,
            "durationTicks": 119,
            "midi": 64,
            "name": "E4",
            "ticks": 12720,
            "time": 16.9148705,
            "velocity": 0.6299212598425197
          },
          {
            "duration": 0.1582444645833334,
            "durationTicks": 119,
            "midi": 69,
            "name": "A4",
            "ticks": 12720,
            "time": 16.9148705,
            "velocity": 0.6299212598425197
          },
          {
            "duration": 0.1582444645833334,
            "durationTicks": 119,
            "midi": 60,
            "name": "C4",
            "ticks": 13200,
            "time": 17.5531675,
            "velocity": 0.6299212598425197
          },
          {
            "duration": 0.1582444645833334,
            "durationTicks": 119,
            "midi": 64,
            "name": "E4",
            "ticks": 13200,
            "time": 17.5531675,
            "velocity": 0.6299212598425197
          },
          {
            "duration": 0.1582444645833334,
            "durationTicks": 119,
            "midi": 69,
            "name": "A4",
            "ticks": 13200,
            "time": 17.5531675,
            "velocity": 0.6299212598425197
          },
          {
            "duration": 0.1582444645833334,
            "durationTicks": 119,
            "midi": 60,
            "name": "C4",
            "ticks": 13680,
            "time": 18.1914645,
            "velocity": 0.6299212598425197
          },
          {
            "duration": 0.1582444645833334,
            "durationTicks": 119,
            "midi": 64,
            "name": "E4",
            "ticks": 13680,
            "time": 18.1914645,
            "velocity": 0.6299212598425197
          },
          {
            "duration": 0.1582444645833334,
            "durationTicks": 119,
            "midi": 69,
            "name": "A4",
            "ticks": 13680,
            "time": 18.1914645,
            "velocity": 0.6299212598425197
          },
          {
            "duration": 0.1582444645833334,
            "durationTicks": 119,
            "midi": 60,
            "name": "C4",
            "ticks": 14160,
            "time": 18.8297615,
            "velocity": 0.6299212598425197
          },
          {
            "duration": 0.1582444645833334,
            "durationTicks": 119,
            "midi": 64,
            "name": "E4",
            "ticks": 14160,
            "time": 18.8297615,
            "velocity": 0.6299212598425197
          },
          {
            "duration": 0.1582444645833334,
            "durationTicks": 119,
            "midi": 69,
            "name": "A4",
            "ticks": 14160,
            "time": 18.8297615,
            "velocity": 0.6299212598425197
          },
          {
            "duration": 0.30186128958333214,
            "durationTicks": 227,
            "midi": 45,
            "name": "A2",
            "ticks": 14400,
            "time": 19.14891,
            "velocity": 0.6299212598425197
          },
          {
            "duration": 0.30186128958333214,
            "durationTicks": 227,
            "midi": 57,
            "name": "A3",
            "ticks": 14400,
            "time": 19.14891,
            "velocity": 0.6299212598425197
          },
          {
            "duration": 0.15824446458332986,
            "durationTicks": 119,
            "midi": 60,
            "name": "C4",
            "ticks": 14640,
            "time": 19.4680585,
            "velocity": 0.6299212598425197
          },
          {
            "duration": 0.15824446458332986,
            "durationTicks": 119,
            "midi": 64,
            "name": "E4",
            "ticks": 14640,
            "time": 19.4680585,
            "velocity": 0.6299212598425197
          },
          {
            "duration": 0.15824446458332986,
            "durationTicks": 119,
            "midi": 69,
            "name": "A4",
            "ticks": 14640,
            "time": 19.4680585,
            "velocity": 0.6299212598425197
          },
          {
            "duration": 0.1582444645833334,
            "durationTicks": 119,
            "midi": 60,
            "name": "C4",
            "ticks": 15120,
            "time": 20.1063555,
            "velocity": 0.6299212598425197
          },
          {
            "duration": 0.1582444645833334,
            "durationTicks": 119,
            "midi": 64,
            "name": "E4",
            "ticks": 15120,
            "time": 20.1063555,
            "velocity": 0.6299212598425197
          },
          {
            "duration": 0.1582444645833334,
            "durationTicks": 119,
            "midi": 69,
            "name": "A4",
            "ticks": 15120,
            "time": 20.1063555,
            "velocity": 0.6299212598425197
          },
          {
            "duration": 0.1582444645833334,
            "durationTicks": 119,
            "midi": 60,
            "name": "C4",
            "ticks": 15600,
            "time": 20.7446525,
            "velocity": 0.6299212598425197
          },
          {
            "duration": 0.1582444645833334,
            "durationTicks": 119,
            "midi": 64,
            "name": "E4",
            "ticks": 15600,
            "time": 20.7446525,
            "velocity": 0.6299212598425197
          },
          {
            "duration": 0.1582444645833334,
            "durationTicks": 119,
            "midi": 69,
            "name": "A4",
            "ticks": 15600,
            "time": 20.7446525,
            "velocity": 0.6299212598425197
          },
          {
            "duration": 0.15824446458333696,
            "durationTicks": 119,
            "midi": 60,
            "name": "C4",
            "ticks": 16080,
            "time": 21.3829495,
            "velocity": 0.6299212598425197
          },
          {
            "duration": 0.15824446458333696,
            "durationTicks": 119,
            "midi": 64,
            "name": "E4",
            "ticks": 16080,
            "time": 21.3829495,
            "velocity": 0.6299212598425197
          },
          {
            "duration": 0.15824446458333696,
            "durationTicks": 119,
            "midi": 69,
            "name": "A4",
            "ticks": 16080,
            "time": 21.3829495,
            "velocity": 0.6299212598425197
          },
          {
            "duration": 0.3018612895833357,
            "durationTicks": 227,
            "midi": 40,
            "name": "E2",
            "ticks": 16320,
            "time": 21.702098,
            "velocity": 0.6299212598425197
          },
          {
            "duration": 0.3018612895833357,
            "durationTicks": 227,
            "midi": 52,
            "name": "E3",
            "ticks": 16320,
            "time": 21.702098,
            "velocity": 0.6299212598425197
          },
          {
            "duration": 0.1582444645833334,
            "durationTicks": 119,
            "midi": 55,
            "name": "G3",
            "ticks": 16560,
            "time": 22.0212465,
            "velocity": 0.6299212598425197
          },
          {
            "duration": 0.1582444645833334,
            "durationTicks": 119,
            "midi": 59,
            "name": "B3",
            "ticks": 16560,
            "time": 22.0212465,
            "velocity": 0.6299212598425197
          },
          {
            "duration": 0.1582444645833334,
            "durationTicks": 119,
            "midi": 64,
            "name": "E4",
            "ticks": 16560,
            "time": 22.0212465,
            "velocity": 0.6299212598425197
          },
          {
            "duration": 0.1582444645833334,
            "durationTicks": 119,
            "midi": 55,
            "name": "G3",
            "ticks": 17040,
            "time": 22.6595435,
            "velocity": 0.6299212598425197
          },
          {
            "duration": 0.1582444645833334,
            "durationTicks": 119,
            "midi": 59,
            "name": "B3",
            "ticks": 17040,
            "time": 22.6595435,
            "velocity": 0.6299212598425197
          },
          {
            "duration": 0.1582444645833334,
            "durationTicks": 119,
            "midi": 64,
            "name": "E4",
            "ticks": 17040,
            "time": 22.6595435,
            "velocity": 0.6299212598425197
          },
          {
            "duration": 0.1582444645833334,
            "durationTicks": 119,
            "midi": 55,
            "name": "G3",
            "ticks": 17520,
            "time": 23.2978405,
            "velocity": 0.6299212598425197
          },
          {
            "duration": 0.1582444645833334,
            "durationTicks": 119,
            "midi": 59,
            "name": "B3",
            "ticks": 17520,
            "time": 23.2978405,
            "velocity": 0.6299212598425197
          },
          {
            "duration": 0.1582444645833334,
            "durationTicks": 119,
            "midi": 64,
            "name": "E4",
            "ticks": 17520,
            "time": 23.2978405,
            "velocity": 0.6299212598425197
          },
          {
            "duration": 0.3018612895833357,
            "durationTicks": 227,
            "midi": 36,
            "name": "C2",
            "ticks": 17760,
            "time": 23.616989,
            "velocity": 0.6299212598425197
          },
          {
            "duration": 0.3018612895833357,
            "durationTicks": 227,
            "midi": 48,
            "name": "C3",
            "ticks": 17760,
            "time": 23.616989,
            "velocity": 0.6299212598425197
          },
          {
            "duration": 0.3018612895833357,
            "durationTicks": 227,
            "midi": 38,
            "name": "D2",
            "ticks": 18000,
            "time": 23.9361375,
            "velocity": 0.6299212598425197
          },
          {
            "duration": 0.3018612895833357,
            "durationTicks": 227,
            "midi": 50,
            "name": "D3",
            "ticks": 18000,
            "time": 23.9361375,
            "velocity": 0.6299212598425197
          },
          {
            "duration": 0.30186128958333214,
            "durationTicks": 227,
            "midi": 40,
            "name": "E2",
            "ticks": 18240,
            "time": 24.255286,
            "velocity": 0.6299212598425197
          },
          {
            "duration": 0.30186128958333214,
            "durationTicks": 227,
            "midi": 52,
            "name": "E3",
            "ticks": 18240,
            "time": 24.255286,
            "velocity": 0.6299212598425197
          },
          {
            "duration": 0.15824446458333696,
            "durationTicks": 119,
            "midi": 55,
            "name": "G3",
            "ticks": 18480,
            "time": 24.5744345,
            "velocity": 0.6299212598425197
          },
          {
            "duration": 0.15824446458333696,
            "durationTicks": 119,
            "midi": 59,
            "name": "B3",
            "ticks": 18480,
            "time": 24.5744345,
            "velocity": 0.6299212598425197
          },
          {
            "duration": 0.15824446458333696,
            "durationTicks": 119,
            "midi": 64,
            "name": "E4",
            "ticks": 18480,
            "time": 24.5744345,
            "velocity": 0.6299212598425197
          },
          {
            "duration": 0.1582444645833334,
            "durationTicks": 119,
            "midi": 55,
            "name": "G3",
            "ticks": 18960,
            "time": 25.2127315,
            "velocity": 0.6299212598425197
          },
          {
            "duration": 0.1582444645833334,
            "durationTicks": 119,
            "midi": 59,
            "name": "B3",
            "ticks": 18960,
            "time": 25.2127315,
            "velocity": 0.6299212598425197
          },
          {
            "duration": 0.1582444645833334,
            "durationTicks": 119,
            "midi": 64,
            "name": "E4",
            "ticks": 18960,
            "time": 25.2127315,
            "velocity": 0.6299212598425197
          },
          {
            "duration": 0.1582444645833334,
            "durationTicks": 119,
            "midi": 55,
            "name": "G3",
            "ticks": 19440,
            "time": 25.8510285,
            "velocity": 0.6299212598425197
          },
          {
            "duration": 0.1582444645833334,
            "durationTicks": 119,
            "midi": 59,
            "name": "B3",
            "ticks": 19440,
            "time": 25.8510285,
            "velocity": 0.6299212598425197
          },
          {
            "duration": 0.1582444645833334,
            "durationTicks": 119,
            "midi": 64,
            "name": "E4",
            "ticks": 19440,
            "time": 25.8510285,
            "velocity": 0.6299212598425197
          },
          {
            "duration": 0.3018612895833357,
            "durationTicks": 227,
            "midi": 36,
            "name": "C2",
            "ticks": 19680,
            "time": 26.170177,
            "velocity": 0.6299212598425197
          },
          {
            "duration": 0.3018612895833357,
            "durationTicks": 227,
            "midi": 48,
            "name": "C3",
            "ticks": 19680,
            "time": 26.170177,
            "velocity": 0.6299212598425197
          },
          {
            "duration": 0.3018612895833357,
            "durationTicks": 227,
            "midi": 38,
            "name": "D2",
            "ticks": 19920,
            "time": 26.4893255,
            "velocity": 0.6299212598425197
          },
          {
            "duration": 0.3018612895833357,
            "durationTicks": 227,
            "midi": 50,
            "name": "D3",
            "ticks": 19920,
            "time": 26.4893255,
            "velocity": 0.6299212598425197
          },
          {
            "duration": 0.3018612895833357,
            "durationTicks": 227,
            "midi": 40,
            "name": "E2",
            "ticks": 20160,
            "time": 26.808474,
            "velocity": 0.6299212598425197
          },
          {
            "duration": 0.3018612895833357,
            "durationTicks": 227,
            "midi": 52,
            "name": "E3",
            "ticks": 20160,
            "time": 26.808474,
            "velocity": 0.6299212598425197
          },
          {
            "duration": 0.1582444645833334,
            "durationTicks": 119,
            "midi": 55,
            "name": "G3",
            "ticks": 20400,
            "time": 27.1276225,
            "velocity": 0.6299212598425197
          },
          {
            "duration": 0.1582444645833334,
            "durationTicks": 119,
            "midi": 59,
            "name": "B3",
            "ticks": 20400,
            "time": 27.1276225,
            "velocity": 0.6299212598425197
          },
          {
            "duration": 0.1582444645833334,
            "durationTicks": 119,
            "midi": 64,
            "name": "E4",
            "ticks": 20400,
            "time": 27.1276225,
            "velocity": 0.6299212598425197
          },
          {
            "duration": 0.15824446458333696,
            "durationTicks": 119,
            "midi": 55,
            "name": "G3",
            "ticks": 20880,
            "time": 27.7659195,
            "velocity": 0.6299212598425197
          },
          {
            "duration": 0.15824446458333696,
            "durationTicks": 119,
            "midi": 59,
            "name": "B3",
            "ticks": 20880,
            "time": 27.7659195,
            "velocity": 0.6299212598425197
          },
          {
            "duration": 0.15824446458333696,
            "durationTicks": 119,
            "midi": 64,
            "name": "E4",
            "ticks": 20880,
            "time": 27.7659195,
            "velocity": 0.6299212598425197
          },
          {
            "duration": 0.1582444645833334,
            "durationTicks": 119,
            "midi": 55,
            "name": "G3",
            "ticks": 21360,
            "time": 28.4042165,
            "velocity": 0.6299212598425197
          },
          {
            "duration": 0.1582444645833334,
            "durationTicks": 119,
            "midi": 59,
            "name": "B3",
            "ticks": 21360,
            "time": 28.4042165,
            "velocity": 0.6299212598425197
          },
          {
            "duration": 0.1582444645833334,
            "durationTicks": 119,
            "midi": 64,
            "name": "E4",
            "ticks": 21360,
            "time": 28.4042165,
            "velocity": 0.6299212598425197
          },
          {
            "duration": 0.3018612895833357,
            "durationTicks": 227,
            "midi": 36,
            "name": "C2",
            "ticks": 21600,
            "time": 28.723365,
            "velocity": 0.6299212598425197
          },
          {
            "duration": 0.3018612895833357,
            "durationTicks": 227,
            "midi": 48,
            "name": "C3",
            "ticks": 21600,
            "time": 28.723365,
            "velocity": 0.6299212598425197
          },
          {
            "duration": 0.30186128958333214,
            "durationTicks": 227,
            "midi": 38,
            "name": "D2",
            "ticks": 21840,
            "time": 29.042513500000002,
            "velocity": 0.6299212598425197
          },
          {
            "duration": 0.30186128958333214,
            "durationTicks": 227,
            "midi": 50,
            "name": "D3",
            "ticks": 21840,
            "time": 29.042513500000002,
            "velocity": 0.6299212598425197
          },
          {
            "duration": 0.3018612895833357,
            "durationTicks": 227,
            "midi": 40,
            "name": "E2",
            "ticks": 22080,
            "time": 29.361662,
            "velocity": 0.6299212598425197
          },
          {
            "duration": 0.3018612895833357,
            "durationTicks": 227,
            "midi": 52,
            "name": "E3",
            "ticks": 22080,
            "time": 29.361662,
            "velocity": 0.6299212598425197
          },
          {
            "duration": 0.1582444645833334,
            "durationTicks": 119,
            "midi": 55,
            "name": "G3",
            "ticks": 22320,
            "time": 29.6808105,
            "velocity": 0.6299212598425197
          },
          {
            "duration": 0.1582444645833334,
            "durationTicks": 119,
            "midi": 59,
            "name": "B3",
            "ticks": 22320,
            "time": 29.6808105,
            "velocity": 0.6299212598425197
          },
          {
            "duration": 0.1582444645833334,
            "durationTicks": 119,
            "midi": 64,
            "name": "E4",
            "ticks": 22320,
            "time": 29.6808105,
            "velocity": 0.6299212598425197
          },
          {
            "duration": 0.1582444645833334,
            "durationTicks": 119,
            "midi": 55,
            "name": "G3",
            "ticks": 22800,
            "time": 30.3191075,
            "velocity": 0.6299212598425197
          },
          {
            "duration": 0.1582444645833334,
            "durationTicks": 119,
            "midi": 59,
            "name": "B3",
            "ticks": 22800,
            "time": 30.3191075,
            "velocity": 0.6299212598425197
          },
          {
            "duration": 0.1582444645833334,
            "durationTicks": 119,
            "midi": 64,
            "name": "E4",
            "ticks": 22800,
            "time": 30.3191075,
            "velocity": 0.6299212598425197
          },
          {
            "duration": 0.15824446458333696,
            "durationTicks": 119,
            "midi": 55,
            "name": "G3",
            "ticks": 23280,
            "time": 30.9574045,
            "velocity": 0.6299212598425197
          },
          {
            "duration": 0.15824446458333696,
            "durationTicks": 119,
            "midi": 59,
            "name": "B3",
            "ticks": 23280,
            "time": 30.9574045,
            "velocity": 0.6299212598425197
          },
          {
            "duration": 0.15824446458333696,
            "durationTicks": 119,
            "midi": 64,
            "name": "E4",
            "ticks": 23280,
            "time": 30.9574045,
            "velocity": 0.6299212598425197
          },
          {
            "duration": 0.3018612895833357,
            "durationTicks": 227,
            "midi": 36,
            "name": "C2",
            "ticks": 23520,
            "time": 31.276553,
            "velocity": 0.6299212598425197
          },
          {
            "duration": 0.3018612895833357,
            "durationTicks": 227,
            "midi": 48,
            "name": "C3",
            "ticks": 23520,
            "time": 31.276553,
            "velocity": 0.6299212598425197
          },
          {
            "duration": 0.3018612895833357,
            "durationTicks": 227,
            "midi": 38,
            "name": "D2",
            "ticks": 23760,
            "time": 31.5957015,
            "velocity": 0.6299212598425197
          },
          {
            "duration": 0.3018612895833357,
            "durationTicks": 227,
            "midi": 50,
            "name": "D3",
            "ticks": 23760,
            "time": 31.5957015,
            "velocity": 0.6299212598425197
          },
          {
            "duration": 0.3018612895833357,
            "durationTicks": 227,
            "midi": 40,
            "name": "E2",
            "ticks": 24000,
            "time": 31.91485,
            "velocity": 0.6299212598425197
          },
          {
            "duration": 0.3018612895833357,
            "durationTicks": 227,
            "midi": 52,
            "name": "E3",
            "ticks": 24000,
            "time": 31.91485,
            "velocity": 0.6299212598425197
          },
          {
            "duration": 0.1582444645833334,
            "durationTicks": 119,
            "midi": 55,
            "name": "G3",
            "ticks": 24240,
            "time": 32.2339985,
            "velocity": 0.6299212598425197
          },
          {
            "duration": 0.1582444645833334,
            "durationTicks": 119,
            "midi": 59,
            "name": "B3",
            "ticks": 24240,
            "time": 32.2339985,
            "velocity": 0.6299212598425197
          },
          {
            "duration": 0.1582444645833334,
            "durationTicks": 119,
            "midi": 64,
            "name": "E4",
            "ticks": 24240,
            "time": 32.2339985,
            "velocity": 0.6299212598425197
          },
          {
            "duration": 0.1582444645833334,
            "durationTicks": 119,
            "midi": 55,
            "name": "G3",
            "ticks": 24720,
            "time": 32.8722955,
            "velocity": 0.6299212598425197
          },
          {
            "duration": 0.1582444645833334,
            "durationTicks": 119,
            "midi": 59,
            "name": "B3",
            "ticks": 24720,
            "time": 32.8722955,
            "velocity": 0.6299212598425197
          },
          {
            "duration": 0.1582444645833334,
            "durationTicks": 119,
            "midi": 64,
            "name": "E4",
            "ticks": 24720,
            "time": 32.8722955,
            "velocity": 0.6299212598425197
          },
          {
            "duration": 0.1582444645833334,
            "durationTicks": 119,
            "midi": 55,
            "name": "G3",
            "ticks": 25200,
            "time": 33.5105925,
            "velocity": 0.6299212598425197
          },
          {
            "duration": 0.1582444645833334,
            "durationTicks": 119,
            "midi": 59,
            "name": "B3",
            "ticks": 25200,
            "time": 33.5105925,
            "velocity": 0.6299212598425197
          },
          {
            "duration": 0.1582444645833334,
            "durationTicks": 119,
            "midi": 64,
            "name": "E4",
            "ticks": 25200,
            "time": 33.5105925,
            "velocity": 0.6299212598425197
          },
          {
            "duration": 0.1582444645833334,
            "durationTicks": 119,
            "midi": 55,
            "name": "G3",
            "ticks": 25680,
            "time": 34.1488895,
            "velocity": 0.6299212598425197
          },
          {
            "duration": 0.1582444645833334,
            "durationTicks": 119,
            "midi": 59,
            "name": "B3",
            "ticks": 25680,
            "time": 34.1488895,
            "velocity": 0.6299212598425197
          },
          {
            "duration": 0.1582444645833334,
            "durationTicks": 119,
            "midi": 64,
            "name": "E4",
            "ticks": 25680,
            "time": 34.1488895,
            "velocity": 0.6299212598425197
          },
          {
            "duration": 0.15824446458334052,
            "durationTicks": 119,
            "midi": 55,
            "name": "G3",
            "ticks": 26160,
            "time": 34.7871865,
            "velocity": 0.6299212598425197
          },
          {
            "duration": 0.15824446458334052,
            "durationTicks": 119,
            "midi": 59,
            "name": "B3",
            "ticks": 26160,
            "time": 34.7871865,
            "velocity": 0.6299212598425197
          },
          {
            "duration": 0.15824446458334052,
            "durationTicks": 119,
            "midi": 64,
            "name": "E4",
            "ticks": 26160,
            "time": 34.7871865,
            "velocity": 0.6299212598425197
          },
          {
            "duration": 0.1582444645833334,
            "durationTicks": 119,
            "midi": 55,
            "name": "G3",
            "ticks": 26640,
            "time": 35.4254835,
            "velocity": 0.6299212598425197
          },
          {
            "duration": 0.1582444645833334,
            "durationTicks": 119,
            "midi": 59,
            "name": "B3",
            "ticks": 26640,
            "time": 35.4254835,
            "velocity": 0.6299212598425197
          },
          {
            "duration": 0.1582444645833334,
            "durationTicks": 119,
            "midi": 64,
            "name": "E4",
            "ticks": 26640,
            "time": 35.4254835,
            "velocity": 0.6299212598425197
          },
          {
            "duration": 0.3018612895833357,
            "durationTicks": 227,
            "midi": 43,
            "name": "G2",
            "ticks": 26880,
            "time": 35.744632,
            "velocity": 0.6299212598425197
          },
          {
            "duration": 0.3018612895833357,
            "durationTicks": 227,
            "midi": 55,
            "name": "G3",
            "ticks": 26880,
            "time": 35.744632,
            "velocity": 0.6299212598425197
          },
          {
            "duration": 0.1582444645833334,
            "durationTicks": 119,
            "midi": 55,
            "name": "G3",
            "ticks": 27120,
            "time": 36.0637805,
            "velocity": 0.6299212598425197
          },
          {
            "duration": 0.1582444645833334,
            "durationTicks": 119,
            "midi": 59,
            "name": "B3",
            "ticks": 27120,
            "time": 36.0637805,
            "velocity": 0.6299212598425197
          },
          {
            "duration": 0.1582444645833334,
            "durationTicks": 119,
            "midi": 64,
            "name": "E4",
            "ticks": 27120,
            "time": 36.0637805,
            "velocity": 0.6299212598425197
          },
          {
            "duration": 0.1582444645833334,
            "durationTicks": 119,
            "midi": 55,
            "name": "G3",
            "ticks": 27600,
            "time": 36.7020775,
            "velocity": 0.6299212598425197
          },
          {
            "duration": 0.1582444645833334,
            "durationTicks": 119,
            "midi": 59,
            "name": "B3",
            "ticks": 27600,
            "time": 36.7020775,
            "velocity": 0.6299212598425197
          },
          {
            "duration": 0.1582444645833334,
            "durationTicks": 119,
            "midi": 64,
            "name": "E4",
            "ticks": 27600,
            "time": 36.7020775,
            "velocity": 0.6299212598425197
          },
          {
            "duration": 0.1582444645833334,
            "durationTicks": 119,
            "midi": 55,
            "name": "G3",
            "ticks": 28080,
            "time": 37.3403745,
            "velocity": 0.6299212598425197
          },
          {
            "duration": 0.1582444645833334,
            "durationTicks": 119,
            "midi": 59,
            "name": "B3",
            "ticks": 28080,
            "time": 37.3403745,
            "velocity": 0.6299212598425197
          },
          {
            "duration": 0.1582444645833334,
            "durationTicks": 119,
            "midi": 64,
            "name": "E4",
            "ticks": 28080,
            "time": 37.3403745,
            "velocity": 0.6299212598425197
          },
          {
            "duration": 0.3018612895833357,
            "durationTicks": 227,
            "midi": 43,
            "name": "G2",
            "ticks": 28320,
            "time": 37.659523,
            "velocity": 0.6299212598425197
          },
          {
            "duration": 0.3018612895833357,
            "durationTicks": 227,
            "midi": 55,
            "name": "G3",
            "ticks": 28320,
            "time": 37.659523,
            "velocity": 0.6299212598425197
          },
          {
            "duration": 0.3018612895833357,
            "durationTicks": 227,
            "midi": 42,
            "name": "F#2",
            "ticks": 28560,
            "time": 37.9786715,
            "velocity": 0.6299212598425197
          },
          {
            "duration": 0.3018612895833357,
            "durationTicks": 227,
            "midi": 54,
            "name": "F#3",
            "ticks": 28560,
            "time": 37.9786715,
            "velocity": 0.6299212598425197
          },
          {
            "duration": 0.3018612895833357,
            "durationTicks": 227,
            "midi": 43,
            "name": "G2",
            "ticks": 28800,
            "time": 38.29782,
            "velocity": 0.6299212598425197
          },
          {
            "duration": 0.3018612895833357,
            "durationTicks": 227,
            "midi": 55,
            "name": "G3",
            "ticks": 28800,
            "time": 38.29782,
            "velocity": 0.6299212598425197
          },
          {
            "duration": 0.1582444645833334,
            "durationTicks": 119,
            "midi": 55,
            "name": "G3",
            "ticks": 29040,
            "time": 38.6169685,
            "velocity": 0.6299212598425197
          },
          {
            "duration": 0.1582444645833334,
            "durationTicks": 119,
            "midi": 59,
            "name": "B3",
            "ticks": 29040,
            "time": 38.6169685,
            "velocity": 0.6299212598425197
          },
          {
            "duration": 0.1582444645833334,
            "durationTicks": 119,
            "midi": 64,
            "name": "E4",
            "ticks": 29040,
            "time": 38.6169685,
            "velocity": 0.6299212598425197
          },
          {
            "duration": 0.1582444645833334,
            "durationTicks": 119,
            "midi": 55,
            "name": "G3",
            "ticks": 29520,
            "time": 39.2552655,
            "velocity": 0.6299212598425197
          },
          {
            "duration": 0.1582444645833334,
            "durationTicks": 119,
            "midi": 59,
            "name": "B3",
            "ticks": 29520,
            "time": 39.2552655,
            "velocity": 0.6299212598425197
          },
          {
            "duration": 0.1582444645833334,
            "durationTicks": 119,
            "midi": 64,
            "name": "E4",
            "ticks": 29520,
            "time": 39.2552655,
            "velocity": 0.6299212598425197
          },
          {
            "duration": 0.1582444645833334,
            "durationTicks": 119,
            "midi": 55,
            "name": "G3",
            "ticks": 30000,
            "time": 39.8935625,
            "velocity": 0.6299212598425197
          },
          {
            "duration": 0.1582444645833334,
            "durationTicks": 119,
            "midi": 59,
            "name": "B3",
            "ticks": 30000,
            "time": 39.8935625,
            "velocity": 0.6299212598425197
          },
          {
            "duration": 0.1582444645833334,
            "durationTicks": 119,
            "midi": 64,
            "name": "E4",
            "ticks": 30000,
            "time": 39.8935625,
            "velocity": 0.6299212598425197
          },
          {
            "duration": 0.1582444645833334,
            "durationTicks": 119,
            "midi": 55,
            "name": "G3",
            "ticks": 30480,
            "time": 40.5318595,
            "velocity": 0.6299212598425197
          },
          {
            "duration": 0.1582444645833334,
            "durationTicks": 119,
            "midi": 59,
            "name": "B3",
            "ticks": 30480,
            "time": 40.5318595,
            "velocity": 0.6299212598425197
          },
          {
            "duration": 0.1582444645833334,
            "durationTicks": 119,
            "midi": 64,
            "name": "E4",
            "ticks": 30480,
            "time": 40.5318595,
            "velocity": 0.6299212598425197
          },
          {
            "duration": 0.3018612895833286,
            "durationTicks": 227,
            "midi": 45,
            "name": "A2",
            "ticks": 30720,
            "time": 40.851008,
            "velocity": 0.6299212598425197
          },
          {
            "duration": 0.3018612895833286,
            "durationTicks": 227,
            "midi": 57,
            "name": "A3",
            "ticks": 30720,
            "time": 40.851008,
            "velocity": 0.6299212598425197
          },
          {
            "duration": 0.15824446458334052,
            "durationTicks": 119,
            "midi": 60,
            "name": "C4",
            "ticks": 30960,
            "time": 41.1701565,
            "velocity": 0.6299212598425197
          },
          {
            "duration": 0.15824446458334052,
            "durationTicks": 119,
            "midi": 64,
            "name": "E4",
            "ticks": 30960,
            "time": 41.1701565,
            "velocity": 0.6299212598425197
          },
          {
            "duration": 0.15824446458334052,
            "durationTicks": 119,
            "midi": 69,
            "name": "A4",
            "ticks": 30960,
            "time": 41.1701565,
            "velocity": 0.6299212598425197
          },
          {
            "duration": 0.1582444645833334,
            "durationTicks": 119,
            "midi": 60,
            "name": "C4",
            "ticks": 31440,
            "time": 41.8084535,
            "velocity": 0.6299212598425197
          },
          {
            "duration": 0.1582444645833334,
            "durationTicks": 119,
            "midi": 64,
            "name": "E4",
            "ticks": 31440,
            "time": 41.8084535,
            "velocity": 0.6299212598425197
          },
          {
            "duration": 0.1582444645833334,
            "durationTicks": 119,
            "midi": 69,
            "name": "A4",
            "ticks": 31440,
            "time": 41.8084535,
            "velocity": 0.6299212598425197
          },
          {
            "duration": 0.1582444645833334,
            "durationTicks": 119,
            "midi": 60,
            "name": "C4",
            "ticks": 31920,
            "time": 42.4467505,
            "velocity": 0.6299212598425197
          },
          {
            "duration": 0.1582444645833334,
            "durationTicks": 119,
            "midi": 64,
            "name": "E4",
            "ticks": 31920,
            "time": 42.4467505,
            "velocity": 0.6299212598425197
          },
          {
            "duration": 0.1582444645833334,
            "durationTicks": 119,
            "midi": 69,
            "name": "A4",
            "ticks": 31920,
            "time": 42.4467505,
            "velocity": 0.6299212598425197
          },
          {
            "duration": 0.1582444645833334,
            "durationTicks": 119,
            "midi": 60,
            "name": "C4",
            "ticks": 32400,
            "time": 43.0850475,
            "velocity": 0.6299212598425197
          },
          {
            "duration": 0.1582444645833334,
            "durationTicks": 119,
            "midi": 64,
            "name": "E4",
            "ticks": 32400,
            "time": 43.0850475,
            "velocity": 0.6299212598425197
          },
          {
            "duration": 0.1582444645833334,
            "durationTicks": 119,
            "midi": 69,
            "name": "A4",
            "ticks": 32400,
            "time": 43.0850475,
            "velocity": 0.6299212598425197
          },
          {
            "duration": 0.3018612895833357,
            "durationTicks": 227,
            "midi": 45,
            "name": "A2",
            "ticks": 32640,
            "time": 43.404196,
            "velocity": 0.6299212598425197
          },
          {
            "duration": 0.3018612895833357,
            "durationTicks": 227,
            "midi": 57,
            "name": "A3",
            "ticks": 32640,
            "time": 43.404196,
            "velocity": 0.6299212598425197
          },
          {
            "duration": 0.1582444645833334,
            "durationTicks": 119,
            "midi": 60,
            "name": "C4",
            "ticks": 32880,
            "time": 43.7233445,
            "velocity": 0.6299212598425197
          },
          {
            "duration": 0.1582444645833334,
            "durationTicks": 119,
            "midi": 64,
            "name": "E4",
            "ticks": 32880,
            "time": 43.7233445,
            "velocity": 0.6299212598425197
          },
          {
            "duration": 0.1582444645833334,
            "durationTicks": 119,
            "midi": 69,
            "name": "A4",
            "ticks": 32880,
            "time": 43.7233445,
            "velocity": 0.6299212598425197
          },
          {
            "duration": 0.15824446458334052,
            "durationTicks": 119,
            "midi": 60,
            "name": "C4",
            "ticks": 33360,
            "time": 44.3616415,
            "velocity": 0.6299212598425197
          },
          {
            "duration": 0.15824446458334052,
            "durationTicks": 119,
            "midi": 64,
            "name": "E4",
            "ticks": 33360,
            "time": 44.3616415,
            "velocity": 0.6299212598425197
          },
          {
            "duration": 0.15824446458334052,
            "durationTicks": 119,
            "midi": 69,
            "name": "A4",
            "ticks": 33360,
            "time": 44.3616415,
            "velocity": 0.6299212598425197
          },
          {
            "duration": 0.1582444645833334,
            "durationTicks": 119,
            "midi": 60,
            "name": "C4",
            "ticks": 33840,
            "time": 44.9999385,
            "velocity": 0.6299212598425197
          },
          {
            "duration": 0.1582444645833334,
            "durationTicks": 119,
            "midi": 64,
            "name": "E4",
            "ticks": 33840,
            "time": 44.9999385,
            "velocity": 0.6299212598425197
          },
          {
            "duration": 0.1582444645833334,
            "durationTicks": 119,
            "midi": 69,
            "name": "A4",
            "ticks": 33840,
            "time": 44.9999385,
            "velocity": 0.6299212598425197
          },
          {
            "duration": 0.1582444645833334,
            "durationTicks": 119,
            "midi": 60,
            "name": "C4",
            "ticks": 34320,
            "time": 45.6382355,
            "velocity": 0.6299212598425197
          },
          {
            "duration": 0.1582444645833334,
            "durationTicks": 119,
            "midi": 64,
            "name": "E4",
            "ticks": 34320,
            "time": 45.6382355,
            "velocity": 0.6299212598425197
          },
          {
            "duration": 0.1582444645833334,
            "durationTicks": 119,
            "midi": 69,
            "name": "A4",
            "ticks": 34320,
            "time": 45.6382355,
            "velocity": 0.6299212598425197
          },
          {
            "duration": 0.3018612895833357,
            "durationTicks": 227,
            "midi": 40,
            "name": "E2",
            "ticks": 34560,
            "time": 45.957384,
            "velocity": 0.6299212598425197
          },
          {
            "duration": 0.3018612895833357,
            "durationTicks": 227,
            "midi": 52,
            "name": "E3",
            "ticks": 34560,
            "time": 45.957384,
            "velocity": 0.6299212598425197
          },
          {
            "duration": 0.1582444645833334,
            "durationTicks": 119,
            "midi": 55,
            "name": "G3",
            "ticks": 34800,
            "time": 46.2765325,
            "velocity": 0.6299212598425197
          },
          {
            "duration": 0.1582444645833334,
            "durationTicks": 119,
            "midi": 59,
            "name": "B3",
            "ticks": 34800,
            "time": 46.2765325,
            "velocity": 0.6299212598425197
          },
          {
            "duration": 0.1582444645833334,
            "durationTicks": 119,
            "midi": 64,
            "name": "E4",
            "ticks": 34800,
            "time": 46.2765325,
            "velocity": 0.6299212598425197
          },
          {
            "duration": 0.1582444645833334,
            "durationTicks": 119,
            "midi": 55,
            "name": "G3",
            "ticks": 35280,
            "time": 46.9148295,
            "velocity": 0.6299212598425197
          },
          {
            "duration": 0.1582444645833334,
            "durationTicks": 119,
            "midi": 59,
            "name": "B3",
            "ticks": 35280,
            "time": 46.9148295,
            "velocity": 0.6299212598425197
          },
          {
            "duration": 0.1582444645833334,
            "durationTicks": 119,
            "midi": 64,
            "name": "E4",
            "ticks": 35280,
            "time": 46.9148295,
            "velocity": 0.6299212598425197
          },
          {
            "duration": 0.15824446458334052,
            "durationTicks": 119,
            "midi": 55,
            "name": "G3",
            "ticks": 35760,
            "time": 47.5531265,
            "velocity": 0.6299212598425197
          },
          {
            "duration": 0.15824446458334052,
            "durationTicks": 119,
            "midi": 59,
            "name": "B3",
            "ticks": 35760,
            "time": 47.5531265,
            "velocity": 0.6299212598425197
          },
          {
            "duration": 0.15824446458334052,
            "durationTicks": 119,
            "midi": 64,
            "name": "E4",
            "ticks": 35760,
            "time": 47.5531265,
            "velocity": 0.6299212598425197
          },
          {
            "duration": 0.1582444645833334,
            "durationTicks": 119,
            "midi": 55,
            "name": "G3",
            "ticks": 36240,
            "time": 48.1914235,
            "velocity": 0.6299212598425197
          },
          {
            "duration": 0.1582444645833334,
            "durationTicks": 119,
            "midi": 59,
            "name": "B3",
            "ticks": 36240,
            "time": 48.1914235,
            "velocity": 0.6299212598425197
          },
          {
            "duration": 0.1582444645833334,
            "durationTicks": 119,
            "midi": 64,
            "name": "E4",
            "ticks": 36240,
            "time": 48.1914235,
            "velocity": 0.6299212598425197
          },
          {
            "duration": 0.3018612895833286,
            "durationTicks": 227,
            "midi": 40,
            "name": "E2",
            "ticks": 36480,
            "time": 48.510572,
            "velocity": 0.5039370078740157
          },
          {
            "duration": 0.3018612895833286,
            "durationTicks": 227,
            "midi": 52,
            "name": "E3",
            "ticks": 36480,
            "time": 48.510572,
            "velocity": 0.5039370078740157
          },
          {
            "duration": 0.1582444645833334,
            "durationTicks": 119,
            "midi": 55,
            "name": "G3",
            "ticks": 36720,
            "time": 48.8297205,
            "velocity": 0.5039370078740157
          },
          {
            "duration": 0.1582444645833334,
            "durationTicks": 119,
            "midi": 59,
            "name": "B3",
            "ticks": 36720,
            "time": 48.8297205,
            "velocity": 0.5039370078740157
          },
          {
            "duration": 0.1582444645833334,
            "durationTicks": 119,
            "midi": 64,
            "name": "E4",
            "ticks": 36720,
            "time": 48.8297205,
            "velocity": 0.5039370078740157
          },
          {
            "duration": 0.1582444645833334,
            "durationTicks": 119,
            "midi": 55,
            "name": "G3",
            "ticks": 37200,
            "time": 49.4680175,
            "velocity": 0.5039370078740157
          },
          {
            "duration": 0.1582444645833334,
            "durationTicks": 119,
            "midi": 59,
            "name": "B3",
            "ticks": 37200,
            "time": 49.4680175,
            "velocity": 0.5039370078740157
          },
          {
            "duration": 0.1582444645833334,
            "durationTicks": 119,
            "midi": 64,
            "name": "E4",
            "ticks": 37200,
            "time": 49.4680175,
            "velocity": 0.5039370078740157
          },
          {
            "duration": 0.1582444645833334,
            "durationTicks": 119,
            "midi": 55,
            "name": "G3",
            "ticks": 37680,
            "time": 50.1063145,
            "velocity": 0.5039370078740157
          },
          {
            "duration": 0.1582444645833334,
            "durationTicks": 119,
            "midi": 59,
            "name": "B3",
            "ticks": 37680,
            "time": 50.1063145,
            "velocity": 0.5039370078740157
          },
          {
            "duration": 0.1582444645833334,
            "durationTicks": 119,
            "midi": 64,
            "name": "E4",
            "ticks": 37680,
            "time": 50.1063145,
            "velocity": 0.5039370078740157
          },
          {
            "duration": 0.3018612895833286,
            "durationTicks": 227,
            "midi": 36,
            "name": "C2",
            "ticks": 37920,
            "time": 50.425463,
            "velocity": 0.5039370078740157
          },
          {
            "duration": 0.3018612895833286,
            "durationTicks": 227,
            "midi": 48,
            "name": "C3",
            "ticks": 37920,
            "time": 50.425463,
            "velocity": 0.5039370078740157
          },
          {
            "duration": 0.3018612895833357,
            "durationTicks": 227,
            "midi": 38,
            "name": "D2",
            "ticks": 38160,
            "time": 50.7446115,
            "velocity": 0.5039370078740157
          },
          {
            "duration": 0.3018612895833357,
            "durationTicks": 227,
            "midi": 50,
            "name": "D3",
            "ticks": 38160,
            "time": 50.7446115,
            "velocity": 0.5039370078740157
          },
          {
            "duration": 2.4241988145833275,
            "durationTicks": 1823,
            "midi": 40,
            "name": "E2",
            "ticks": 38400,
            "time": 51.06376,
            "velocity": 0.5039370078740157
          },
          {
            "duration": 2.4241988145833275,
            "durationTicks": 1823,
            "midi": 52,
            "name": "E3",
            "ticks": 38400,
            "time": 51.06376,
            "velocity": 0.5039370078740157
          }
        ],
        "endOfTrackTicks": 40224
      }
    ]
  }