var full25 = {
  "header": {
    "keySignatures": [],
    "meta": [],
    "name": "\u0000",
    "ppq": 96,
    "tempos": [],
    "timeSignatures": [
      {
        "ticks": 0,
        "timeSignature": [
          4,
          4
        ],
        "measures": 0
      },
      {
        "ticks": 0,
        "timeSignature": [
          4,
          4
        ],
        "measures": 0
      }
    ]
  },
  "tracks": [
    {
      "channel": 0,
      "controlChanges": {},
      "pitchBends": [],
      "instrument": {
        "family": "piano",
        "name": "acoustic grand piano",
        "number": 0
      },
      "name": "\u0000",
      "notes": [
        {
          "duration": 2,
          "durationTicks": 384,
          "midi": 60,
          "name": "C4",
          "ticks": 0,
          "time": 0,
          "velocity": 0.7874015748031497
        },
        {
          "duration": 2,
          "durationTicks": 384,
          "midi": 61,
          "name": "C#4",
          "ticks": 0,
          "time": 0,
          "velocity": 0.7874015748031497
        },
        {
          "duration": 2,
          "durationTicks": 384,
          "midi": 62,
          "name": "D4",
          "ticks": 0,
          "time": 0,
          "velocity": 0.7874015748031497
        },
        {
          "duration": 2,
          "durationTicks": 384,
          "midi": 63,
          "name": "D#4",
          "ticks": 0,
          "time": 0,
          "velocity": 0.7874015748031497
        },
        {
          "duration": 2,
          "durationTicks": 384,
          "midi": 64,
          "name": "E4",
          "ticks": 0,
          "time": 0,
          "velocity": 0.7874015748031497
        },
        {
          "duration": 2,
          "durationTicks": 384,
          "midi": 65,
          "name": "F4",
          "ticks": 0,
          "time": 0,
          "velocity": 0.7874015748031497
        },
        {
          "duration": 2,
          "durationTicks": 384,
          "midi": 66,
          "name": "F#4",
          "ticks": 0,
          "time": 0,
          "velocity": 0.7874015748031497
        },
        {
          "duration": 2,
          "durationTicks": 384,
          "midi": 67,
          "name": "G4",
          "ticks": 0,
          "time": 0,
          "velocity": 0.7874015748031497
        },
        {
          "duration": 2,
          "durationTicks": 384,
          "midi": 68,
          "name": "G#4",
          "ticks": 0,
          "time": 0,
          "velocity": 0.7874015748031497
        },
        {
          "duration": 2,
          "durationTicks": 384,
          "midi": 69,
          "name": "A4",
          "ticks": 0,
          "time": 0,
          "velocity": 0.7874015748031497
        },
        {
          "duration": 2,
          "durationTicks": 384,
          "midi": 70,
          "name": "A#4",
          "ticks": 0,
          "time": 0,
          "velocity": 0.7874015748031497
        },
        {
          "duration": 2,
          "durationTicks": 384,
          "midi": 71,
          "name": "B4",
          "ticks": 0,
          "time": 0,
          "velocity": 0.7874015748031497
        },
        {
          "duration": 2,
          "durationTicks": 384,
          "midi": 72,
          "name": "C5",
          "ticks": 0,
          "time": 0,
          "velocity": 0.7874015748031497
        },
        {
          "duration": 2,
          "durationTicks": 384,
          "midi": 73,
          "name": "C#5",
          "ticks": 0,
          "time": 0,
          "velocity": 0.7874015748031497
        },
        {
          "duration": 2,
          "durationTicks": 384,
          "midi": 74,
          "name": "D5",
          "ticks": 0,
          "time": 0,
          "velocity": 0.7874015748031497
        },
        {
          "duration": 2,
          "durationTicks": 384,
          "midi": 75,
          "name": "D#5",
          "ticks": 0,
          "time": 0,
          "velocity": 0.7874015748031497
        },
        {
          "duration": 2,
          "durationTicks": 384,
          "midi": 76,
          "name": "E5",
          "ticks": 0,
          "time": 0,
          "velocity": 0.7874015748031497
        },
        {
          "duration": 2,
          "durationTicks": 384,
          "midi": 77,
          "name": "F5",
          "ticks": 0,
          "time": 0,
          "velocity": 0.7874015748031497
        },
        {
          "duration": 2,
          "durationTicks": 384,
          "midi": 78,
          "name": "F#5",
          "ticks": 0,
          "time": 0,
          "velocity": 0.7874015748031497
        },
        {
          "duration": 2,
          "durationTicks": 384,
          "midi": 79,
          "name": "G5",
          "ticks": 0,
          "time": 0,
          "velocity": 0.7874015748031497
        },
        {
          "duration": 2,
          "durationTicks": 384,
          "midi": 80,
          "name": "G#5",
          "ticks": 0,
          "time": 0,
          "velocity": 0.7874015748031497
        },
        {
          "duration": 2,
          "durationTicks": 384,
          "midi": 81,
          "name": "A5",
          "ticks": 0,
          "time": 0,
          "velocity": 0.7874015748031497
        },
        {
          "duration": 2,
          "durationTicks": 384,
          "midi": 82,
          "name": "A#5",
          "ticks": 0,
          "time": 0,
          "velocity": 0.7874015748031497
        },
        {
          "duration": 2,
          "durationTicks": 384,
          "midi": 83,
          "name": "B5",
          "ticks": 0,
          "time": 0,
          "velocity": 0.7874015748031497
        },
        {
          "duration": 2,
          "durationTicks": 384,
          "midi": 84,
          "name": "C6",
          "ticks": 0,
          "time": 0,
          "velocity": 0.7874015748031497
        },
        {
          "duration": 0.5,
          "durationTicks": 96,
          "midi": 60,
          "name": "C4",
          "ticks": 384,
          "time": 2,
          "velocity": 0.7874015748031497
        },
        {
          "duration": 0.5,
          "durationTicks": 96,
          "midi": 84,
          "name": "C6",
          "ticks": 384,
          "time": 2,
          "velocity": 0.7874015748031497
        },
        {
          "duration": 0.5,
          "durationTicks": 96,
          "midi": 60,
          "name": "C4",
          "ticks": 480,
          "time": 2.5,
          "velocity": 0.7874015748031497
        },
        {
          "duration": 0.5,
          "durationTicks": 96,
          "midi": 84,
          "name": "C6",
          "ticks": 480,
          "time": 2.5,
          "velocity": 0.7874015748031497
        },
        {
          "duration": 0.5,
          "durationTicks": 96,
          "midi": 60,
          "name": "C4",
          "ticks": 576,
          "time": 3,
          "velocity": 0.7874015748031497
        },
        {
          "duration": 0.5,
          "durationTicks": 96,
          "midi": 84,
          "name": "C6",
          "ticks": 576,
          "time": 3,
          "velocity": 0.7874015748031497
        },
        {
          "duration": 0.5,
          "durationTicks": 96,
          "midi": 60,
          "name": "C4",
          "ticks": 672,
          "time": 3.5,
          "velocity": 0.7874015748031497
        },
        {
          "duration": 0.5,
          "durationTicks": 96,
          "midi": 84,
          "name": "C6",
          "ticks": 672,
          "time": 3.5,
          "velocity": 0.7874015748031497
        },
        {
          "duration": 0.25,
          "durationTicks": 48,
          "midi": 60,
          "name": "C4",
          "ticks": 768,
          "time": 4,
          "velocity": 0.7874015748031497
        },
        {
          "duration": 0.25,
          "durationTicks": 48,
          "midi": 84,
          "name": "C6",
          "ticks": 768,
          "time": 4,
          "velocity": 0.7874015748031497
        },
        {
          "duration": 0.25,
          "durationTicks": 48,
          "midi": 60,
          "name": "C4",
          "ticks": 816,
          "time": 4.25,
          "velocity": 0.7874015748031497
        },
        {
          "duration": 0.25,
          "durationTicks": 48,
          "midi": 84,
          "name": "C6",
          "ticks": 816,
          "time": 4.25,
          "velocity": 0.7874015748031497
        },
        {
          "duration": 0.25,
          "durationTicks": 48,
          "midi": 60,
          "name": "C4",
          "ticks": 864,
          "time": 4.5,
          "velocity": 0.7874015748031497
        },
        {
          "duration": 0.25,
          "durationTicks": 48,
          "midi": 84,
          "name": "C6",
          "ticks": 864,
          "time": 4.5,
          "velocity": 0.7874015748031497
        },
        {
          "duration": 0.25,
          "durationTicks": 48,
          "midi": 60,
          "name": "C4",
          "ticks": 912,
          "time": 4.75,
          "velocity": 0.7874015748031497
        },
        {
          "duration": 0.25,
          "durationTicks": 48,
          "midi": 84,
          "name": "C6",
          "ticks": 912,
          "time": 4.75,
          "velocity": 0.7874015748031497
        },
        {
          "duration": 0.25,
          "durationTicks": 48,
          "midi": 60,
          "name": "C4",
          "ticks": 960,
          "time": 5,
          "velocity": 0.7874015748031497
        },
        {
          "duration": 0.25,
          "durationTicks": 48,
          "midi": 84,
          "name": "C6",
          "ticks": 960,
          "time": 5,
          "velocity": 0.7874015748031497
        },
        {
          "duration": 0.25,
          "durationTicks": 48,
          "midi": 60,
          "name": "C4",
          "ticks": 1008,
          "time": 5.25,
          "velocity": 0.7874015748031497
        },
        {
          "duration": 0.25,
          "durationTicks": 48,
          "midi": 84,
          "name": "C6",
          "ticks": 1008,
          "time": 5.25,
          "velocity": 0.7874015748031497
        },
        {
          "duration": 0.25,
          "durationTicks": 48,
          "midi": 60,
          "name": "C4",
          "ticks": 1056,
          "time": 5.5,
          "velocity": 0.7874015748031497
        },
        {
          "duration": 0.25,
          "durationTicks": 48,
          "midi": 84,
          "name": "C6",
          "ticks": 1056,
          "time": 5.5,
          "velocity": 0.7874015748031497
        },
        {
          "duration": 0.25,
          "durationTicks": 48,
          "midi": 60,
          "name": "C4",
          "ticks": 1104,
          "time": 5.75,
          "velocity": 0.7874015748031497
        },
        {
          "duration": 0.25,
          "durationTicks": 48,
          "midi": 61,
          "name": "C#4",
          "ticks": 1104,
          "time": 5.75,
          "velocity": 0.7874015748031497
        },
        {
          "duration": 0.25,
          "durationTicks": 48,
          "midi": 62,
          "name": "D4",
          "ticks": 1104,
          "time": 5.75,
          "velocity": 0.7874015748031497
        },
        {
          "duration": 0.25,
          "durationTicks": 48,
          "midi": 63,
          "name": "D#4",
          "ticks": 1104,
          "time": 5.75,
          "velocity": 0.7874015748031497
        },
        {
          "duration": 0.25,
          "durationTicks": 48,
          "midi": 64,
          "name": "E4",
          "ticks": 1104,
          "time": 5.75,
          "velocity": 0.7874015748031497
        },
        {
          "duration": 0.25,
          "durationTicks": 48,
          "midi": 65,
          "name": "F4",
          "ticks": 1104,
          "time": 5.75,
          "velocity": 0.7874015748031497
        },
        {
          "duration": 0.25,
          "durationTicks": 48,
          "midi": 66,
          "name": "F#4",
          "ticks": 1104,
          "time": 5.75,
          "velocity": 0.7874015748031497
        },
        {
          "duration": 0.25,
          "durationTicks": 48,
          "midi": 67,
          "name": "G4",
          "ticks": 1104,
          "time": 5.75,
          "velocity": 0.7874015748031497
        },
        {
          "duration": 0.25,
          "durationTicks": 48,
          "midi": 68,
          "name": "G#4",
          "ticks": 1104,
          "time": 5.75,
          "velocity": 0.7874015748031497
        },
        {
          "duration": 0.25,
          "durationTicks": 48,
          "midi": 69,
          "name": "A4",
          "ticks": 1104,
          "time": 5.75,
          "velocity": 0.7874015748031497
        },
        {
          "duration": 0.25,
          "durationTicks": 48,
          "midi": 70,
          "name": "A#4",
          "ticks": 1104,
          "time": 5.75,
          "velocity": 0.7874015748031497
        },
        {
          "duration": 0.25,
          "durationTicks": 48,
          "midi": 71,
          "name": "B4",
          "ticks": 1104,
          "time": 5.75,
          "velocity": 0.7874015748031497
        },
        {
          "duration": 0.25,
          "durationTicks": 48,
          "midi": 72,
          "name": "C5",
          "ticks": 1104,
          "time": 5.75,
          "velocity": 0.7874015748031497
        },
        {
          "duration": 0.25,
          "durationTicks": 48,
          "midi": 73,
          "name": "C#5",
          "ticks": 1104,
          "time": 5.75,
          "velocity": 0.7874015748031497
        },
        {
          "duration": 0.25,
          "durationTicks": 48,
          "midi": 74,
          "name": "D5",
          "ticks": 1104,
          "time": 5.75,
          "velocity": 0.7874015748031497
        },
        {
          "duration": 0.25,
          "durationTicks": 48,
          "midi": 75,
          "name": "D#5",
          "ticks": 1104,
          "time": 5.75,
          "velocity": 0.7874015748031497
        },
        {
          "duration": 0.25,
          "durationTicks": 48,
          "midi": 76,
          "name": "E5",
          "ticks": 1104,
          "time": 5.75,
          "velocity": 0.7874015748031497
        },
        {
          "duration": 0.25,
          "durationTicks": 48,
          "midi": 77,
          "name": "F5",
          "ticks": 1104,
          "time": 5.75,
          "velocity": 0.7874015748031497
        },
        {
          "duration": 0.25,
          "durationTicks": 48,
          "midi": 78,
          "name": "F#5",
          "ticks": 1104,
          "time": 5.75,
          "velocity": 0.7874015748031497
        },
        {
          "duration": 0.25,
          "durationTicks": 48,
          "midi": 79,
          "name": "G5",
          "ticks": 1104,
          "time": 5.75,
          "velocity": 0.7874015748031497
        },
        {
          "duration": 0.25,
          "durationTicks": 48,
          "midi": 80,
          "name": "G#5",
          "ticks": 1104,
          "time": 5.75,
          "velocity": 0.7874015748031497
        },
        {
          "duration": 0.25,
          "durationTicks": 48,
          "midi": 81,
          "name": "A5",
          "ticks": 1104,
          "time": 5.75,
          "velocity": 0.7874015748031497
        },
        {
          "duration": 0.25,
          "durationTicks": 48,
          "midi": 82,
          "name": "A#5",
          "ticks": 1104,
          "time": 5.75,
          "velocity": 0.7874015748031497
        },
        {
          "duration": 0.25,
          "durationTicks": 48,
          "midi": 83,
          "name": "B5",
          "ticks": 1104,
          "time": 5.75,
          "velocity": 0.7874015748031497
        },
        {
          "duration": 0.25,
          "durationTicks": 48,
          "midi": 84,
          "name": "C6",
          "ticks": 1104,
          "time": 5.75,
          "velocity": 0.7874015748031497
        },
        {
          "duration": 2,
          "durationTicks": 384,
          "midi": 60,
          "name": "C4",
          "ticks": 1152,
          "time": 6,
          "velocity": 0.7874015748031497
        },
        {
          "duration": 2,
          "durationTicks": 384,
          "midi": 61,
          "name": "C#4",
          "ticks": 1152,
          "time": 6,
          "velocity": 0.7874015748031497
        },
        {
          "duration": 2,
          "durationTicks": 384,
          "midi": 62,
          "name": "D4",
          "ticks": 1152,
          "time": 6,
          "velocity": 0.7874015748031497
        },
        {
          "duration": 2,
          "durationTicks": 384,
          "midi": 63,
          "name": "D#4",
          "ticks": 1152,
          "time": 6,
          "velocity": 0.7874015748031497
        },
        {
          "duration": 2,
          "durationTicks": 384,
          "midi": 64,
          "name": "E4",
          "ticks": 1152,
          "time": 6,
          "velocity": 0.7874015748031497
        },
        {
          "duration": 2,
          "durationTicks": 384,
          "midi": 65,
          "name": "F4",
          "ticks": 1152,
          "time": 6,
          "velocity": 0.7874015748031497
        },
        {
          "duration": 2,
          "durationTicks": 384,
          "midi": 66,
          "name": "F#4",
          "ticks": 1152,
          "time": 6,
          "velocity": 0.7874015748031497
        },
        {
          "duration": 2,
          "durationTicks": 384,
          "midi": 67,
          "name": "G4",
          "ticks": 1152,
          "time": 6,
          "velocity": 0.7874015748031497
        },
        {
          "duration": 2,
          "durationTicks": 384,
          "midi": 68,
          "name": "G#4",
          "ticks": 1152,
          "time": 6,
          "velocity": 0.7874015748031497
        },
        {
          "duration": 2,
          "durationTicks": 384,
          "midi": 69,
          "name": "A4",
          "ticks": 1152,
          "time": 6,
          "velocity": 0.7874015748031497
        },
        {
          "duration": 2,
          "durationTicks": 384,
          "midi": 70,
          "name": "A#4",
          "ticks": 1152,
          "time": 6,
          "velocity": 0.7874015748031497
        },
        {
          "duration": 2,
          "durationTicks": 384,
          "midi": 71,
          "name": "B4",
          "ticks": 1152,
          "time": 6,
          "velocity": 0.7874015748031497
        },
        {
          "duration": 2,
          "durationTicks": 384,
          "midi": 72,
          "name": "C5",
          "ticks": 1152,
          "time": 6,
          "velocity": 0.7874015748031497
        },
        {
          "duration": 2,
          "durationTicks": 384,
          "midi": 73,
          "name": "C#5",
          "ticks": 1152,
          "time": 6,
          "velocity": 0.7874015748031497
        },
        {
          "duration": 2,
          "durationTicks": 384,
          "midi": 74,
          "name": "D5",
          "ticks": 1152,
          "time": 6,
          "velocity": 0.7874015748031497
        },
        {
          "duration": 2,
          "durationTicks": 384,
          "midi": 75,
          "name": "D#5",
          "ticks": 1152,
          "time": 6,
          "velocity": 0.7874015748031497
        },
        {
          "duration": 2,
          "durationTicks": 384,
          "midi": 76,
          "name": "E5",
          "ticks": 1152,
          "time": 6,
          "velocity": 0.7874015748031497
        },
        {
          "duration": 2,
          "durationTicks": 384,
          "midi": 77,
          "name": "F5",
          "ticks": 1152,
          "time": 6,
          "velocity": 0.7874015748031497
        },
        {
          "duration": 2,
          "durationTicks": 384,
          "midi": 78,
          "name": "F#5",
          "ticks": 1152,
          "time": 6,
          "velocity": 0.7874015748031497
        },
        {
          "duration": 2,
          "durationTicks": 384,
          "midi": 79,
          "name": "G5",
          "ticks": 1152,
          "time": 6,
          "velocity": 0.7874015748031497
        },
        {
          "duration": 2,
          "durationTicks": 384,
          "midi": 80,
          "name": "G#5",
          "ticks": 1152,
          "time": 6,
          "velocity": 0.7874015748031497
        },
        {
          "duration": 2,
          "durationTicks": 384,
          "midi": 81,
          "name": "A5",
          "ticks": 1152,
          "time": 6,
          "velocity": 0.7874015748031497
        },
        {
          "duration": 2,
          "durationTicks": 384,
          "midi": 82,
          "name": "A#5",
          "ticks": 1152,
          "time": 6,
          "velocity": 0.7874015748031497
        },
        {
          "duration": 2,
          "durationTicks": 384,
          "midi": 83,
          "name": "B5",
          "ticks": 1152,
          "time": 6,
          "velocity": 0.7874015748031497
        },
        {
          "duration": 2,
          "durationTicks": 384,
          "midi": 84,
          "name": "C6",
          "ticks": 1152,
          "time": 6,
          "velocity": 0.7874015748031497
        },
        {
          "duration": 0.5,
          "durationTicks": 96,
          "midi": 60,
          "name": "C4",
          "ticks": 1536,
          "time": 8,
          "velocity": 0.7874015748031497
        },
        {
          "duration": 0.5,
          "durationTicks": 96,
          "midi": 84,
          "name": "C6",
          "ticks": 1536,
          "time": 8,
          "velocity": 0.7874015748031497
        },
        {
          "duration": 0.5,
          "durationTicks": 96,
          "midi": 60,
          "name": "C4",
          "ticks": 1632,
          "time": 8.5,
          "velocity": 0.7874015748031497
        },
        {
          "duration": 0.5,
          "durationTicks": 96,
          "midi": 84,
          "name": "C6",
          "ticks": 1632,
          "time": 8.5,
          "velocity": 0.7874015748031497
        },
        {
          "duration": 0.5,
          "durationTicks": 96,
          "midi": 60,
          "name": "C4",
          "ticks": 1728,
          "time": 9,
          "velocity": 0.7874015748031497
        },
        {
          "duration": 0.5,
          "durationTicks": 96,
          "midi": 84,
          "name": "C6",
          "ticks": 1728,
          "time": 9,
          "velocity": 0.7874015748031497
        },
        {
          "duration": 0.5,
          "durationTicks": 96,
          "midi": 60,
          "name": "C4",
          "ticks": 1824,
          "time": 9.5,
          "velocity": 0.7874015748031497
        },
        {
          "duration": 0.5,
          "durationTicks": 96,
          "midi": 84,
          "name": "C6",
          "ticks": 1824,
          "time": 9.5,
          "velocity": 0.7874015748031497
        },
        {
          "duration": 0.25,
          "durationTicks": 48,
          "midi": 60,
          "name": "C4",
          "ticks": 1920,
          "time": 10,
          "velocity": 0.7874015748031497
        },
        {
          "duration": 0.25,
          "durationTicks": 48,
          "midi": 84,
          "name": "C6",
          "ticks": 1920,
          "time": 10,
          "velocity": 0.7874015748031497
        },
        {
          "duration": 0.25,
          "durationTicks": 48,
          "midi": 60,
          "name": "C4",
          "ticks": 1968,
          "time": 10.25,
          "velocity": 0.7874015748031497
        },
        {
          "duration": 0.25,
          "durationTicks": 48,
          "midi": 84,
          "name": "C6",
          "ticks": 1968,
          "time": 10.25,
          "velocity": 0.7874015748031497
        },
        {
          "duration": 0.25,
          "durationTicks": 48,
          "midi": 60,
          "name": "C4",
          "ticks": 2016,
          "time": 10.5,
          "velocity": 0.7874015748031497
        },
        {
          "duration": 0.25,
          "durationTicks": 48,
          "midi": 84,
          "name": "C6",
          "ticks": 2016,
          "time": 10.5,
          "velocity": 0.7874015748031497
        },
        {
          "duration": 0.25,
          "durationTicks": 48,
          "midi": 60,
          "name": "C4",
          "ticks": 2064,
          "time": 10.75,
          "velocity": 0.7874015748031497
        },
        {
          "duration": 0.25,
          "durationTicks": 48,
          "midi": 84,
          "name": "C6",
          "ticks": 2064,
          "time": 10.75,
          "velocity": 0.7874015748031497
        },
        {
          "duration": 0.25,
          "durationTicks": 48,
          "midi": 60,
          "name": "C4",
          "ticks": 2112,
          "time": 11,
          "velocity": 0.7874015748031497
        },
        {
          "duration": 0.25,
          "durationTicks": 48,
          "midi": 84,
          "name": "C6",
          "ticks": 2112,
          "time": 11,
          "velocity": 0.7874015748031497
        },
        {
          "duration": 0.25,
          "durationTicks": 48,
          "midi": 60,
          "name": "C4",
          "ticks": 2160,
          "time": 11.25,
          "velocity": 0.7874015748031497
        },
        {
          "duration": 0.25,
          "durationTicks": 48,
          "midi": 84,
          "name": "C6",
          "ticks": 2160,
          "time": 11.25,
          "velocity": 0.7874015748031497
        },
        {
          "duration": 0.25,
          "durationTicks": 48,
          "midi": 60,
          "name": "C4",
          "ticks": 2208,
          "time": 11.5,
          "velocity": 0.7874015748031497
        },
        {
          "duration": 0.25,
          "durationTicks": 48,
          "midi": 84,
          "name": "C6",
          "ticks": 2208,
          "time": 11.5,
          "velocity": 0.7874015748031497
        },
        {
          "duration": 0.25,
          "durationTicks": 48,
          "midi": 60,
          "name": "C4",
          "ticks": 2256,
          "time": 11.75,
          "velocity": 0.7874015748031497
        },
        {
          "duration": 0.25,
          "durationTicks": 48,
          "midi": 61,
          "name": "C#4",
          "ticks": 2256,
          "time": 11.75,
          "velocity": 0.7874015748031497
        },
        {
          "duration": 0.25,
          "durationTicks": 48,
          "midi": 62,
          "name": "D4",
          "ticks": 2256,
          "time": 11.75,
          "velocity": 0.7874015748031497
        },
        {
          "duration": 0.25,
          "durationTicks": 48,
          "midi": 63,
          "name": "D#4",
          "ticks": 2256,
          "time": 11.75,
          "velocity": 0.7874015748031497
        },
        {
          "duration": 0.25,
          "durationTicks": 48,
          "midi": 64,
          "name": "E4",
          "ticks": 2256,
          "time": 11.75,
          "velocity": 0.7874015748031497
        },
        {
          "duration": 0.25,
          "durationTicks": 48,
          "midi": 65,
          "name": "F4",
          "ticks": 2256,
          "time": 11.75,
          "velocity": 0.7874015748031497
        },
        {
          "duration": 0.25,
          "durationTicks": 48,
          "midi": 66,
          "name": "F#4",
          "ticks": 2256,
          "time": 11.75,
          "velocity": 0.7874015748031497
        },
        {
          "duration": 0.25,
          "durationTicks": 48,
          "midi": 67,
          "name": "G4",
          "ticks": 2256,
          "time": 11.75,
          "velocity": 0.7874015748031497
        },
        {
          "duration": 0.25,
          "durationTicks": 48,
          "midi": 68,
          "name": "G#4",
          "ticks": 2256,
          "time": 11.75,
          "velocity": 0.7874015748031497
        },
        {
          "duration": 0.25,
          "durationTicks": 48,
          "midi": 69,
          "name": "A4",
          "ticks": 2256,
          "time": 11.75,
          "velocity": 0.7874015748031497
        },
        {
          "duration": 0.25,
          "durationTicks": 48,
          "midi": 70,
          "name": "A#4",
          "ticks": 2256,
          "time": 11.75,
          "velocity": 0.7874015748031497
        },
        {
          "duration": 0.25,
          "durationTicks": 48,
          "midi": 71,
          "name": "B4",
          "ticks": 2256,
          "time": 11.75,
          "velocity": 0.7874015748031497
        },
        {
          "duration": 0.25,
          "durationTicks": 48,
          "midi": 72,
          "name": "C5",
          "ticks": 2256,
          "time": 11.75,
          "velocity": 0.7874015748031497
        },
        {
          "duration": 0.25,
          "durationTicks": 48,
          "midi": 73,
          "name": "C#5",
          "ticks": 2256,
          "time": 11.75,
          "velocity": 0.7874015748031497
        },
        {
          "duration": 0.25,
          "durationTicks": 48,
          "midi": 74,
          "name": "D5",
          "ticks": 2256,
          "time": 11.75,
          "velocity": 0.7874015748031497
        },
        {
          "duration": 0.25,
          "durationTicks": 48,
          "midi": 75,
          "name": "D#5",
          "ticks": 2256,
          "time": 11.75,
          "velocity": 0.7874015748031497
        },
        {
          "duration": 0.25,
          "durationTicks": 48,
          "midi": 76,
          "name": "E5",
          "ticks": 2256,
          "time": 11.75,
          "velocity": 0.7874015748031497
        },
        {
          "duration": 0.25,
          "durationTicks": 48,
          "midi": 77,
          "name": "F5",
          "ticks": 2256,
          "time": 11.75,
          "velocity": 0.7874015748031497
        },
        {
          "duration": 0.25,
          "durationTicks": 48,
          "midi": 78,
          "name": "F#5",
          "ticks": 2256,
          "time": 11.75,
          "velocity": 0.7874015748031497
        },
        {
          "duration": 0.25,
          "durationTicks": 48,
          "midi": 79,
          "name": "G5",
          "ticks": 2256,
          "time": 11.75,
          "velocity": 0.7874015748031497
        },
        {
          "duration": 0.25,
          "durationTicks": 48,
          "midi": 80,
          "name": "G#5",
          "ticks": 2256,
          "time": 11.75,
          "velocity": 0.7874015748031497
        },
        {
          "duration": 0.25,
          "durationTicks": 48,
          "midi": 81,
          "name": "A5",
          "ticks": 2256,
          "time": 11.75,
          "velocity": 0.7874015748031497
        },
        {
          "duration": 0.25,
          "durationTicks": 48,
          "midi": 82,
          "name": "A#5",
          "ticks": 2256,
          "time": 11.75,
          "velocity": 0.7874015748031497
        },
        {
          "duration": 0.25,
          "durationTicks": 48,
          "midi": 83,
          "name": "B5",
          "ticks": 2256,
          "time": 11.75,
          "velocity": 0.7874015748031497
        },
        {
          "duration": 0.25,
          "durationTicks": 48,
          "midi": 84,
          "name": "C6",
          "ticks": 2256,
          "time": 11.75,
          "velocity": 0.7874015748031497
        },
        {
          "duration": 2,
          "durationTicks": 384,
          "midi": 60,
          "name": "C4",
          "ticks": 2304,
          "time": 12,
          "velocity": 0.7874015748031497
        },
        {
          "duration": 2,
          "durationTicks": 384,
          "midi": 61,
          "name": "C#4",
          "ticks": 2304,
          "time": 12,
          "velocity": 0.7874015748031497
        },
        {
          "duration": 2,
          "durationTicks": 384,
          "midi": 62,
          "name": "D4",
          "ticks": 2304,
          "time": 12,
          "velocity": 0.7874015748031497
        },
        {
          "duration": 2,
          "durationTicks": 384,
          "midi": 63,
          "name": "D#4",
          "ticks": 2304,
          "time": 12,
          "velocity": 0.7874015748031497
        },
        {
          "duration": 2,
          "durationTicks": 384,
          "midi": 64,
          "name": "E4",
          "ticks": 2304,
          "time": 12,
          "velocity": 0.7874015748031497
        },
        {
          "duration": 2,
          "durationTicks": 384,
          "midi": 65,
          "name": "F4",
          "ticks": 2304,
          "time": 12,
          "velocity": 0.7874015748031497
        },
        {
          "duration": 2,
          "durationTicks": 384,
          "midi": 66,
          "name": "F#4",
          "ticks": 2304,
          "time": 12,
          "velocity": 0.7874015748031497
        },
        {
          "duration": 2,
          "durationTicks": 384,
          "midi": 67,
          "name": "G4",
          "ticks": 2304,
          "time": 12,
          "velocity": 0.7874015748031497
        },
        {
          "duration": 2,
          "durationTicks": 384,
          "midi": 68,
          "name": "G#4",
          "ticks": 2304,
          "time": 12,
          "velocity": 0.7874015748031497
        },
        {
          "duration": 2,
          "durationTicks": 384,
          "midi": 69,
          "name": "A4",
          "ticks": 2304,
          "time": 12,
          "velocity": 0.7874015748031497
        },
        {
          "duration": 2,
          "durationTicks": 384,
          "midi": 70,
          "name": "A#4",
          "ticks": 2304,
          "time": 12,
          "velocity": 0.7874015748031497
        },
        {
          "duration": 2,
          "durationTicks": 384,
          "midi": 71,
          "name": "B4",
          "ticks": 2304,
          "time": 12,
          "velocity": 0.7874015748031497
        },
        {
          "duration": 2,
          "durationTicks": 384,
          "midi": 72,
          "name": "C5",
          "ticks": 2304,
          "time": 12,
          "velocity": 0.7874015748031497
        },
        {
          "duration": 2,
          "durationTicks": 384,
          "midi": 73,
          "name": "C#5",
          "ticks": 2304,
          "time": 12,
          "velocity": 0.7874015748031497
        },
        {
          "duration": 2,
          "durationTicks": 384,
          "midi": 74,
          "name": "D5",
          "ticks": 2304,
          "time": 12,
          "velocity": 0.7874015748031497
        },
        {
          "duration": 2,
          "durationTicks": 384,
          "midi": 75,
          "name": "D#5",
          "ticks": 2304,
          "time": 12,
          "velocity": 0.7874015748031497
        },
        {
          "duration": 2,
          "durationTicks": 384,
          "midi": 76,
          "name": "E5",
          "ticks": 2304,
          "time": 12,
          "velocity": 0.7874015748031497
        },
        {
          "duration": 2,
          "durationTicks": 384,
          "midi": 77,
          "name": "F5",
          "ticks": 2304,
          "time": 12,
          "velocity": 0.7874015748031497
        },
        {
          "duration": 2,
          "durationTicks": 384,
          "midi": 78,
          "name": "F#5",
          "ticks": 2304,
          "time": 12,
          "velocity": 0.7874015748031497
        },
        {
          "duration": 2,
          "durationTicks": 384,
          "midi": 79,
          "name": "G5",
          "ticks": 2304,
          "time": 12,
          "velocity": 0.7874015748031497
        },
        {
          "duration": 2,
          "durationTicks": 384,
          "midi": 80,
          "name": "G#5",
          "ticks": 2304,
          "time": 12,
          "velocity": 0.7874015748031497
        },
        {
          "duration": 2,
          "durationTicks": 384,
          "midi": 81,
          "name": "A5",
          "ticks": 2304,
          "time": 12,
          "velocity": 0.7874015748031497
        },
        {
          "duration": 2,
          "durationTicks": 384,
          "midi": 82,
          "name": "A#5",
          "ticks": 2304,
          "time": 12,
          "velocity": 0.7874015748031497
        },
        {
          "duration": 2,
          "durationTicks": 384,
          "midi": 83,
          "name": "B5",
          "ticks": 2304,
          "time": 12,
          "velocity": 0.7874015748031497
        },
        {
          "duration": 2,
          "durationTicks": 384,
          "midi": 84,
          "name": "C6",
          "ticks": 2304,
          "time": 12,
          "velocity": 0.7874015748031497
        },
        {
          "duration": 0.5,
          "durationTicks": 96,
          "midi": 60,
          "name": "C4",
          "ticks": 2688,
          "time": 14,
          "velocity": 0.7874015748031497
        },
        {
          "duration": 0.5,
          "durationTicks": 96,
          "midi": 84,
          "name": "C6",
          "ticks": 2688,
          "time": 14,
          "velocity": 0.7874015748031497
        },
        {
          "duration": 0.5,
          "durationTicks": 96,
          "midi": 60,
          "name": "C4",
          "ticks": 2784,
          "time": 14.5,
          "velocity": 0.7874015748031497
        },
        {
          "duration": 0.5,
          "durationTicks": 96,
          "midi": 84,
          "name": "C6",
          "ticks": 2784,
          "time": 14.5,
          "velocity": 0.7874015748031497
        },
        {
          "duration": 0.5,
          "durationTicks": 96,
          "midi": 60,
          "name": "C4",
          "ticks": 2880,
          "time": 15,
          "velocity": 0.7874015748031497
        },
        {
          "duration": 0.5,
          "durationTicks": 96,
          "midi": 84,
          "name": "C6",
          "ticks": 2880,
          "time": 15,
          "velocity": 0.7874015748031497
        },
        {
          "duration": 0.5,
          "durationTicks": 96,
          "midi": 60,
          "name": "C4",
          "ticks": 2976,
          "time": 15.5,
          "velocity": 0.7874015748031497
        },
        {
          "duration": 0.5,
          "durationTicks": 96,
          "midi": 84,
          "name": "C6",
          "ticks": 2976,
          "time": 15.5,
          "velocity": 0.7874015748031497
        },
        {
          "duration": 0.25,
          "durationTicks": 48,
          "midi": 60,
          "name": "C4",
          "ticks": 3072,
          "time": 16,
          "velocity": 0.7874015748031497
        },
        {
          "duration": 0.25,
          "durationTicks": 48,
          "midi": 84,
          "name": "C6",
          "ticks": 3072,
          "time": 16,
          "velocity": 0.7874015748031497
        },
        {
          "duration": 0.25,
          "durationTicks": 48,
          "midi": 60,
          "name": "C4",
          "ticks": 3120,
          "time": 16.25,
          "velocity": 0.7874015748031497
        },
        {
          "duration": 0.25,
          "durationTicks": 48,
          "midi": 84,
          "name": "C6",
          "ticks": 3120,
          "time": 16.25,
          "velocity": 0.7874015748031497
        },
        {
          "duration": 0.25,
          "durationTicks": 48,
          "midi": 60,
          "name": "C4",
          "ticks": 3168,
          "time": 16.5,
          "velocity": 0.7874015748031497
        },
        {
          "duration": 0.25,
          "durationTicks": 48,
          "midi": 84,
          "name": "C6",
          "ticks": 3168,
          "time": 16.5,
          "velocity": 0.7874015748031497
        },
        {
          "duration": 0.25,
          "durationTicks": 48,
          "midi": 60,
          "name": "C4",
          "ticks": 3216,
          "time": 16.75,
          "velocity": 0.7874015748031497
        },
        {
          "duration": 0.25,
          "durationTicks": 48,
          "midi": 84,
          "name": "C6",
          "ticks": 3216,
          "time": 16.75,
          "velocity": 0.7874015748031497
        },
        {
          "duration": 0.25,
          "durationTicks": 48,
          "midi": 60,
          "name": "C4",
          "ticks": 3264,
          "time": 17,
          "velocity": 0.7874015748031497
        },
        {
          "duration": 0.25,
          "durationTicks": 48,
          "midi": 84,
          "name": "C6",
          "ticks": 3264,
          "time": 17,
          "velocity": 0.7874015748031497
        },
        {
          "duration": 0.25,
          "durationTicks": 48,
          "midi": 60,
          "name": "C4",
          "ticks": 3312,
          "time": 17.25,
          "velocity": 0.7874015748031497
        },
        {
          "duration": 0.25,
          "durationTicks": 48,
          "midi": 84,
          "name": "C6",
          "ticks": 3312,
          "time": 17.25,
          "velocity": 0.7874015748031497
        },
        {
          "duration": 0.25,
          "durationTicks": 48,
          "midi": 60,
          "name": "C4",
          "ticks": 3360,
          "time": 17.5,
          "velocity": 0.7874015748031497
        },
        {
          "duration": 0.25,
          "durationTicks": 48,
          "midi": 84,
          "name": "C6",
          "ticks": 3360,
          "time": 17.5,
          "velocity": 0.7874015748031497
        },
        {
          "duration": 0.25,
          "durationTicks": 48,
          "midi": 60,
          "name": "C4",
          "ticks": 3408,
          "time": 17.75,
          "velocity": 0.7874015748031497
        },
        {
          "duration": 0.25,
          "durationTicks": 48,
          "midi": 61,
          "name": "C#4",
          "ticks": 3408,
          "time": 17.75,
          "velocity": 0.7874015748031497
        },
        {
          "duration": 0.25,
          "durationTicks": 48,
          "midi": 62,
          "name": "D4",
          "ticks": 3408,
          "time": 17.75,
          "velocity": 0.7874015748031497
        },
        {
          "duration": 0.25,
          "durationTicks": 48,
          "midi": 63,
          "name": "D#4",
          "ticks": 3408,
          "time": 17.75,
          "velocity": 0.7874015748031497
        },
        {
          "duration": 0.25,
          "durationTicks": 48,
          "midi": 64,
          "name": "E4",
          "ticks": 3408,
          "time": 17.75,
          "velocity": 0.7874015748031497
        },
        {
          "duration": 0.25,
          "durationTicks": 48,
          "midi": 65,
          "name": "F4",
          "ticks": 3408,
          "time": 17.75,
          "velocity": 0.7874015748031497
        },
        {
          "duration": 0.25,
          "durationTicks": 48,
          "midi": 66,
          "name": "F#4",
          "ticks": 3408,
          "time": 17.75,
          "velocity": 0.7874015748031497
        },
        {
          "duration": 0.25,
          "durationTicks": 48,
          "midi": 67,
          "name": "G4",
          "ticks": 3408,
          "time": 17.75,
          "velocity": 0.7874015748031497
        },
        {
          "duration": 0.25,
          "durationTicks": 48,
          "midi": 68,
          "name": "G#4",
          "ticks": 3408,
          "time": 17.75,
          "velocity": 0.7874015748031497
        },
        {
          "duration": 0.25,
          "durationTicks": 48,
          "midi": 69,
          "name": "A4",
          "ticks": 3408,
          "time": 17.75,
          "velocity": 0.7874015748031497
        },
        {
          "duration": 0.25,
          "durationTicks": 48,
          "midi": 70,
          "name": "A#4",
          "ticks": 3408,
          "time": 17.75,
          "velocity": 0.7874015748031497
        },
        {
          "duration": 0.25,
          "durationTicks": 48,
          "midi": 71,
          "name": "B4",
          "ticks": 3408,
          "time": 17.75,
          "velocity": 0.7874015748031497
        },
        {
          "duration": 0.25,
          "durationTicks": 48,
          "midi": 72,
          "name": "C5",
          "ticks": 3408,
          "time": 17.75,
          "velocity": 0.7874015748031497
        },
        {
          "duration": 0.25,
          "durationTicks": 48,
          "midi": 73,
          "name": "C#5",
          "ticks": 3408,
          "time": 17.75,
          "velocity": 0.7874015748031497
        },
        {
          "duration": 0.25,
          "durationTicks": 48,
          "midi": 74,
          "name": "D5",
          "ticks": 3408,
          "time": 17.75,
          "velocity": 0.7874015748031497
        },
        {
          "duration": 0.25,
          "durationTicks": 48,
          "midi": 75,
          "name": "D#5",
          "ticks": 3408,
          "time": 17.75,
          "velocity": 0.7874015748031497
        },
        {
          "duration": 0.25,
          "durationTicks": 48,
          "midi": 76,
          "name": "E5",
          "ticks": 3408,
          "time": 17.75,
          "velocity": 0.7874015748031497
        },
        {
          "duration": 0.25,
          "durationTicks": 48,
          "midi": 77,
          "name": "F5",
          "ticks": 3408,
          "time": 17.75,
          "velocity": 0.7874015748031497
        },
        {
          "duration": 0.25,
          "durationTicks": 48,
          "midi": 78,
          "name": "F#5",
          "ticks": 3408,
          "time": 17.75,
          "velocity": 0.7874015748031497
        },
        {
          "duration": 0.25,
          "durationTicks": 48,
          "midi": 79,
          "name": "G5",
          "ticks": 3408,
          "time": 17.75,
          "velocity": 0.7874015748031497
        },
        {
          "duration": 0.25,
          "durationTicks": 48,
          "midi": 80,
          "name": "G#5",
          "ticks": 3408,
          "time": 17.75,
          "velocity": 0.7874015748031497
        },
        {
          "duration": 0.25,
          "durationTicks": 48,
          "midi": 81,
          "name": "A5",
          "ticks": 3408,
          "time": 17.75,
          "velocity": 0.7874015748031497
        },
        {
          "duration": 0.25,
          "durationTicks": 48,
          "midi": 82,
          "name": "A#5",
          "ticks": 3408,
          "time": 17.75,
          "velocity": 0.7874015748031497
        },
        {
          "duration": 0.25,
          "durationTicks": 48,
          "midi": 83,
          "name": "B5",
          "ticks": 3408,
          "time": 17.75,
          "velocity": 0.7874015748031497
        },
        {
          "duration": 0.25,
          "durationTicks": 48,
          "midi": 84,
          "name": "C6",
          "ticks": 3408,
          "time": 17.75,
          "velocity": 0.7874015748031497
        },
        {
          "duration": 2,
          "durationTicks": 384,
          "midi": 60,
          "name": "C4",
          "ticks": 3456,
          "time": 18,
          "velocity": 0.7874015748031497
        },
        {
          "duration": 2,
          "durationTicks": 384,
          "midi": 61,
          "name": "C#4",
          "ticks": 3456,
          "time": 18,
          "velocity": 0.7874015748031497
        },
        {
          "duration": 2,
          "durationTicks": 384,
          "midi": 62,
          "name": "D4",
          "ticks": 3456,
          "time": 18,
          "velocity": 0.7874015748031497
        },
        {
          "duration": 2,
          "durationTicks": 384,
          "midi": 63,
          "name": "D#4",
          "ticks": 3456,
          "time": 18,
          "velocity": 0.7874015748031497
        },
        {
          "duration": 2,
          "durationTicks": 384,
          "midi": 64,
          "name": "E4",
          "ticks": 3456,
          "time": 18,
          "velocity": 0.7874015748031497
        },
        {
          "duration": 2,
          "durationTicks": 384,
          "midi": 65,
          "name": "F4",
          "ticks": 3456,
          "time": 18,
          "velocity": 0.7874015748031497
        },
        {
          "duration": 2,
          "durationTicks": 384,
          "midi": 66,
          "name": "F#4",
          "ticks": 3456,
          "time": 18,
          "velocity": 0.7874015748031497
        },
        {
          "duration": 2,
          "durationTicks": 384,
          "midi": 67,
          "name": "G4",
          "ticks": 3456,
          "time": 18,
          "velocity": 0.7874015748031497
        },
        {
          "duration": 2,
          "durationTicks": 384,
          "midi": 68,
          "name": "G#4",
          "ticks": 3456,
          "time": 18,
          "velocity": 0.7874015748031497
        },
        {
          "duration": 2,
          "durationTicks": 384,
          "midi": 69,
          "name": "A4",
          "ticks": 3456,
          "time": 18,
          "velocity": 0.7874015748031497
        },
        {
          "duration": 2,
          "durationTicks": 384,
          "midi": 70,
          "name": "A#4",
          "ticks": 3456,
          "time": 18,
          "velocity": 0.7874015748031497
        },
        {
          "duration": 2,
          "durationTicks": 384,
          "midi": 71,
          "name": "B4",
          "ticks": 3456,
          "time": 18,
          "velocity": 0.7874015748031497
        },
        {
          "duration": 2,
          "durationTicks": 384,
          "midi": 72,
          "name": "C5",
          "ticks": 3456,
          "time": 18,
          "velocity": 0.7874015748031497
        },
        {
          "duration": 2,
          "durationTicks": 384,
          "midi": 73,
          "name": "C#5",
          "ticks": 3456,
          "time": 18,
          "velocity": 0.7874015748031497
        },
        {
          "duration": 2,
          "durationTicks": 384,
          "midi": 74,
          "name": "D5",
          "ticks": 3456,
          "time": 18,
          "velocity": 0.7874015748031497
        },
        {
          "duration": 2,
          "durationTicks": 384,
          "midi": 75,
          "name": "D#5",
          "ticks": 3456,
          "time": 18,
          "velocity": 0.7874015748031497
        },
        {
          "duration": 2,
          "durationTicks": 384,
          "midi": 76,
          "name": "E5",
          "ticks": 3456,
          "time": 18,
          "velocity": 0.7874015748031497
        },
        {
          "duration": 2,
          "durationTicks": 384,
          "midi": 77,
          "name": "F5",
          "ticks": 3456,
          "time": 18,
          "velocity": 0.7874015748031497
        },
        {
          "duration": 2,
          "durationTicks": 384,
          "midi": 78,
          "name": "F#5",
          "ticks": 3456,
          "time": 18,
          "velocity": 0.7874015748031497
        },
        {
          "duration": 2,
          "durationTicks": 384,
          "midi": 79,
          "name": "G5",
          "ticks": 3456,
          "time": 18,
          "velocity": 0.7874015748031497
        },
        {
          "duration": 2,
          "durationTicks": 384,
          "midi": 80,
          "name": "G#5",
          "ticks": 3456,
          "time": 18,
          "velocity": 0.7874015748031497
        },
        {
          "duration": 2,
          "durationTicks": 384,
          "midi": 81,
          "name": "A5",
          "ticks": 3456,
          "time": 18,
          "velocity": 0.7874015748031497
        },
        {
          "duration": 2,
          "durationTicks": 384,
          "midi": 82,
          "name": "A#5",
          "ticks": 3456,
          "time": 18,
          "velocity": 0.7874015748031497
        },
        {
          "duration": 2,
          "durationTicks": 384,
          "midi": 83,
          "name": "B5",
          "ticks": 3456,
          "time": 18,
          "velocity": 0.7874015748031497
        },
        {
          "duration": 2,
          "durationTicks": 384,
          "midi": 84,
          "name": "C6",
          "ticks": 3456,
          "time": 18,
          "velocity": 0.7874015748031497
        },
        {
          "duration": 0.5,
          "durationTicks": 96,
          "midi": 60,
          "name": "C4",
          "ticks": 3840,
          "time": 20,
          "velocity": 0.7874015748031497
        },
        {
          "duration": 0.5,
          "durationTicks": 96,
          "midi": 84,
          "name": "C6",
          "ticks": 3840,
          "time": 20,
          "velocity": 0.7874015748031497
        },
        {
          "duration": 0.5,
          "durationTicks": 96,
          "midi": 60,
          "name": "C4",
          "ticks": 3936,
          "time": 20.5,
          "velocity": 0.7874015748031497
        },
        {
          "duration": 0.5,
          "durationTicks": 96,
          "midi": 84,
          "name": "C6",
          "ticks": 3936,
          "time": 20.5,
          "velocity": 0.7874015748031497
        },
        {
          "duration": 0.5,
          "durationTicks": 96,
          "midi": 60,
          "name": "C4",
          "ticks": 4032,
          "time": 21,
          "velocity": 0.7874015748031497
        },
        {
          "duration": 0.5,
          "durationTicks": 96,
          "midi": 84,
          "name": "C6",
          "ticks": 4032,
          "time": 21,
          "velocity": 0.7874015748031497
        },
        {
          "duration": 0.5,
          "durationTicks": 96,
          "midi": 60,
          "name": "C4",
          "ticks": 4128,
          "time": 21.5,
          "velocity": 0.7874015748031497
        },
        {
          "duration": 0.5,
          "durationTicks": 96,
          "midi": 84,
          "name": "C6",
          "ticks": 4128,
          "time": 21.5,
          "velocity": 0.7874015748031497
        },
        {
          "duration": 0.25,
          "durationTicks": 48,
          "midi": 60,
          "name": "C4",
          "ticks": 4224,
          "time": 22,
          "velocity": 0.7874015748031497
        },
        {
          "duration": 0.25,
          "durationTicks": 48,
          "midi": 84,
          "name": "C6",
          "ticks": 4224,
          "time": 22,
          "velocity": 0.7874015748031497
        },
        {
          "duration": 0.25,
          "durationTicks": 48,
          "midi": 60,
          "name": "C4",
          "ticks": 4272,
          "time": 22.25,
          "velocity": 0.7874015748031497
        },
        {
          "duration": 0.25,
          "durationTicks": 48,
          "midi": 84,
          "name": "C6",
          "ticks": 4272,
          "time": 22.25,
          "velocity": 0.7874015748031497
        },
        {
          "duration": 0.25,
          "durationTicks": 48,
          "midi": 60,
          "name": "C4",
          "ticks": 4320,
          "time": 22.5,
          "velocity": 0.7874015748031497
        },
        {
          "duration": 0.25,
          "durationTicks": 48,
          "midi": 84,
          "name": "C6",
          "ticks": 4320,
          "time": 22.5,
          "velocity": 0.7874015748031497
        },
        {
          "duration": 0.25,
          "durationTicks": 48,
          "midi": 60,
          "name": "C4",
          "ticks": 4368,
          "time": 22.75,
          "velocity": 0.7874015748031497
        },
        {
          "duration": 0.25,
          "durationTicks": 48,
          "midi": 84,
          "name": "C6",
          "ticks": 4368,
          "time": 22.75,
          "velocity": 0.7874015748031497
        },
        {
          "duration": 0.25,
          "durationTicks": 48,
          "midi": 60,
          "name": "C4",
          "ticks": 4416,
          "time": 23,
          "velocity": 0.7874015748031497
        },
        {
          "duration": 0.25,
          "durationTicks": 48,
          "midi": 84,
          "name": "C6",
          "ticks": 4416,
          "time": 23,
          "velocity": 0.7874015748031497
        },
        {
          "duration": 0.25,
          "durationTicks": 48,
          "midi": 60,
          "name": "C4",
          "ticks": 4464,
          "time": 23.25,
          "velocity": 0.7874015748031497
        },
        {
          "duration": 0.25,
          "durationTicks": 48,
          "midi": 84,
          "name": "C6",
          "ticks": 4464,
          "time": 23.25,
          "velocity": 0.7874015748031497
        },
        {
          "duration": 0.25,
          "durationTicks": 48,
          "midi": 60,
          "name": "C4",
          "ticks": 4512,
          "time": 23.5,
          "velocity": 0.7874015748031497
        },
        {
          "duration": 0.25,
          "durationTicks": 48,
          "midi": 84,
          "name": "C6",
          "ticks": 4512,
          "time": 23.5,
          "velocity": 0.7874015748031497
        },
        {
          "duration": 0.25,
          "durationTicks": 48,
          "midi": 60,
          "name": "C4",
          "ticks": 4560,
          "time": 23.75,
          "velocity": 0.7874015748031497
        },
        {
          "duration": 0.25,
          "durationTicks": 48,
          "midi": 61,
          "name": "C#4",
          "ticks": 4560,
          "time": 23.75,
          "velocity": 0.7874015748031497
        },
        {
          "duration": 0.25,
          "durationTicks": 48,
          "midi": 62,
          "name": "D4",
          "ticks": 4560,
          "time": 23.75,
          "velocity": 0.7874015748031497
        },
        {
          "duration": 0.25,
          "durationTicks": 48,
          "midi": 63,
          "name": "D#4",
          "ticks": 4560,
          "time": 23.75,
          "velocity": 0.7874015748031497
        },
        {
          "duration": 0.25,
          "durationTicks": 48,
          "midi": 64,
          "name": "E4",
          "ticks": 4560,
          "time": 23.75,
          "velocity": 0.7874015748031497
        },
        {
          "duration": 0.25,
          "durationTicks": 48,
          "midi": 65,
          "name": "F4",
          "ticks": 4560,
          "time": 23.75,
          "velocity": 0.7874015748031497
        },
        {
          "duration": 0.25,
          "durationTicks": 48,
          "midi": 66,
          "name": "F#4",
          "ticks": 4560,
          "time": 23.75,
          "velocity": 0.7874015748031497
        },
        {
          "duration": 0.25,
          "durationTicks": 48,
          "midi": 67,
          "name": "G4",
          "ticks": 4560,
          "time": 23.75,
          "velocity": 0.7874015748031497
        },
        {
          "duration": 0.25,
          "durationTicks": 48,
          "midi": 68,
          "name": "G#4",
          "ticks": 4560,
          "time": 23.75,
          "velocity": 0.7874015748031497
        },
        {
          "duration": 0.25,
          "durationTicks": 48,
          "midi": 69,
          "name": "A4",
          "ticks": 4560,
          "time": 23.75,
          "velocity": 0.7874015748031497
        },
        {
          "duration": 0.25,
          "durationTicks": 48,
          "midi": 70,
          "name": "A#4",
          "ticks": 4560,
          "time": 23.75,
          "velocity": 0.7874015748031497
        },
        {
          "duration": 0.25,
          "durationTicks": 48,
          "midi": 71,
          "name": "B4",
          "ticks": 4560,
          "time": 23.75,
          "velocity": 0.7874015748031497
        },
        {
          "duration": 0.25,
          "durationTicks": 48,
          "midi": 72,
          "name": "C5",
          "ticks": 4560,
          "time": 23.75,
          "velocity": 0.7874015748031497
        },
        {
          "duration": 0.25,
          "durationTicks": 48,
          "midi": 73,
          "name": "C#5",
          "ticks": 4560,
          "time": 23.75,
          "velocity": 0.7874015748031497
        },
        {
          "duration": 0.25,
          "durationTicks": 48,
          "midi": 74,
          "name": "D5",
          "ticks": 4560,
          "time": 23.75,
          "velocity": 0.7874015748031497
        },
        {
          "duration": 0.25,
          "durationTicks": 48,
          "midi": 75,
          "name": "D#5",
          "ticks": 4560,
          "time": 23.75,
          "velocity": 0.7874015748031497
        },
        {
          "duration": 0.25,
          "durationTicks": 48,
          "midi": 76,
          "name": "E5",
          "ticks": 4560,
          "time": 23.75,
          "velocity": 0.7874015748031497
        },
        {
          "duration": 0.25,
          "durationTicks": 48,
          "midi": 77,
          "name": "F5",
          "ticks": 4560,
          "time": 23.75,
          "velocity": 0.7874015748031497
        },
        {
          "duration": 0.25,
          "durationTicks": 48,
          "midi": 78,
          "name": "F#5",
          "ticks": 4560,
          "time": 23.75,
          "velocity": 0.7874015748031497
        },
        {
          "duration": 0.25,
          "durationTicks": 48,
          "midi": 79,
          "name": "G5",
          "ticks": 4560,
          "time": 23.75,
          "velocity": 0.7874015748031497
        },
        {
          "duration": 0.25,
          "durationTicks": 48,
          "midi": 80,
          "name": "G#5",
          "ticks": 4560,
          "time": 23.75,
          "velocity": 0.7874015748031497
        },
        {
          "duration": 0.25,
          "durationTicks": 48,
          "midi": 81,
          "name": "A5",
          "ticks": 4560,
          "time": 23.75,
          "velocity": 0.7874015748031497
        },
        {
          "duration": 0.25,
          "durationTicks": 48,
          "midi": 82,
          "name": "A#5",
          "ticks": 4560,
          "time": 23.75,
          "velocity": 0.7874015748031497
        },
        {
          "duration": 0.25,
          "durationTicks": 48,
          "midi": 83,
          "name": "B5",
          "ticks": 4560,
          "time": 23.75,
          "velocity": 0.7874015748031497
        },
        {
          "duration": 0.25,
          "durationTicks": 48,
          "midi": 84,
          "name": "C6",
          "ticks": 4560,
          "time": 23.75,
          "velocity": 0.7874015748031497
        },
        {
          "duration": 2,
          "durationTicks": 384,
          "midi": 60,
          "name": "C4",
          "ticks": 4608,
          "time": 24,
          "velocity": 0.7874015748031497
        },
        {
          "duration": 2,
          "durationTicks": 384,
          "midi": 61,
          "name": "C#4",
          "ticks": 4608,
          "time": 24,
          "velocity": 0.7874015748031497
        },
        {
          "duration": 2,
          "durationTicks": 384,
          "midi": 62,
          "name": "D4",
          "ticks": 4608,
          "time": 24,
          "velocity": 0.7874015748031497
        },
        {
          "duration": 2,
          "durationTicks": 384,
          "midi": 63,
          "name": "D#4",
          "ticks": 4608,
          "time": 24,
          "velocity": 0.7874015748031497
        },
        {
          "duration": 2,
          "durationTicks": 384,
          "midi": 64,
          "name": "E4",
          "ticks": 4608,
          "time": 24,
          "velocity": 0.7874015748031497
        },
        {
          "duration": 2,
          "durationTicks": 384,
          "midi": 65,
          "name": "F4",
          "ticks": 4608,
          "time": 24,
          "velocity": 0.7874015748031497
        },
        {
          "duration": 2,
          "durationTicks": 384,
          "midi": 66,
          "name": "F#4",
          "ticks": 4608,
          "time": 24,
          "velocity": 0.7874015748031497
        },
        {
          "duration": 2,
          "durationTicks": 384,
          "midi": 67,
          "name": "G4",
          "ticks": 4608,
          "time": 24,
          "velocity": 0.7874015748031497
        },
        {
          "duration": 2,
          "durationTicks": 384,
          "midi": 68,
          "name": "G#4",
          "ticks": 4608,
          "time": 24,
          "velocity": 0.7874015748031497
        },
        {
          "duration": 2,
          "durationTicks": 384,
          "midi": 69,
          "name": "A4",
          "ticks": 4608,
          "time": 24,
          "velocity": 0.7874015748031497
        },
        {
          "duration": 2,
          "durationTicks": 384,
          "midi": 70,
          "name": "A#4",
          "ticks": 4608,
          "time": 24,
          "velocity": 0.7874015748031497
        },
        {
          "duration": 2,
          "durationTicks": 384,
          "midi": 71,
          "name": "B4",
          "ticks": 4608,
          "time": 24,
          "velocity": 0.7874015748031497
        },
        {
          "duration": 2,
          "durationTicks": 384,
          "midi": 72,
          "name": "C5",
          "ticks": 4608,
          "time": 24,
          "velocity": 0.7874015748031497
        },
        {
          "duration": 2,
          "durationTicks": 384,
          "midi": 73,
          "name": "C#5",
          "ticks": 4608,
          "time": 24,
          "velocity": 0.7874015748031497
        },
        {
          "duration": 2,
          "durationTicks": 384,
          "midi": 74,
          "name": "D5",
          "ticks": 4608,
          "time": 24,
          "velocity": 0.7874015748031497
        },
        {
          "duration": 2,
          "durationTicks": 384,
          "midi": 75,
          "name": "D#5",
          "ticks": 4608,
          "time": 24,
          "velocity": 0.7874015748031497
        },
        {
          "duration": 2,
          "durationTicks": 384,
          "midi": 76,
          "name": "E5",
          "ticks": 4608,
          "time": 24,
          "velocity": 0.7874015748031497
        },
        {
          "duration": 2,
          "durationTicks": 384,
          "midi": 77,
          "name": "F5",
          "ticks": 4608,
          "time": 24,
          "velocity": 0.7874015748031497
        },
        {
          "duration": 2,
          "durationTicks": 384,
          "midi": 78,
          "name": "F#5",
          "ticks": 4608,
          "time": 24,
          "velocity": 0.7874015748031497
        },
        {
          "duration": 2,
          "durationTicks": 384,
          "midi": 79,
          "name": "G5",
          "ticks": 4608,
          "time": 24,
          "velocity": 0.7874015748031497
        },
        {
          "duration": 2,
          "durationTicks": 384,
          "midi": 80,
          "name": "G#5",
          "ticks": 4608,
          "time": 24,
          "velocity": 0.7874015748031497
        },
        {
          "duration": 2,
          "durationTicks": 384,
          "midi": 81,
          "name": "A5",
          "ticks": 4608,
          "time": 24,
          "velocity": 0.7874015748031497
        },
        {
          "duration": 2,
          "durationTicks": 384,
          "midi": 82,
          "name": "A#5",
          "ticks": 4608,
          "time": 24,
          "velocity": 0.7874015748031497
        },
        {
          "duration": 2,
          "durationTicks": 384,
          "midi": 83,
          "name": "B5",
          "ticks": 4608,
          "time": 24,
          "velocity": 0.7874015748031497
        },
        {
          "duration": 2,
          "durationTicks": 384,
          "midi": 84,
          "name": "C6",
          "ticks": 4608,
          "time": 24,
          "velocity": 0.7874015748031497
        },
        {
          "duration": 0.5,
          "durationTicks": 96,
          "midi": 60,
          "name": "C4",
          "ticks": 4992,
          "time": 26,
          "velocity": 0.7874015748031497
        },
        {
          "duration": 0.5,
          "durationTicks": 96,
          "midi": 84,
          "name": "C6",
          "ticks": 4992,
          "time": 26,
          "velocity": 0.7874015748031497
        },
        {
          "duration": 0.5,
          "durationTicks": 96,
          "midi": 60,
          "name": "C4",
          "ticks": 5088,
          "time": 26.5,
          "velocity": 0.7874015748031497
        },
        {
          "duration": 0.5,
          "durationTicks": 96,
          "midi": 84,
          "name": "C6",
          "ticks": 5088,
          "time": 26.5,
          "velocity": 0.7874015748031497
        },
        {
          "duration": 0.5,
          "durationTicks": 96,
          "midi": 60,
          "name": "C4",
          "ticks": 5184,
          "time": 27,
          "velocity": 0.7874015748031497
        },
        {
          "duration": 0.5,
          "durationTicks": 96,
          "midi": 84,
          "name": "C6",
          "ticks": 5184,
          "time": 27,
          "velocity": 0.7874015748031497
        },
        {
          "duration": 0.5,
          "durationTicks": 96,
          "midi": 60,
          "name": "C4",
          "ticks": 5280,
          "time": 27.5,
          "velocity": 0.7874015748031497
        },
        {
          "duration": 0.5,
          "durationTicks": 96,
          "midi": 84,
          "name": "C6",
          "ticks": 5280,
          "time": 27.5,
          "velocity": 0.7874015748031497
        },
        {
          "duration": 0.25,
          "durationTicks": 48,
          "midi": 60,
          "name": "C4",
          "ticks": 5376,
          "time": 28,
          "velocity": 0.7874015748031497
        },
        {
          "duration": 0.25,
          "durationTicks": 48,
          "midi": 84,
          "name": "C6",
          "ticks": 5376,
          "time": 28,
          "velocity": 0.7874015748031497
        },
        {
          "duration": 0.25,
          "durationTicks": 48,
          "midi": 60,
          "name": "C4",
          "ticks": 5424,
          "time": 28.25,
          "velocity": 0.7874015748031497
        },
        {
          "duration": 0.25,
          "durationTicks": 48,
          "midi": 84,
          "name": "C6",
          "ticks": 5424,
          "time": 28.25,
          "velocity": 0.7874015748031497
        },
        {
          "duration": 0.25,
          "durationTicks": 48,
          "midi": 60,
          "name": "C4",
          "ticks": 5472,
          "time": 28.5,
          "velocity": 0.7874015748031497
        },
        {
          "duration": 0.25,
          "durationTicks": 48,
          "midi": 84,
          "name": "C6",
          "ticks": 5472,
          "time": 28.5,
          "velocity": 0.7874015748031497
        },
        {
          "duration": 0.25,
          "durationTicks": 48,
          "midi": 60,
          "name": "C4",
          "ticks": 5520,
          "time": 28.75,
          "velocity": 0.7874015748031497
        },
        {
          "duration": 0.25,
          "durationTicks": 48,
          "midi": 84,
          "name": "C6",
          "ticks": 5520,
          "time": 28.75,
          "velocity": 0.7874015748031497
        },
        {
          "duration": 0.25,
          "durationTicks": 48,
          "midi": 60,
          "name": "C4",
          "ticks": 5568,
          "time": 29,
          "velocity": 0.7874015748031497
        },
        {
          "duration": 0.25,
          "durationTicks": 48,
          "midi": 84,
          "name": "C6",
          "ticks": 5568,
          "time": 29,
          "velocity": 0.7874015748031497
        },
        {
          "duration": 0.25,
          "durationTicks": 48,
          "midi": 60,
          "name": "C4",
          "ticks": 5616,
          "time": 29.25,
          "velocity": 0.7874015748031497
        },
        {
          "duration": 0.25,
          "durationTicks": 48,
          "midi": 84,
          "name": "C6",
          "ticks": 5616,
          "time": 29.25,
          "velocity": 0.7874015748031497
        },
        {
          "duration": 0.25,
          "durationTicks": 48,
          "midi": 60,
          "name": "C4",
          "ticks": 5664,
          "time": 29.5,
          "velocity": 0.7874015748031497
        },
        {
          "duration": 0.25,
          "durationTicks": 48,
          "midi": 84,
          "name": "C6",
          "ticks": 5664,
          "time": 29.5,
          "velocity": 0.7874015748031497
        },
        {
          "duration": 0.25,
          "durationTicks": 48,
          "midi": 60,
          "name": "C4",
          "ticks": 5712,
          "time": 29.75,
          "velocity": 0.7874015748031497
        },
        {
          "duration": 0.25,
          "durationTicks": 48,
          "midi": 61,
          "name": "C#4",
          "ticks": 5712,
          "time": 29.75,
          "velocity": 0.7874015748031497
        },
        {
          "duration": 0.25,
          "durationTicks": 48,
          "midi": 62,
          "name": "D4",
          "ticks": 5712,
          "time": 29.75,
          "velocity": 0.7874015748031497
        },
        {
          "duration": 0.25,
          "durationTicks": 48,
          "midi": 63,
          "name": "D#4",
          "ticks": 5712,
          "time": 29.75,
          "velocity": 0.7874015748031497
        },
        {
          "duration": 0.25,
          "durationTicks": 48,
          "midi": 64,
          "name": "E4",
          "ticks": 5712,
          "time": 29.75,
          "velocity": 0.7874015748031497
        },
        {
          "duration": 0.25,
          "durationTicks": 48,
          "midi": 65,
          "name": "F4",
          "ticks": 5712,
          "time": 29.75,
          "velocity": 0.7874015748031497
        },
        {
          "duration": 0.25,
          "durationTicks": 48,
          "midi": 66,
          "name": "F#4",
          "ticks": 5712,
          "time": 29.75,
          "velocity": 0.7874015748031497
        },
        {
          "duration": 0.25,
          "durationTicks": 48,
          "midi": 67,
          "name": "G4",
          "ticks": 5712,
          "time": 29.75,
          "velocity": 0.7874015748031497
        },
        {
          "duration": 0.25,
          "durationTicks": 48,
          "midi": 68,
          "name": "G#4",
          "ticks": 5712,
          "time": 29.75,
          "velocity": 0.7874015748031497
        },
        {
          "duration": 0.25,
          "durationTicks": 48,
          "midi": 69,
          "name": "A4",
          "ticks": 5712,
          "time": 29.75,
          "velocity": 0.7874015748031497
        },
        {
          "duration": 0.25,
          "durationTicks": 48,
          "midi": 70,
          "name": "A#4",
          "ticks": 5712,
          "time": 29.75,
          "velocity": 0.7874015748031497
        },
        {
          "duration": 0.25,
          "durationTicks": 48,
          "midi": 71,
          "name": "B4",
          "ticks": 5712,
          "time": 29.75,
          "velocity": 0.7874015748031497
        },
        {
          "duration": 0.25,
          "durationTicks": 48,
          "midi": 72,
          "name": "C5",
          "ticks": 5712,
          "time": 29.75,
          "velocity": 0.7874015748031497
        },
        {
          "duration": 0.25,
          "durationTicks": 48,
          "midi": 73,
          "name": "C#5",
          "ticks": 5712,
          "time": 29.75,
          "velocity": 0.7874015748031497
        },
        {
          "duration": 0.25,
          "durationTicks": 48,
          "midi": 74,
          "name": "D5",
          "ticks": 5712,
          "time": 29.75,
          "velocity": 0.7874015748031497
        },
        {
          "duration": 0.25,
          "durationTicks": 48,
          "midi": 75,
          "name": "D#5",
          "ticks": 5712,
          "time": 29.75,
          "velocity": 0.7874015748031497
        },
        {
          "duration": 0.25,
          "durationTicks": 48,
          "midi": 76,
          "name": "E5",
          "ticks": 5712,
          "time": 29.75,
          "velocity": 0.7874015748031497
        },
        {
          "duration": 0.25,
          "durationTicks": 48,
          "midi": 77,
          "name": "F5",
          "ticks": 5712,
          "time": 29.75,
          "velocity": 0.7874015748031497
        },
        {
          "duration": 0.25,
          "durationTicks": 48,
          "midi": 78,
          "name": "F#5",
          "ticks": 5712,
          "time": 29.75,
          "velocity": 0.7874015748031497
        },
        {
          "duration": 0.25,
          "durationTicks": 48,
          "midi": 79,
          "name": "G5",
          "ticks": 5712,
          "time": 29.75,
          "velocity": 0.7874015748031497
        },
        {
          "duration": 0.25,
          "durationTicks": 48,
          "midi": 80,
          "name": "G#5",
          "ticks": 5712,
          "time": 29.75,
          "velocity": 0.7874015748031497
        },
        {
          "duration": 0.25,
          "durationTicks": 48,
          "midi": 81,
          "name": "A5",
          "ticks": 5712,
          "time": 29.75,
          "velocity": 0.7874015748031497
        },
        {
          "duration": 0.25,
          "durationTicks": 48,
          "midi": 82,
          "name": "A#5",
          "ticks": 5712,
          "time": 29.75,
          "velocity": 0.7874015748031497
        },
        {
          "duration": 0.25,
          "durationTicks": 48,
          "midi": 83,
          "name": "B5",
          "ticks": 5712,
          "time": 29.75,
          "velocity": 0.7874015748031497
        },
        {
          "duration": 0.25,
          "durationTicks": 48,
          "midi": 84,
          "name": "C6",
          "ticks": 5712,
          "time": 29.75,
          "velocity": 0.7874015748031497
        },
        {
          "duration": 2,
          "durationTicks": 384,
          "midi": 60,
          "name": "C4",
          "ticks": 5760,
          "time": 30,
          "velocity": 0.7874015748031497
        },
        {
          "duration": 2,
          "durationTicks": 384,
          "midi": 61,
          "name": "C#4",
          "ticks": 5760,
          "time": 30,
          "velocity": 0.7874015748031497
        },
        {
          "duration": 2,
          "durationTicks": 384,
          "midi": 62,
          "name": "D4",
          "ticks": 5760,
          "time": 30,
          "velocity": 0.7874015748031497
        },
        {
          "duration": 2,
          "durationTicks": 384,
          "midi": 63,
          "name": "D#4",
          "ticks": 5760,
          "time": 30,
          "velocity": 0.7874015748031497
        },
        {
          "duration": 2,
          "durationTicks": 384,
          "midi": 64,
          "name": "E4",
          "ticks": 5760,
          "time": 30,
          "velocity": 0.7874015748031497
        },
        {
          "duration": 2,
          "durationTicks": 384,
          "midi": 65,
          "name": "F4",
          "ticks": 5760,
          "time": 30,
          "velocity": 0.7874015748031497
        },
        {
          "duration": 2,
          "durationTicks": 384,
          "midi": 66,
          "name": "F#4",
          "ticks": 5760,
          "time": 30,
          "velocity": 0.7874015748031497
        },
        {
          "duration": 2,
          "durationTicks": 384,
          "midi": 67,
          "name": "G4",
          "ticks": 5760,
          "time": 30,
          "velocity": 0.7874015748031497
        },
        {
          "duration": 2,
          "durationTicks": 384,
          "midi": 68,
          "name": "G#4",
          "ticks": 5760,
          "time": 30,
          "velocity": 0.7874015748031497
        },
        {
          "duration": 2,
          "durationTicks": 384,
          "midi": 69,
          "name": "A4",
          "ticks": 5760,
          "time": 30,
          "velocity": 0.7874015748031497
        },
        {
          "duration": 2,
          "durationTicks": 384,
          "midi": 70,
          "name": "A#4",
          "ticks": 5760,
          "time": 30,
          "velocity": 0.7874015748031497
        },
        {
          "duration": 2,
          "durationTicks": 384,
          "midi": 71,
          "name": "B4",
          "ticks": 5760,
          "time": 30,
          "velocity": 0.7874015748031497
        },
        {
          "duration": 2,
          "durationTicks": 384,
          "midi": 72,
          "name": "C5",
          "ticks": 5760,
          "time": 30,
          "velocity": 0.7874015748031497
        },
        {
          "duration": 2,
          "durationTicks": 384,
          "midi": 73,
          "name": "C#5",
          "ticks": 5760,
          "time": 30,
          "velocity": 0.7874015748031497
        },
        {
          "duration": 2,
          "durationTicks": 384,
          "midi": 74,
          "name": "D5",
          "ticks": 5760,
          "time": 30,
          "velocity": 0.7874015748031497
        },
        {
          "duration": 2,
          "durationTicks": 384,
          "midi": 75,
          "name": "D#5",
          "ticks": 5760,
          "time": 30,
          "velocity": 0.7874015748031497
        },
        {
          "duration": 2,
          "durationTicks": 384,
          "midi": 76,
          "name": "E5",
          "ticks": 5760,
          "time": 30,
          "velocity": 0.7874015748031497
        },
        {
          "duration": 2,
          "durationTicks": 384,
          "midi": 77,
          "name": "F5",
          "ticks": 5760,
          "time": 30,
          "velocity": 0.7874015748031497
        },
        {
          "duration": 2,
          "durationTicks": 384,
          "midi": 78,
          "name": "F#5",
          "ticks": 5760,
          "time": 30,
          "velocity": 0.7874015748031497
        },
        {
          "duration": 2,
          "durationTicks": 384,
          "midi": 79,
          "name": "G5",
          "ticks": 5760,
          "time": 30,
          "velocity": 0.7874015748031497
        },
        {
          "duration": 2,
          "durationTicks": 384,
          "midi": 80,
          "name": "G#5",
          "ticks": 5760,
          "time": 30,
          "velocity": 0.7874015748031497
        },
        {
          "duration": 2,
          "durationTicks": 384,
          "midi": 81,
          "name": "A5",
          "ticks": 5760,
          "time": 30,
          "velocity": 0.7874015748031497
        },
        {
          "duration": 2,
          "durationTicks": 384,
          "midi": 82,
          "name": "A#5",
          "ticks": 5760,
          "time": 30,
          "velocity": 0.7874015748031497
        },
        {
          "duration": 2,
          "durationTicks": 384,
          "midi": 83,
          "name": "B5",
          "ticks": 5760,
          "time": 30,
          "velocity": 0.7874015748031497
        },
        {
          "duration": 2,
          "durationTicks": 384,
          "midi": 84,
          "name": "C6",
          "ticks": 5760,
          "time": 30,
          "velocity": 0.7874015748031497
        },
        {
          "duration": 0.5,
          "durationTicks": 96,
          "midi": 60,
          "name": "C4",
          "ticks": 6144,
          "time": 32,
          "velocity": 0.7874015748031497
        },
        {
          "duration": 0.5,
          "durationTicks": 96,
          "midi": 84,
          "name": "C6",
          "ticks": 6144,
          "time": 32,
          "velocity": 0.7874015748031497
        },
        {
          "duration": 0.5,
          "durationTicks": 96,
          "midi": 60,
          "name": "C4",
          "ticks": 6240,
          "time": 32.5,
          "velocity": 0.7874015748031497
        },
        {
          "duration": 0.5,
          "durationTicks": 96,
          "midi": 84,
          "name": "C6",
          "ticks": 6240,
          "time": 32.5,
          "velocity": 0.7874015748031497
        },
        {
          "duration": 0.5,
          "durationTicks": 96,
          "midi": 60,
          "name": "C4",
          "ticks": 6336,
          "time": 33,
          "velocity": 0.7874015748031497
        },
        {
          "duration": 0.5,
          "durationTicks": 96,
          "midi": 84,
          "name": "C6",
          "ticks": 6336,
          "time": 33,
          "velocity": 0.7874015748031497
        },
        {
          "duration": 0.5,
          "durationTicks": 96,
          "midi": 60,
          "name": "C4",
          "ticks": 6432,
          "time": 33.5,
          "velocity": 0.7874015748031497
        },
        {
          "duration": 0.5,
          "durationTicks": 96,
          "midi": 84,
          "name": "C6",
          "ticks": 6432,
          "time": 33.5,
          "velocity": 0.7874015748031497
        },
        {
          "duration": 0.25,
          "durationTicks": 48,
          "midi": 60,
          "name": "C4",
          "ticks": 6528,
          "time": 34,
          "velocity": 0.7874015748031497
        },
        {
          "duration": 0.25,
          "durationTicks": 48,
          "midi": 84,
          "name": "C6",
          "ticks": 6528,
          "time": 34,
          "velocity": 0.7874015748031497
        },
        {
          "duration": 0.25,
          "durationTicks": 48,
          "midi": 60,
          "name": "C4",
          "ticks": 6576,
          "time": 34.25,
          "velocity": 0.7874015748031497
        },
        {
          "duration": 0.25,
          "durationTicks": 48,
          "midi": 84,
          "name": "C6",
          "ticks": 6576,
          "time": 34.25,
          "velocity": 0.7874015748031497
        },
        {
          "duration": 0.25,
          "durationTicks": 48,
          "midi": 60,
          "name": "C4",
          "ticks": 6624,
          "time": 34.5,
          "velocity": 0.7874015748031497
        },
        {
          "duration": 0.25,
          "durationTicks": 48,
          "midi": 84,
          "name": "C6",
          "ticks": 6624,
          "time": 34.5,
          "velocity": 0.7874015748031497
        },
        {
          "duration": 0.25,
          "durationTicks": 48,
          "midi": 60,
          "name": "C4",
          "ticks": 6672,
          "time": 34.75,
          "velocity": 0.7874015748031497
        },
        {
          "duration": 0.25,
          "durationTicks": 48,
          "midi": 84,
          "name": "C6",
          "ticks": 6672,
          "time": 34.75,
          "velocity": 0.7874015748031497
        },
        {
          "duration": 0.25,
          "durationTicks": 48,
          "midi": 60,
          "name": "C4",
          "ticks": 6720,
          "time": 35,
          "velocity": 0.7874015748031497
        },
        {
          "duration": 0.25,
          "durationTicks": 48,
          "midi": 84,
          "name": "C6",
          "ticks": 6720,
          "time": 35,
          "velocity": 0.7874015748031497
        },
        {
          "duration": 0.25,
          "durationTicks": 48,
          "midi": 60,
          "name": "C4",
          "ticks": 6768,
          "time": 35.25,
          "velocity": 0.7874015748031497
        },
        {
          "duration": 0.25,
          "durationTicks": 48,
          "midi": 84,
          "name": "C6",
          "ticks": 6768,
          "time": 35.25,
          "velocity": 0.7874015748031497
        },
        {
          "duration": 0.25,
          "durationTicks": 48,
          "midi": 60,
          "name": "C4",
          "ticks": 6816,
          "time": 35.5,
          "velocity": 0.7874015748031497
        },
        {
          "duration": 0.25,
          "durationTicks": 48,
          "midi": 84,
          "name": "C6",
          "ticks": 6816,
          "time": 35.5,
          "velocity": 0.7874015748031497
        },
        {
          "duration": 0.25,
          "durationTicks": 48,
          "midi": 60,
          "name": "C4",
          "ticks": 6864,
          "time": 35.75,
          "velocity": 0.7874015748031497
        },
        {
          "duration": 0.25,
          "durationTicks": 48,
          "midi": 61,
          "name": "C#4",
          "ticks": 6864,
          "time": 35.75,
          "velocity": 0.7874015748031497
        },
        {
          "duration": 0.25,
          "durationTicks": 48,
          "midi": 62,
          "name": "D4",
          "ticks": 6864,
          "time": 35.75,
          "velocity": 0.7874015748031497
        },
        {
          "duration": 0.25,
          "durationTicks": 48,
          "midi": 63,
          "name": "D#4",
          "ticks": 6864,
          "time": 35.75,
          "velocity": 0.7874015748031497
        },
        {
          "duration": 0.25,
          "durationTicks": 48,
          "midi": 64,
          "name": "E4",
          "ticks": 6864,
          "time": 35.75,
          "velocity": 0.7874015748031497
        },
        {
          "duration": 0.25,
          "durationTicks": 48,
          "midi": 65,
          "name": "F4",
          "ticks": 6864,
          "time": 35.75,
          "velocity": 0.7874015748031497
        },
        {
          "duration": 0.25,
          "durationTicks": 48,
          "midi": 66,
          "name": "F#4",
          "ticks": 6864,
          "time": 35.75,
          "velocity": 0.7874015748031497
        },
        {
          "duration": 0.25,
          "durationTicks": 48,
          "midi": 67,
          "name": "G4",
          "ticks": 6864,
          "time": 35.75,
          "velocity": 0.7874015748031497
        },
        {
          "duration": 0.25,
          "durationTicks": 48,
          "midi": 68,
          "name": "G#4",
          "ticks": 6864,
          "time": 35.75,
          "velocity": 0.7874015748031497
        },
        {
          "duration": 0.25,
          "durationTicks": 48,
          "midi": 69,
          "name": "A4",
          "ticks": 6864,
          "time": 35.75,
          "velocity": 0.7874015748031497
        },
        {
          "duration": 0.25,
          "durationTicks": 48,
          "midi": 70,
          "name": "A#4",
          "ticks": 6864,
          "time": 35.75,
          "velocity": 0.7874015748031497
        },
        {
          "duration": 0.25,
          "durationTicks": 48,
          "midi": 71,
          "name": "B4",
          "ticks": 6864,
          "time": 35.75,
          "velocity": 0.7874015748031497
        },
        {
          "duration": 0.25,
          "durationTicks": 48,
          "midi": 72,
          "name": "C5",
          "ticks": 6864,
          "time": 35.75,
          "velocity": 0.7874015748031497
        },
        {
          "duration": 0.25,
          "durationTicks": 48,
          "midi": 73,
          "name": "C#5",
          "ticks": 6864,
          "time": 35.75,
          "velocity": 0.7874015748031497
        },
        {
          "duration": 0.25,
          "durationTicks": 48,
          "midi": 74,
          "name": "D5",
          "ticks": 6864,
          "time": 35.75,
          "velocity": 0.7874015748031497
        },
        {
          "duration": 0.25,
          "durationTicks": 48,
          "midi": 75,
          "name": "D#5",
          "ticks": 6864,
          "time": 35.75,
          "velocity": 0.7874015748031497
        },
        {
          "duration": 0.25,
          "durationTicks": 48,
          "midi": 76,
          "name": "E5",
          "ticks": 6864,
          "time": 35.75,
          "velocity": 0.7874015748031497
        },
        {
          "duration": 0.25,
          "durationTicks": 48,
          "midi": 77,
          "name": "F5",
          "ticks": 6864,
          "time": 35.75,
          "velocity": 0.7874015748031497
        },
        {
          "duration": 0.25,
          "durationTicks": 48,
          "midi": 78,
          "name": "F#5",
          "ticks": 6864,
          "time": 35.75,
          "velocity": 0.7874015748031497
        },
        {
          "duration": 0.25,
          "durationTicks": 48,
          "midi": 79,
          "name": "G5",
          "ticks": 6864,
          "time": 35.75,
          "velocity": 0.7874015748031497
        },
        {
          "duration": 0.25,
          "durationTicks": 48,
          "midi": 80,
          "name": "G#5",
          "ticks": 6864,
          "time": 35.75,
          "velocity": 0.7874015748031497
        },
        {
          "duration": 0.25,
          "durationTicks": 48,
          "midi": 81,
          "name": "A5",
          "ticks": 6864,
          "time": 35.75,
          "velocity": 0.7874015748031497
        },
        {
          "duration": 0.25,
          "durationTicks": 48,
          "midi": 82,
          "name": "A#5",
          "ticks": 6864,
          "time": 35.75,
          "velocity": 0.7874015748031497
        },
        {
          "duration": 0.25,
          "durationTicks": 48,
          "midi": 83,
          "name": "B5",
          "ticks": 6864,
          "time": 35.75,
          "velocity": 0.7874015748031497
        },
        {
          "duration": 0.25,
          "durationTicks": 48,
          "midi": 84,
          "name": "C6",
          "ticks": 6864,
          "time": 35.75,
          "velocity": 0.7874015748031497
        },
        {
          "duration": 2,
          "durationTicks": 384,
          "midi": 60,
          "name": "C4",
          "ticks": 6912,
          "time": 36,
          "velocity": 0.7874015748031497
        },
        {
          "duration": 2,
          "durationTicks": 384,
          "midi": 61,
          "name": "C#4",
          "ticks": 6912,
          "time": 36,
          "velocity": 0.7874015748031497
        },
        {
          "duration": 2,
          "durationTicks": 384,
          "midi": 62,
          "name": "D4",
          "ticks": 6912,
          "time": 36,
          "velocity": 0.7874015748031497
        },
        {
          "duration": 2,
          "durationTicks": 384,
          "midi": 63,
          "name": "D#4",
          "ticks": 6912,
          "time": 36,
          "velocity": 0.7874015748031497
        },
        {
          "duration": 2,
          "durationTicks": 384,
          "midi": 64,
          "name": "E4",
          "ticks": 6912,
          "time": 36,
          "velocity": 0.7874015748031497
        },
        {
          "duration": 2,
          "durationTicks": 384,
          "midi": 65,
          "name": "F4",
          "ticks": 6912,
          "time": 36,
          "velocity": 0.7874015748031497
        },
        {
          "duration": 2,
          "durationTicks": 384,
          "midi": 66,
          "name": "F#4",
          "ticks": 6912,
          "time": 36,
          "velocity": 0.7874015748031497
        },
        {
          "duration": 2,
          "durationTicks": 384,
          "midi": 67,
          "name": "G4",
          "ticks": 6912,
          "time": 36,
          "velocity": 0.7874015748031497
        },
        {
          "duration": 2,
          "durationTicks": 384,
          "midi": 68,
          "name": "G#4",
          "ticks": 6912,
          "time": 36,
          "velocity": 0.7874015748031497
        },
        {
          "duration": 2,
          "durationTicks": 384,
          "midi": 69,
          "name": "A4",
          "ticks": 6912,
          "time": 36,
          "velocity": 0.7874015748031497
        },
        {
          "duration": 2,
          "durationTicks": 384,
          "midi": 70,
          "name": "A#4",
          "ticks": 6912,
          "time": 36,
          "velocity": 0.7874015748031497
        },
        {
          "duration": 2,
          "durationTicks": 384,
          "midi": 71,
          "name": "B4",
          "ticks": 6912,
          "time": 36,
          "velocity": 0.7874015748031497
        },
        {
          "duration": 2,
          "durationTicks": 384,
          "midi": 72,
          "name": "C5",
          "ticks": 6912,
          "time": 36,
          "velocity": 0.7874015748031497
        },
        {
          "duration": 2,
          "durationTicks": 384,
          "midi": 73,
          "name": "C#5",
          "ticks": 6912,
          "time": 36,
          "velocity": 0.7874015748031497
        },
        {
          "duration": 2,
          "durationTicks": 384,
          "midi": 74,
          "name": "D5",
          "ticks": 6912,
          "time": 36,
          "velocity": 0.7874015748031497
        },
        {
          "duration": 2,
          "durationTicks": 384,
          "midi": 75,
          "name": "D#5",
          "ticks": 6912,
          "time": 36,
          "velocity": 0.7874015748031497
        },
        {
          "duration": 2,
          "durationTicks": 384,
          "midi": 76,
          "name": "E5",
          "ticks": 6912,
          "time": 36,
          "velocity": 0.7874015748031497
        },
        {
          "duration": 2,
          "durationTicks": 384,
          "midi": 77,
          "name": "F5",
          "ticks": 6912,
          "time": 36,
          "velocity": 0.7874015748031497
        },
        {
          "duration": 2,
          "durationTicks": 384,
          "midi": 78,
          "name": "F#5",
          "ticks": 6912,
          "time": 36,
          "velocity": 0.7874015748031497
        },
        {
          "duration": 2,
          "durationTicks": 384,
          "midi": 79,
          "name": "G5",
          "ticks": 6912,
          "time": 36,
          "velocity": 0.7874015748031497
        },
        {
          "duration": 2,
          "durationTicks": 384,
          "midi": 80,
          "name": "G#5",
          "ticks": 6912,
          "time": 36,
          "velocity": 0.7874015748031497
        },
        {
          "duration": 2,
          "durationTicks": 384,
          "midi": 81,
          "name": "A5",
          "ticks": 6912,
          "time": 36,
          "velocity": 0.7874015748031497
        },
        {
          "duration": 2,
          "durationTicks": 384,
          "midi": 82,
          "name": "A#5",
          "ticks": 6912,
          "time": 36,
          "velocity": 0.7874015748031497
        },
        {
          "duration": 2,
          "durationTicks": 384,
          "midi": 83,
          "name": "B5",
          "ticks": 6912,
          "time": 36,
          "velocity": 0.7874015748031497
        },
        {
          "duration": 2,
          "durationTicks": 384,
          "midi": 84,
          "name": "C6",
          "ticks": 6912,
          "time": 36,
          "velocity": 0.7874015748031497
        },
        {
          "duration": 0.5,
          "durationTicks": 96,
          "midi": 60,
          "name": "C4",
          "ticks": 7296,
          "time": 38,
          "velocity": 0.7874015748031497
        },
        {
          "duration": 0.5,
          "durationTicks": 96,
          "midi": 84,
          "name": "C6",
          "ticks": 7296,
          "time": 38,
          "velocity": 0.7874015748031497
        },
        {
          "duration": 0.5,
          "durationTicks": 96,
          "midi": 60,
          "name": "C4",
          "ticks": 7392,
          "time": 38.5,
          "velocity": 0.7874015748031497
        },
        {
          "duration": 0.5,
          "durationTicks": 96,
          "midi": 84,
          "name": "C6",
          "ticks": 7392,
          "time": 38.5,
          "velocity": 0.7874015748031497
        },
        {
          "duration": 0.5,
          "durationTicks": 96,
          "midi": 60,
          "name": "C4",
          "ticks": 7488,
          "time": 39,
          "velocity": 0.7874015748031497
        },
        {
          "duration": 0.5,
          "durationTicks": 96,
          "midi": 84,
          "name": "C6",
          "ticks": 7488,
          "time": 39,
          "velocity": 0.7874015748031497
        },
        {
          "duration": 0.5,
          "durationTicks": 96,
          "midi": 60,
          "name": "C4",
          "ticks": 7584,
          "time": 39.5,
          "velocity": 0.7874015748031497
        },
        {
          "duration": 0.5,
          "durationTicks": 96,
          "midi": 84,
          "name": "C6",
          "ticks": 7584,
          "time": 39.5,
          "velocity": 0.7874015748031497
        },
        {
          "duration": 0.25,
          "durationTicks": 48,
          "midi": 60,
          "name": "C4",
          "ticks": 7680,
          "time": 40,
          "velocity": 0.7874015748031497
        },
        {
          "duration": 0.25,
          "durationTicks": 48,
          "midi": 84,
          "name": "C6",
          "ticks": 7680,
          "time": 40,
          "velocity": 0.7874015748031497
        },
        {
          "duration": 0.25,
          "durationTicks": 48,
          "midi": 60,
          "name": "C4",
          "ticks": 7728,
          "time": 40.25,
          "velocity": 0.7874015748031497
        },
        {
          "duration": 0.25,
          "durationTicks": 48,
          "midi": 84,
          "name": "C6",
          "ticks": 7728,
          "time": 40.25,
          "velocity": 0.7874015748031497
        },
        {
          "duration": 0.25,
          "durationTicks": 48,
          "midi": 60,
          "name": "C4",
          "ticks": 7776,
          "time": 40.5,
          "velocity": 0.7874015748031497
        },
        {
          "duration": 0.25,
          "durationTicks": 48,
          "midi": 84,
          "name": "C6",
          "ticks": 7776,
          "time": 40.5,
          "velocity": 0.7874015748031497
        },
        {
          "duration": 0.25,
          "durationTicks": 48,
          "midi": 60,
          "name": "C4",
          "ticks": 7824,
          "time": 40.75,
          "velocity": 0.7874015748031497
        },
        {
          "duration": 0.25,
          "durationTicks": 48,
          "midi": 84,
          "name": "C6",
          "ticks": 7824,
          "time": 40.75,
          "velocity": 0.7874015748031497
        },
        {
          "duration": 0.25,
          "durationTicks": 48,
          "midi": 60,
          "name": "C4",
          "ticks": 7872,
          "time": 41,
          "velocity": 0.7874015748031497
        },
        {
          "duration": 0.25,
          "durationTicks": 48,
          "midi": 84,
          "name": "C6",
          "ticks": 7872,
          "time": 41,
          "velocity": 0.7874015748031497
        },
        {
          "duration": 0.25,
          "durationTicks": 48,
          "midi": 60,
          "name": "C4",
          "ticks": 7920,
          "time": 41.25,
          "velocity": 0.7874015748031497
        },
        {
          "duration": 0.25,
          "durationTicks": 48,
          "midi": 84,
          "name": "C6",
          "ticks": 7920,
          "time": 41.25,
          "velocity": 0.7874015748031497
        },
        {
          "duration": 0.25,
          "durationTicks": 48,
          "midi": 60,
          "name": "C4",
          "ticks": 7968,
          "time": 41.5,
          "velocity": 0.7874015748031497
        },
        {
          "duration": 0.25,
          "durationTicks": 48,
          "midi": 84,
          "name": "C6",
          "ticks": 7968,
          "time": 41.5,
          "velocity": 0.7874015748031497
        },
        {
          "duration": 0.25,
          "durationTicks": 48,
          "midi": 60,
          "name": "C4",
          "ticks": 8016,
          "time": 41.75,
          "velocity": 0.7874015748031497
        },
        {
          "duration": 0.25,
          "durationTicks": 48,
          "midi": 61,
          "name": "C#4",
          "ticks": 8016,
          "time": 41.75,
          "velocity": 0.7874015748031497
        },
        {
          "duration": 0.25,
          "durationTicks": 48,
          "midi": 62,
          "name": "D4",
          "ticks": 8016,
          "time": 41.75,
          "velocity": 0.7874015748031497
        },
        {
          "duration": 0.25,
          "durationTicks": 48,
          "midi": 63,
          "name": "D#4",
          "ticks": 8016,
          "time": 41.75,
          "velocity": 0.7874015748031497
        },
        {
          "duration": 0.25,
          "durationTicks": 48,
          "midi": 64,
          "name": "E4",
          "ticks": 8016,
          "time": 41.75,
          "velocity": 0.7874015748031497
        },
        {
          "duration": 0.25,
          "durationTicks": 48,
          "midi": 65,
          "name": "F4",
          "ticks": 8016,
          "time": 41.75,
          "velocity": 0.7874015748031497
        },
        {
          "duration": 0.25,
          "durationTicks": 48,
          "midi": 66,
          "name": "F#4",
          "ticks": 8016,
          "time": 41.75,
          "velocity": 0.7874015748031497
        },
        {
          "duration": 0.25,
          "durationTicks": 48,
          "midi": 67,
          "name": "G4",
          "ticks": 8016,
          "time": 41.75,
          "velocity": 0.7874015748031497
        },
        {
          "duration": 0.25,
          "durationTicks": 48,
          "midi": 68,
          "name": "G#4",
          "ticks": 8016,
          "time": 41.75,
          "velocity": 0.7874015748031497
        },
        {
          "duration": 0.25,
          "durationTicks": 48,
          "midi": 69,
          "name": "A4",
          "ticks": 8016,
          "time": 41.75,
          "velocity": 0.7874015748031497
        },
        {
          "duration": 0.25,
          "durationTicks": 48,
          "midi": 70,
          "name": "A#4",
          "ticks": 8016,
          "time": 41.75,
          "velocity": 0.7874015748031497
        },
        {
          "duration": 0.25,
          "durationTicks": 48,
          "midi": 71,
          "name": "B4",
          "ticks": 8016,
          "time": 41.75,
          "velocity": 0.7874015748031497
        },
        {
          "duration": 0.25,
          "durationTicks": 48,
          "midi": 72,
          "name": "C5",
          "ticks": 8016,
          "time": 41.75,
          "velocity": 0.7874015748031497
        },
        {
          "duration": 0.25,
          "durationTicks": 48,
          "midi": 73,
          "name": "C#5",
          "ticks": 8016,
          "time": 41.75,
          "velocity": 0.7874015748031497
        },
        {
          "duration": 0.25,
          "durationTicks": 48,
          "midi": 74,
          "name": "D5",
          "ticks": 8016,
          "time": 41.75,
          "velocity": 0.7874015748031497
        },
        {
          "duration": 0.25,
          "durationTicks": 48,
          "midi": 75,
          "name": "D#5",
          "ticks": 8016,
          "time": 41.75,
          "velocity": 0.7874015748031497
        },
        {
          "duration": 0.25,
          "durationTicks": 48,
          "midi": 76,
          "name": "E5",
          "ticks": 8016,
          "time": 41.75,
          "velocity": 0.7874015748031497
        },
        {
          "duration": 0.25,
          "durationTicks": 48,
          "midi": 77,
          "name": "F5",
          "ticks": 8016,
          "time": 41.75,
          "velocity": 0.7874015748031497
        },
        {
          "duration": 0.25,
          "durationTicks": 48,
          "midi": 78,
          "name": "F#5",
          "ticks": 8016,
          "time": 41.75,
          "velocity": 0.7874015748031497
        },
        {
          "duration": 0.25,
          "durationTicks": 48,
          "midi": 79,
          "name": "G5",
          "ticks": 8016,
          "time": 41.75,
          "velocity": 0.7874015748031497
        },
        {
          "duration": 0.25,
          "durationTicks": 48,
          "midi": 80,
          "name": "G#5",
          "ticks": 8016,
          "time": 41.75,
          "velocity": 0.7874015748031497
        },
        {
          "duration": 0.25,
          "durationTicks": 48,
          "midi": 81,
          "name": "A5",
          "ticks": 8016,
          "time": 41.75,
          "velocity": 0.7874015748031497
        },
        {
          "duration": 0.25,
          "durationTicks": 48,
          "midi": 82,
          "name": "A#5",
          "ticks": 8016,
          "time": 41.75,
          "velocity": 0.7874015748031497
        },
        {
          "duration": 0.25,
          "durationTicks": 48,
          "midi": 83,
          "name": "B5",
          "ticks": 8016,
          "time": 41.75,
          "velocity": 0.7874015748031497
        },
        {
          "duration": 0.25,
          "durationTicks": 48,
          "midi": 84,
          "name": "C6",
          "ticks": 8016,
          "time": 41.75,
          "velocity": 0.7874015748031497
        },
        {
          "duration": 2,
          "durationTicks": 384,
          "midi": 60,
          "name": "C4",
          "ticks": 8064,
          "time": 42,
          "velocity": 0.7874015748031497
        },
        {
          "duration": 2,
          "durationTicks": 384,
          "midi": 61,
          "name": "C#4",
          "ticks": 8064,
          "time": 42,
          "velocity": 0.7874015748031497
        },
        {
          "duration": 2,
          "durationTicks": 384,
          "midi": 62,
          "name": "D4",
          "ticks": 8064,
          "time": 42,
          "velocity": 0.7874015748031497
        },
        {
          "duration": 2,
          "durationTicks": 384,
          "midi": 63,
          "name": "D#4",
          "ticks": 8064,
          "time": 42,
          "velocity": 0.7874015748031497
        },
        {
          "duration": 2,
          "durationTicks": 384,
          "midi": 64,
          "name": "E4",
          "ticks": 8064,
          "time": 42,
          "velocity": 0.7874015748031497
        },
        {
          "duration": 2,
          "durationTicks": 384,
          "midi": 65,
          "name": "F4",
          "ticks": 8064,
          "time": 42,
          "velocity": 0.7874015748031497
        },
        {
          "duration": 2,
          "durationTicks": 384,
          "midi": 66,
          "name": "F#4",
          "ticks": 8064,
          "time": 42,
          "velocity": 0.7874015748031497
        },
        {
          "duration": 2,
          "durationTicks": 384,
          "midi": 67,
          "name": "G4",
          "ticks": 8064,
          "time": 42,
          "velocity": 0.7874015748031497
        },
        {
          "duration": 2,
          "durationTicks": 384,
          "midi": 68,
          "name": "G#4",
          "ticks": 8064,
          "time": 42,
          "velocity": 0.7874015748031497
        },
        {
          "duration": 2,
          "durationTicks": 384,
          "midi": 69,
          "name": "A4",
          "ticks": 8064,
          "time": 42,
          "velocity": 0.7874015748031497
        },
        {
          "duration": 2,
          "durationTicks": 384,
          "midi": 70,
          "name": "A#4",
          "ticks": 8064,
          "time": 42,
          "velocity": 0.7874015748031497
        },
        {
          "duration": 2,
          "durationTicks": 384,
          "midi": 71,
          "name": "B4",
          "ticks": 8064,
          "time": 42,
          "velocity": 0.7874015748031497
        },
        {
          "duration": 2,
          "durationTicks": 384,
          "midi": 72,
          "name": "C5",
          "ticks": 8064,
          "time": 42,
          "velocity": 0.7874015748031497
        },
        {
          "duration": 2,
          "durationTicks": 384,
          "midi": 73,
          "name": "C#5",
          "ticks": 8064,
          "time": 42,
          "velocity": 0.7874015748031497
        },
        {
          "duration": 2,
          "durationTicks": 384,
          "midi": 74,
          "name": "D5",
          "ticks": 8064,
          "time": 42,
          "velocity": 0.7874015748031497
        },
        {
          "duration": 2,
          "durationTicks": 384,
          "midi": 75,
          "name": "D#5",
          "ticks": 8064,
          "time": 42,
          "velocity": 0.7874015748031497
        },
        {
          "duration": 2,
          "durationTicks": 384,
          "midi": 76,
          "name": "E5",
          "ticks": 8064,
          "time": 42,
          "velocity": 0.7874015748031497
        },
        {
          "duration": 2,
          "durationTicks": 384,
          "midi": 77,
          "name": "F5",
          "ticks": 8064,
          "time": 42,
          "velocity": 0.7874015748031497
        },
        {
          "duration": 2,
          "durationTicks": 384,
          "midi": 78,
          "name": "F#5",
          "ticks": 8064,
          "time": 42,
          "velocity": 0.7874015748031497
        },
        {
          "duration": 2,
          "durationTicks": 384,
          "midi": 79,
          "name": "G5",
          "ticks": 8064,
          "time": 42,
          "velocity": 0.7874015748031497
        },
        {
          "duration": 2,
          "durationTicks": 384,
          "midi": 80,
          "name": "G#5",
          "ticks": 8064,
          "time": 42,
          "velocity": 0.7874015748031497
        },
        {
          "duration": 2,
          "durationTicks": 384,
          "midi": 81,
          "name": "A5",
          "ticks": 8064,
          "time": 42,
          "velocity": 0.7874015748031497
        },
        {
          "duration": 2,
          "durationTicks": 384,
          "midi": 82,
          "name": "A#5",
          "ticks": 8064,
          "time": 42,
          "velocity": 0.7874015748031497
        },
        {
          "duration": 2,
          "durationTicks": 384,
          "midi": 83,
          "name": "B5",
          "ticks": 8064,
          "time": 42,
          "velocity": 0.7874015748031497
        },
        {
          "duration": 2,
          "durationTicks": 384,
          "midi": 84,
          "name": "C6",
          "ticks": 8064,
          "time": 42,
          "velocity": 0.7874015748031497
        },
        {
          "duration": 0.5,
          "durationTicks": 96,
          "midi": 60,
          "name": "C4",
          "ticks": 8448,
          "time": 44,
          "velocity": 0.7874015748031497
        },
        {
          "duration": 0.5,
          "durationTicks": 96,
          "midi": 84,
          "name": "C6",
          "ticks": 8448,
          "time": 44,
          "velocity": 0.7874015748031497
        },
        {
          "duration": 0.5,
          "durationTicks": 96,
          "midi": 60,
          "name": "C4",
          "ticks": 8544,
          "time": 44.5,
          "velocity": 0.7874015748031497
        },
        {
          "duration": 0.5,
          "durationTicks": 96,
          "midi": 84,
          "name": "C6",
          "ticks": 8544,
          "time": 44.5,
          "velocity": 0.7874015748031497
        },
        {
          "duration": 0.5,
          "durationTicks": 96,
          "midi": 60,
          "name": "C4",
          "ticks": 8640,
          "time": 45,
          "velocity": 0.7874015748031497
        },
        {
          "duration": 0.5,
          "durationTicks": 96,
          "midi": 84,
          "name": "C6",
          "ticks": 8640,
          "time": 45,
          "velocity": 0.7874015748031497
        },
        {
          "duration": 0.5,
          "durationTicks": 96,
          "midi": 60,
          "name": "C4",
          "ticks": 8736,
          "time": 45.5,
          "velocity": 0.7874015748031497
        },
        {
          "duration": 0.5,
          "durationTicks": 96,
          "midi": 84,
          "name": "C6",
          "ticks": 8736,
          "time": 45.5,
          "velocity": 0.7874015748031497
        },
        {
          "duration": 0.25,
          "durationTicks": 48,
          "midi": 60,
          "name": "C4",
          "ticks": 8832,
          "time": 46,
          "velocity": 0.7874015748031497
        },
        {
          "duration": 0.25,
          "durationTicks": 48,
          "midi": 84,
          "name": "C6",
          "ticks": 8832,
          "time": 46,
          "velocity": 0.7874015748031497
        },
        {
          "duration": 0.25,
          "durationTicks": 48,
          "midi": 60,
          "name": "C4",
          "ticks": 8880,
          "time": 46.25,
          "velocity": 0.7874015748031497
        },
        {
          "duration": 0.25,
          "durationTicks": 48,
          "midi": 84,
          "name": "C6",
          "ticks": 8880,
          "time": 46.25,
          "velocity": 0.7874015748031497
        },
        {
          "duration": 0.25,
          "durationTicks": 48,
          "midi": 60,
          "name": "C4",
          "ticks": 8928,
          "time": 46.5,
          "velocity": 0.7874015748031497
        },
        {
          "duration": 0.25,
          "durationTicks": 48,
          "midi": 84,
          "name": "C6",
          "ticks": 8928,
          "time": 46.5,
          "velocity": 0.7874015748031497
        },
        {
          "duration": 0.25,
          "durationTicks": 48,
          "midi": 60,
          "name": "C4",
          "ticks": 8976,
          "time": 46.75,
          "velocity": 0.7874015748031497
        },
        {
          "duration": 0.25,
          "durationTicks": 48,
          "midi": 84,
          "name": "C6",
          "ticks": 8976,
          "time": 46.75,
          "velocity": 0.7874015748031497
        },
        {
          "duration": 0.25,
          "durationTicks": 48,
          "midi": 60,
          "name": "C4",
          "ticks": 9024,
          "time": 47,
          "velocity": 0.7874015748031497
        },
        {
          "duration": 0.25,
          "durationTicks": 48,
          "midi": 84,
          "name": "C6",
          "ticks": 9024,
          "time": 47,
          "velocity": 0.7874015748031497
        },
        {
          "duration": 0.25,
          "durationTicks": 48,
          "midi": 60,
          "name": "C4",
          "ticks": 9072,
          "time": 47.25,
          "velocity": 0.7874015748031497
        },
        {
          "duration": 0.25,
          "durationTicks": 48,
          "midi": 84,
          "name": "C6",
          "ticks": 9072,
          "time": 47.25,
          "velocity": 0.7874015748031497
        },
        {
          "duration": 0.25,
          "durationTicks": 48,
          "midi": 60,
          "name": "C4",
          "ticks": 9120,
          "time": 47.5,
          "velocity": 0.7874015748031497
        },
        {
          "duration": 0.25,
          "durationTicks": 48,
          "midi": 84,
          "name": "C6",
          "ticks": 9120,
          "time": 47.5,
          "velocity": 0.7874015748031497
        },
        {
          "duration": 0.25,
          "durationTicks": 48,
          "midi": 60,
          "name": "C4",
          "ticks": 9168,
          "time": 47.75,
          "velocity": 0.7874015748031497
        },
        {
          "duration": 0.25,
          "durationTicks": 48,
          "midi": 61,
          "name": "C#4",
          "ticks": 9168,
          "time": 47.75,
          "velocity": 0.7874015748031497
        },
        {
          "duration": 0.25,
          "durationTicks": 48,
          "midi": 62,
          "name": "D4",
          "ticks": 9168,
          "time": 47.75,
          "velocity": 0.7874015748031497
        },
        {
          "duration": 0.25,
          "durationTicks": 48,
          "midi": 63,
          "name": "D#4",
          "ticks": 9168,
          "time": 47.75,
          "velocity": 0.7874015748031497
        },
        {
          "duration": 0.25,
          "durationTicks": 48,
          "midi": 64,
          "name": "E4",
          "ticks": 9168,
          "time": 47.75,
          "velocity": 0.7874015748031497
        },
        {
          "duration": 0.25,
          "durationTicks": 48,
          "midi": 65,
          "name": "F4",
          "ticks": 9168,
          "time": 47.75,
          "velocity": 0.7874015748031497
        },
        {
          "duration": 0.25,
          "durationTicks": 48,
          "midi": 66,
          "name": "F#4",
          "ticks": 9168,
          "time": 47.75,
          "velocity": 0.7874015748031497
        },
        {
          "duration": 0.25,
          "durationTicks": 48,
          "midi": 67,
          "name": "G4",
          "ticks": 9168,
          "time": 47.75,
          "velocity": 0.7874015748031497
        },
        {
          "duration": 0.25,
          "durationTicks": 48,
          "midi": 68,
          "name": "G#4",
          "ticks": 9168,
          "time": 47.75,
          "velocity": 0.7874015748031497
        },
        {
          "duration": 0.25,
          "durationTicks": 48,
          "midi": 69,
          "name": "A4",
          "ticks": 9168,
          "time": 47.75,
          "velocity": 0.7874015748031497
        },
        {
          "duration": 0.25,
          "durationTicks": 48,
          "midi": 70,
          "name": "A#4",
          "ticks": 9168,
          "time": 47.75,
          "velocity": 0.7874015748031497
        },
        {
          "duration": 0.25,
          "durationTicks": 48,
          "midi": 71,
          "name": "B4",
          "ticks": 9168,
          "time": 47.75,
          "velocity": 0.7874015748031497
        },
        {
          "duration": 0.25,
          "durationTicks": 48,
          "midi": 72,
          "name": "C5",
          "ticks": 9168,
          "time": 47.75,
          "velocity": 0.7874015748031497
        },
        {
          "duration": 0.25,
          "durationTicks": 48,
          "midi": 73,
          "name": "C#5",
          "ticks": 9168,
          "time": 47.75,
          "velocity": 0.7874015748031497
        },
        {
          "duration": 0.25,
          "durationTicks": 48,
          "midi": 74,
          "name": "D5",
          "ticks": 9168,
          "time": 47.75,
          "velocity": 0.7874015748031497
        },
        {
          "duration": 0.25,
          "durationTicks": 48,
          "midi": 75,
          "name": "D#5",
          "ticks": 9168,
          "time": 47.75,
          "velocity": 0.7874015748031497
        },
        {
          "duration": 0.25,
          "durationTicks": 48,
          "midi": 76,
          "name": "E5",
          "ticks": 9168,
          "time": 47.75,
          "velocity": 0.7874015748031497
        },
        {
          "duration": 0.25,
          "durationTicks": 48,
          "midi": 77,
          "name": "F5",
          "ticks": 9168,
          "time": 47.75,
          "velocity": 0.7874015748031497
        },
        {
          "duration": 0.25,
          "durationTicks": 48,
          "midi": 78,
          "name": "F#5",
          "ticks": 9168,
          "time": 47.75,
          "velocity": 0.7874015748031497
        },
        {
          "duration": 0.25,
          "durationTicks": 48,
          "midi": 79,
          "name": "G5",
          "ticks": 9168,
          "time": 47.75,
          "velocity": 0.7874015748031497
        },
        {
          "duration": 0.25,
          "durationTicks": 48,
          "midi": 80,
          "name": "G#5",
          "ticks": 9168,
          "time": 47.75,
          "velocity": 0.7874015748031497
        },
        {
          "duration": 0.25,
          "durationTicks": 48,
          "midi": 81,
          "name": "A5",
          "ticks": 9168,
          "time": 47.75,
          "velocity": 0.7874015748031497
        },
        {
          "duration": 0.25,
          "durationTicks": 48,
          "midi": 82,
          "name": "A#5",
          "ticks": 9168,
          "time": 47.75,
          "velocity": 0.7874015748031497
        },
        {
          "duration": 0.25,
          "durationTicks": 48,
          "midi": 83,
          "name": "B5",
          "ticks": 9168,
          "time": 47.75,
          "velocity": 0.7874015748031497
        },
        {
          "duration": 0.25,
          "durationTicks": 48,
          "midi": 84,
          "name": "C6",
          "ticks": 9168,
          "time": 47.75,
          "velocity": 0.7874015748031497
        },
        {
          "duration": 2,
          "durationTicks": 384,
          "midi": 60,
          "name": "C4",
          "ticks": 9216,
          "time": 48,
          "velocity": 0.7874015748031497
        },
        {
          "duration": 2,
          "durationTicks": 384,
          "midi": 61,
          "name": "C#4",
          "ticks": 9216,
          "time": 48,
          "velocity": 0.7874015748031497
        },
        {
          "duration": 2,
          "durationTicks": 384,
          "midi": 62,
          "name": "D4",
          "ticks": 9216,
          "time": 48,
          "velocity": 0.7874015748031497
        },
        {
          "duration": 2,
          "durationTicks": 384,
          "midi": 63,
          "name": "D#4",
          "ticks": 9216,
          "time": 48,
          "velocity": 0.7874015748031497
        },
        {
          "duration": 2,
          "durationTicks": 384,
          "midi": 64,
          "name": "E4",
          "ticks": 9216,
          "time": 48,
          "velocity": 0.7874015748031497
        },
        {
          "duration": 2,
          "durationTicks": 384,
          "midi": 65,
          "name": "F4",
          "ticks": 9216,
          "time": 48,
          "velocity": 0.7874015748031497
        },
        {
          "duration": 2,
          "durationTicks": 384,
          "midi": 66,
          "name": "F#4",
          "ticks": 9216,
          "time": 48,
          "velocity": 0.7874015748031497
        },
        {
          "duration": 2,
          "durationTicks": 384,
          "midi": 67,
          "name": "G4",
          "ticks": 9216,
          "time": 48,
          "velocity": 0.7874015748031497
        },
        {
          "duration": 2,
          "durationTicks": 384,
          "midi": 68,
          "name": "G#4",
          "ticks": 9216,
          "time": 48,
          "velocity": 0.7874015748031497
        },
        {
          "duration": 2,
          "durationTicks": 384,
          "midi": 69,
          "name": "A4",
          "ticks": 9216,
          "time": 48,
          "velocity": 0.7874015748031497
        },
        {
          "duration": 2,
          "durationTicks": 384,
          "midi": 70,
          "name": "A#4",
          "ticks": 9216,
          "time": 48,
          "velocity": 0.7874015748031497
        },
        {
          "duration": 2,
          "durationTicks": 384,
          "midi": 71,
          "name": "B4",
          "ticks": 9216,
          "time": 48,
          "velocity": 0.7874015748031497
        },
        {
          "duration": 2,
          "durationTicks": 384,
          "midi": 72,
          "name": "C5",
          "ticks": 9216,
          "time": 48,
          "velocity": 0.7874015748031497
        },
        {
          "duration": 2,
          "durationTicks": 384,
          "midi": 73,
          "name": "C#5",
          "ticks": 9216,
          "time": 48,
          "velocity": 0.7874015748031497
        },
        {
          "duration": 2,
          "durationTicks": 384,
          "midi": 74,
          "name": "D5",
          "ticks": 9216,
          "time": 48,
          "velocity": 0.7874015748031497
        },
        {
          "duration": 2,
          "durationTicks": 384,
          "midi": 75,
          "name": "D#5",
          "ticks": 9216,
          "time": 48,
          "velocity": 0.7874015748031497
        },
        {
          "duration": 2,
          "durationTicks": 384,
          "midi": 76,
          "name": "E5",
          "ticks": 9216,
          "time": 48,
          "velocity": 0.7874015748031497
        },
        {
          "duration": 2,
          "durationTicks": 384,
          "midi": 77,
          "name": "F5",
          "ticks": 9216,
          "time": 48,
          "velocity": 0.7874015748031497
        },
        {
          "duration": 2,
          "durationTicks": 384,
          "midi": 78,
          "name": "F#5",
          "ticks": 9216,
          "time": 48,
          "velocity": 0.7874015748031497
        },
        {
          "duration": 2,
          "durationTicks": 384,
          "midi": 79,
          "name": "G5",
          "ticks": 9216,
          "time": 48,
          "velocity": 0.7874015748031497
        },
        {
          "duration": 2,
          "durationTicks": 384,
          "midi": 80,
          "name": "G#5",
          "ticks": 9216,
          "time": 48,
          "velocity": 0.7874015748031497
        },
        {
          "duration": 2,
          "durationTicks": 384,
          "midi": 81,
          "name": "A5",
          "ticks": 9216,
          "time": 48,
          "velocity": 0.7874015748031497
        },
        {
          "duration": 2,
          "durationTicks": 384,
          "midi": 82,
          "name": "A#5",
          "ticks": 9216,
          "time": 48,
          "velocity": 0.7874015748031497
        },
        {
          "duration": 2,
          "durationTicks": 384,
          "midi": 83,
          "name": "B5",
          "ticks": 9216,
          "time": 48,
          "velocity": 0.7874015748031497
        },
        {
          "duration": 2,
          "durationTicks": 384,
          "midi": 84,
          "name": "C6",
          "ticks": 9216,
          "time": 48,
          "velocity": 0.7874015748031497
        },
        {
          "duration": 0.5,
          "durationTicks": 96,
          "midi": 60,
          "name": "C4",
          "ticks": 9600,
          "time": 50,
          "velocity": 0.7874015748031497
        },
        {
          "duration": 0.5,
          "durationTicks": 96,
          "midi": 84,
          "name": "C6",
          "ticks": 9600,
          "time": 50,
          "velocity": 0.7874015748031497
        },
        {
          "duration": 0.5,
          "durationTicks": 96,
          "midi": 60,
          "name": "C4",
          "ticks": 9696,
          "time": 50.5,
          "velocity": 0.7874015748031497
        },
        {
          "duration": 0.5,
          "durationTicks": 96,
          "midi": 84,
          "name": "C6",
          "ticks": 9696,
          "time": 50.5,
          "velocity": 0.7874015748031497
        },
        {
          "duration": 0.5,
          "durationTicks": 96,
          "midi": 60,
          "name": "C4",
          "ticks": 9792,
          "time": 51,
          "velocity": 0.7874015748031497
        },
        {
          "duration": 0.5,
          "durationTicks": 96,
          "midi": 84,
          "name": "C6",
          "ticks": 9792,
          "time": 51,
          "velocity": 0.7874015748031497
        },
        {
          "duration": 0.5,
          "durationTicks": 96,
          "midi": 60,
          "name": "C4",
          "ticks": 9888,
          "time": 51.5,
          "velocity": 0.7874015748031497
        },
        {
          "duration": 0.5,
          "durationTicks": 96,
          "midi": 84,
          "name": "C6",
          "ticks": 9888,
          "time": 51.5,
          "velocity": 0.7874015748031497
        },
        {
          "duration": 0.25,
          "durationTicks": 48,
          "midi": 60,
          "name": "C4",
          "ticks": 9984,
          "time": 52,
          "velocity": 0.7874015748031497
        },
        {
          "duration": 0.25,
          "durationTicks": 48,
          "midi": 84,
          "name": "C6",
          "ticks": 9984,
          "time": 52,
          "velocity": 0.7874015748031497
        },
        {
          "duration": 0.25,
          "durationTicks": 48,
          "midi": 60,
          "name": "C4",
          "ticks": 10032,
          "time": 52.25,
          "velocity": 0.7874015748031497
        },
        {
          "duration": 0.25,
          "durationTicks": 48,
          "midi": 84,
          "name": "C6",
          "ticks": 10032,
          "time": 52.25,
          "velocity": 0.7874015748031497
        },
        {
          "duration": 0.25,
          "durationTicks": 48,
          "midi": 60,
          "name": "C4",
          "ticks": 10080,
          "time": 52.5,
          "velocity": 0.7874015748031497
        },
        {
          "duration": 0.25,
          "durationTicks": 48,
          "midi": 84,
          "name": "C6",
          "ticks": 10080,
          "time": 52.5,
          "velocity": 0.7874015748031497
        },
        {
          "duration": 0.25,
          "durationTicks": 48,
          "midi": 60,
          "name": "C4",
          "ticks": 10128,
          "time": 52.75,
          "velocity": 0.7874015748031497
        },
        {
          "duration": 0.25,
          "durationTicks": 48,
          "midi": 84,
          "name": "C6",
          "ticks": 10128,
          "time": 52.75,
          "velocity": 0.7874015748031497
        },
        {
          "duration": 0.25,
          "durationTicks": 48,
          "midi": 60,
          "name": "C4",
          "ticks": 10176,
          "time": 53,
          "velocity": 0.7874015748031497
        },
        {
          "duration": 0.25,
          "durationTicks": 48,
          "midi": 84,
          "name": "C6",
          "ticks": 10176,
          "time": 53,
          "velocity": 0.7874015748031497
        },
        {
          "duration": 0.25,
          "durationTicks": 48,
          "midi": 60,
          "name": "C4",
          "ticks": 10224,
          "time": 53.25,
          "velocity": 0.7874015748031497
        },
        {
          "duration": 0.25,
          "durationTicks": 48,
          "midi": 84,
          "name": "C6",
          "ticks": 10224,
          "time": 53.25,
          "velocity": 0.7874015748031497
        },
        {
          "duration": 0.25,
          "durationTicks": 48,
          "midi": 60,
          "name": "C4",
          "ticks": 10272,
          "time": 53.5,
          "velocity": 0.7874015748031497
        },
        {
          "duration": 0.25,
          "durationTicks": 48,
          "midi": 84,
          "name": "C6",
          "ticks": 10272,
          "time": 53.5,
          "velocity": 0.7874015748031497
        },
        {
          "duration": 0.25,
          "durationTicks": 48,
          "midi": 60,
          "name": "C4",
          "ticks": 10320,
          "time": 53.75,
          "velocity": 0.7874015748031497
        },
        {
          "duration": 0.25,
          "durationTicks": 48,
          "midi": 61,
          "name": "C#4",
          "ticks": 10320,
          "time": 53.75,
          "velocity": 0.7874015748031497
        },
        {
          "duration": 0.25,
          "durationTicks": 48,
          "midi": 62,
          "name": "D4",
          "ticks": 10320,
          "time": 53.75,
          "velocity": 0.7874015748031497
        },
        {
          "duration": 0.25,
          "durationTicks": 48,
          "midi": 63,
          "name": "D#4",
          "ticks": 10320,
          "time": 53.75,
          "velocity": 0.7874015748031497
        },
        {
          "duration": 0.25,
          "durationTicks": 48,
          "midi": 64,
          "name": "E4",
          "ticks": 10320,
          "time": 53.75,
          "velocity": 0.7874015748031497
        },
        {
          "duration": 0.25,
          "durationTicks": 48,
          "midi": 65,
          "name": "F4",
          "ticks": 10320,
          "time": 53.75,
          "velocity": 0.7874015748031497
        },
        {
          "duration": 0.25,
          "durationTicks": 48,
          "midi": 66,
          "name": "F#4",
          "ticks": 10320,
          "time": 53.75,
          "velocity": 0.7874015748031497
        },
        {
          "duration": 0.25,
          "durationTicks": 48,
          "midi": 67,
          "name": "G4",
          "ticks": 10320,
          "time": 53.75,
          "velocity": 0.7874015748031497
        },
        {
          "duration": 0.25,
          "durationTicks": 48,
          "midi": 68,
          "name": "G#4",
          "ticks": 10320,
          "time": 53.75,
          "velocity": 0.7874015748031497
        },
        {
          "duration": 0.25,
          "durationTicks": 48,
          "midi": 69,
          "name": "A4",
          "ticks": 10320,
          "time": 53.75,
          "velocity": 0.7874015748031497
        },
        {
          "duration": 0.25,
          "durationTicks": 48,
          "midi": 70,
          "name": "A#4",
          "ticks": 10320,
          "time": 53.75,
          "velocity": 0.7874015748031497
        },
        {
          "duration": 0.25,
          "durationTicks": 48,
          "midi": 71,
          "name": "B4",
          "ticks": 10320,
          "time": 53.75,
          "velocity": 0.7874015748031497
        },
        {
          "duration": 0.25,
          "durationTicks": 48,
          "midi": 72,
          "name": "C5",
          "ticks": 10320,
          "time": 53.75,
          "velocity": 0.7874015748031497
        },
        {
          "duration": 0.25,
          "durationTicks": 48,
          "midi": 73,
          "name": "C#5",
          "ticks": 10320,
          "time": 53.75,
          "velocity": 0.7874015748031497
        },
        {
          "duration": 0.25,
          "durationTicks": 48,
          "midi": 74,
          "name": "D5",
          "ticks": 10320,
          "time": 53.75,
          "velocity": 0.7874015748031497
        },
        {
          "duration": 0.25,
          "durationTicks": 48,
          "midi": 75,
          "name": "D#5",
          "ticks": 10320,
          "time": 53.75,
          "velocity": 0.7874015748031497
        },
        {
          "duration": 0.25,
          "durationTicks": 48,
          "midi": 76,
          "name": "E5",
          "ticks": 10320,
          "time": 53.75,
          "velocity": 0.7874015748031497
        },
        {
          "duration": 0.25,
          "durationTicks": 48,
          "midi": 77,
          "name": "F5",
          "ticks": 10320,
          "time": 53.75,
          "velocity": 0.7874015748031497
        },
        {
          "duration": 0.25,
          "durationTicks": 48,
          "midi": 78,
          "name": "F#5",
          "ticks": 10320,
          "time": 53.75,
          "velocity": 0.7874015748031497
        },
        {
          "duration": 0.25,
          "durationTicks": 48,
          "midi": 79,
          "name": "G5",
          "ticks": 10320,
          "time": 53.75,
          "velocity": 0.7874015748031497
        },
        {
          "duration": 0.25,
          "durationTicks": 48,
          "midi": 80,
          "name": "G#5",
          "ticks": 10320,
          "time": 53.75,
          "velocity": 0.7874015748031497
        },
        {
          "duration": 0.25,
          "durationTicks": 48,
          "midi": 81,
          "name": "A5",
          "ticks": 10320,
          "time": 53.75,
          "velocity": 0.7874015748031497
        },
        {
          "duration": 0.25,
          "durationTicks": 48,
          "midi": 82,
          "name": "A#5",
          "ticks": 10320,
          "time": 53.75,
          "velocity": 0.7874015748031497
        },
        {
          "duration": 0.25,
          "durationTicks": 48,
          "midi": 83,
          "name": "B5",
          "ticks": 10320,
          "time": 53.75,
          "velocity": 0.7874015748031497
        },
        {
          "duration": 0.25,
          "durationTicks": 48,
          "midi": 84,
          "name": "C6",
          "ticks": 10320,
          "time": 53.75,
          "velocity": 0.7874015748031497
        },
        {
          "duration": 2,
          "durationTicks": 384,
          "midi": 60,
          "name": "C4",
          "ticks": 10368,
          "time": 54,
          "velocity": 0.7874015748031497
        },
        {
          "duration": 2,
          "durationTicks": 384,
          "midi": 61,
          "name": "C#4",
          "ticks": 10368,
          "time": 54,
          "velocity": 0.7874015748031497
        },
        {
          "duration": 2,
          "durationTicks": 384,
          "midi": 62,
          "name": "D4",
          "ticks": 10368,
          "time": 54,
          "velocity": 0.7874015748031497
        },
        {
          "duration": 2,
          "durationTicks": 384,
          "midi": 63,
          "name": "D#4",
          "ticks": 10368,
          "time": 54,
          "velocity": 0.7874015748031497
        },
        {
          "duration": 2,
          "durationTicks": 384,
          "midi": 64,
          "name": "E4",
          "ticks": 10368,
          "time": 54,
          "velocity": 0.7874015748031497
        },
        {
          "duration": 2,
          "durationTicks": 384,
          "midi": 65,
          "name": "F4",
          "ticks": 10368,
          "time": 54,
          "velocity": 0.7874015748031497
        },
        {
          "duration": 2,
          "durationTicks": 384,
          "midi": 66,
          "name": "F#4",
          "ticks": 10368,
          "time": 54,
          "velocity": 0.7874015748031497
        },
        {
          "duration": 2,
          "durationTicks": 384,
          "midi": 67,
          "name": "G4",
          "ticks": 10368,
          "time": 54,
          "velocity": 0.7874015748031497
        },
        {
          "duration": 2,
          "durationTicks": 384,
          "midi": 68,
          "name": "G#4",
          "ticks": 10368,
          "time": 54,
          "velocity": 0.7874015748031497
        },
        {
          "duration": 2,
          "durationTicks": 384,
          "midi": 69,
          "name": "A4",
          "ticks": 10368,
          "time": 54,
          "velocity": 0.7874015748031497
        },
        {
          "duration": 2,
          "durationTicks": 384,
          "midi": 70,
          "name": "A#4",
          "ticks": 10368,
          "time": 54,
          "velocity": 0.7874015748031497
        },
        {
          "duration": 2,
          "durationTicks": 384,
          "midi": 71,
          "name": "B4",
          "ticks": 10368,
          "time": 54,
          "velocity": 0.7874015748031497
        },
        {
          "duration": 2,
          "durationTicks": 384,
          "midi": 72,
          "name": "C5",
          "ticks": 10368,
          "time": 54,
          "velocity": 0.7874015748031497
        },
        {
          "duration": 2,
          "durationTicks": 384,
          "midi": 73,
          "name": "C#5",
          "ticks": 10368,
          "time": 54,
          "velocity": 0.7874015748031497
        },
        {
          "duration": 2,
          "durationTicks": 384,
          "midi": 74,
          "name": "D5",
          "ticks": 10368,
          "time": 54,
          "velocity": 0.7874015748031497
        },
        {
          "duration": 2,
          "durationTicks": 384,
          "midi": 75,
          "name": "D#5",
          "ticks": 10368,
          "time": 54,
          "velocity": 0.7874015748031497
        },
        {
          "duration": 2,
          "durationTicks": 384,
          "midi": 76,
          "name": "E5",
          "ticks": 10368,
          "time": 54,
          "velocity": 0.7874015748031497
        },
        {
          "duration": 2,
          "durationTicks": 384,
          "midi": 77,
          "name": "F5",
          "ticks": 10368,
          "time": 54,
          "velocity": 0.7874015748031497
        },
        {
          "duration": 2,
          "durationTicks": 384,
          "midi": 78,
          "name": "F#5",
          "ticks": 10368,
          "time": 54,
          "velocity": 0.7874015748031497
        },
        {
          "duration": 2,
          "durationTicks": 384,
          "midi": 79,
          "name": "G5",
          "ticks": 10368,
          "time": 54,
          "velocity": 0.7874015748031497
        },
        {
          "duration": 2,
          "durationTicks": 384,
          "midi": 80,
          "name": "G#5",
          "ticks": 10368,
          "time": 54,
          "velocity": 0.7874015748031497
        },
        {
          "duration": 2,
          "durationTicks": 384,
          "midi": 81,
          "name": "A5",
          "ticks": 10368,
          "time": 54,
          "velocity": 0.7874015748031497
        },
        {
          "duration": 2,
          "durationTicks": 384,
          "midi": 82,
          "name": "A#5",
          "ticks": 10368,
          "time": 54,
          "velocity": 0.7874015748031497
        },
        {
          "duration": 2,
          "durationTicks": 384,
          "midi": 83,
          "name": "B5",
          "ticks": 10368,
          "time": 54,
          "velocity": 0.7874015748031497
        },
        {
          "duration": 2,
          "durationTicks": 384,
          "midi": 84,
          "name": "C6",
          "ticks": 10368,
          "time": 54,
          "velocity": 0.7874015748031497
        },
        {
          "duration": 0.5,
          "durationTicks": 96,
          "midi": 60,
          "name": "C4",
          "ticks": 10752,
          "time": 56,
          "velocity": 0.7874015748031497
        },
        {
          "duration": 0.5,
          "durationTicks": 96,
          "midi": 84,
          "name": "C6",
          "ticks": 10752,
          "time": 56,
          "velocity": 0.7874015748031497
        },
        {
          "duration": 0.5,
          "durationTicks": 96,
          "midi": 60,
          "name": "C4",
          "ticks": 10848,
          "time": 56.5,
          "velocity": 0.7874015748031497
        },
        {
          "duration": 0.5,
          "durationTicks": 96,
          "midi": 84,
          "name": "C6",
          "ticks": 10848,
          "time": 56.5,
          "velocity": 0.7874015748031497
        },
        {
          "duration": 0.5,
          "durationTicks": 96,
          "midi": 60,
          "name": "C4",
          "ticks": 10944,
          "time": 57,
          "velocity": 0.7874015748031497
        },
        {
          "duration": 0.5,
          "durationTicks": 96,
          "midi": 84,
          "name": "C6",
          "ticks": 10944,
          "time": 57,
          "velocity": 0.7874015748031497
        },
        {
          "duration": 0.5,
          "durationTicks": 96,
          "midi": 60,
          "name": "C4",
          "ticks": 11040,
          "time": 57.5,
          "velocity": 0.7874015748031497
        },
        {
          "duration": 0.5,
          "durationTicks": 96,
          "midi": 84,
          "name": "C6",
          "ticks": 11040,
          "time": 57.5,
          "velocity": 0.7874015748031497
        },
        {
          "duration": 0.25,
          "durationTicks": 48,
          "midi": 60,
          "name": "C4",
          "ticks": 11136,
          "time": 58,
          "velocity": 0.7874015748031497
        },
        {
          "duration": 0.25,
          "durationTicks": 48,
          "midi": 84,
          "name": "C6",
          "ticks": 11136,
          "time": 58,
          "velocity": 0.7874015748031497
        },
        {
          "duration": 0.25,
          "durationTicks": 48,
          "midi": 60,
          "name": "C4",
          "ticks": 11184,
          "time": 58.25,
          "velocity": 0.7874015748031497
        },
        {
          "duration": 0.25,
          "durationTicks": 48,
          "midi": 84,
          "name": "C6",
          "ticks": 11184,
          "time": 58.25,
          "velocity": 0.7874015748031497
        },
        {
          "duration": 0.25,
          "durationTicks": 48,
          "midi": 60,
          "name": "C4",
          "ticks": 11232,
          "time": 58.5,
          "velocity": 0.7874015748031497
        },
        {
          "duration": 0.25,
          "durationTicks": 48,
          "midi": 84,
          "name": "C6",
          "ticks": 11232,
          "time": 58.5,
          "velocity": 0.7874015748031497
        },
        {
          "duration": 0.25,
          "durationTicks": 48,
          "midi": 60,
          "name": "C4",
          "ticks": 11280,
          "time": 58.75,
          "velocity": 0.7874015748031497
        },
        {
          "duration": 0.25,
          "durationTicks": 48,
          "midi": 84,
          "name": "C6",
          "ticks": 11280,
          "time": 58.75,
          "velocity": 0.7874015748031497
        },
        {
          "duration": 0.25,
          "durationTicks": 48,
          "midi": 60,
          "name": "C4",
          "ticks": 11328,
          "time": 59,
          "velocity": 0.7874015748031497
        },
        {
          "duration": 0.25,
          "durationTicks": 48,
          "midi": 84,
          "name": "C6",
          "ticks": 11328,
          "time": 59,
          "velocity": 0.7874015748031497
        },
        {
          "duration": 0.25,
          "durationTicks": 48,
          "midi": 60,
          "name": "C4",
          "ticks": 11376,
          "time": 59.25,
          "velocity": 0.7874015748031497
        },
        {
          "duration": 0.25,
          "durationTicks": 48,
          "midi": 84,
          "name": "C6",
          "ticks": 11376,
          "time": 59.25,
          "velocity": 0.7874015748031497
        },
        {
          "duration": 0.25,
          "durationTicks": 48,
          "midi": 60,
          "name": "C4",
          "ticks": 11424,
          "time": 59.5,
          "velocity": 0.7874015748031497
        },
        {
          "duration": 0.25,
          "durationTicks": 48,
          "midi": 84,
          "name": "C6",
          "ticks": 11424,
          "time": 59.5,
          "velocity": 0.7874015748031497
        },
        {
          "duration": 0.25,
          "durationTicks": 48,
          "midi": 60,
          "name": "C4",
          "ticks": 11472,
          "time": 59.75,
          "velocity": 0.7874015748031497
        },
        {
          "duration": 0.25,
          "durationTicks": 48,
          "midi": 61,
          "name": "C#4",
          "ticks": 11472,
          "time": 59.75,
          "velocity": 0.7874015748031497
        },
        {
          "duration": 0.25,
          "durationTicks": 48,
          "midi": 62,
          "name": "D4",
          "ticks": 11472,
          "time": 59.75,
          "velocity": 0.7874015748031497
        },
        {
          "duration": 0.25,
          "durationTicks": 48,
          "midi": 63,
          "name": "D#4",
          "ticks": 11472,
          "time": 59.75,
          "velocity": 0.7874015748031497
        },
        {
          "duration": 0.25,
          "durationTicks": 48,
          "midi": 64,
          "name": "E4",
          "ticks": 11472,
          "time": 59.75,
          "velocity": 0.7874015748031497
        },
        {
          "duration": 0.25,
          "durationTicks": 48,
          "midi": 65,
          "name": "F4",
          "ticks": 11472,
          "time": 59.75,
          "velocity": 0.7874015748031497
        },
        {
          "duration": 0.25,
          "durationTicks": 48,
          "midi": 66,
          "name": "F#4",
          "ticks": 11472,
          "time": 59.75,
          "velocity": 0.7874015748031497
        },
        {
          "duration": 0.25,
          "durationTicks": 48,
          "midi": 67,
          "name": "G4",
          "ticks": 11472,
          "time": 59.75,
          "velocity": 0.7874015748031497
        },
        {
          "duration": 0.25,
          "durationTicks": 48,
          "midi": 68,
          "name": "G#4",
          "ticks": 11472,
          "time": 59.75,
          "velocity": 0.7874015748031497
        },
        {
          "duration": 0.25,
          "durationTicks": 48,
          "midi": 69,
          "name": "A4",
          "ticks": 11472,
          "time": 59.75,
          "velocity": 0.7874015748031497
        },
        {
          "duration": 0.25,
          "durationTicks": 48,
          "midi": 70,
          "name": "A#4",
          "ticks": 11472,
          "time": 59.75,
          "velocity": 0.7874015748031497
        },
        {
          "duration": 0.25,
          "durationTicks": 48,
          "midi": 71,
          "name": "B4",
          "ticks": 11472,
          "time": 59.75,
          "velocity": 0.7874015748031497
        },
        {
          "duration": 0.25,
          "durationTicks": 48,
          "midi": 72,
          "name": "C5",
          "ticks": 11472,
          "time": 59.75,
          "velocity": 0.7874015748031497
        },
        {
          "duration": 0.25,
          "durationTicks": 48,
          "midi": 73,
          "name": "C#5",
          "ticks": 11472,
          "time": 59.75,
          "velocity": 0.7874015748031497
        },
        {
          "duration": 0.25,
          "durationTicks": 48,
          "midi": 74,
          "name": "D5",
          "ticks": 11472,
          "time": 59.75,
          "velocity": 0.7874015748031497
        },
        {
          "duration": 0.25,
          "durationTicks": 48,
          "midi": 75,
          "name": "D#5",
          "ticks": 11472,
          "time": 59.75,
          "velocity": 0.7874015748031497
        },
        {
          "duration": 0.25,
          "durationTicks": 48,
          "midi": 76,
          "name": "E5",
          "ticks": 11472,
          "time": 59.75,
          "velocity": 0.7874015748031497
        },
        {
          "duration": 0.25,
          "durationTicks": 48,
          "midi": 77,
          "name": "F5",
          "ticks": 11472,
          "time": 59.75,
          "velocity": 0.7874015748031497
        },
        {
          "duration": 0.25,
          "durationTicks": 48,
          "midi": 78,
          "name": "F#5",
          "ticks": 11472,
          "time": 59.75,
          "velocity": 0.7874015748031497
        },
        {
          "duration": 0.25,
          "durationTicks": 48,
          "midi": 79,
          "name": "G5",
          "ticks": 11472,
          "time": 59.75,
          "velocity": 0.7874015748031497
        },
        {
          "duration": 0.25,
          "durationTicks": 48,
          "midi": 80,
          "name": "G#5",
          "ticks": 11472,
          "time": 59.75,
          "velocity": 0.7874015748031497
        },
        {
          "duration": 0.25,
          "durationTicks": 48,
          "midi": 81,
          "name": "A5",
          "ticks": 11472,
          "time": 59.75,
          "velocity": 0.7874015748031497
        },
        {
          "duration": 0.25,
          "durationTicks": 48,
          "midi": 82,
          "name": "A#5",
          "ticks": 11472,
          "time": 59.75,
          "velocity": 0.7874015748031497
        },
        {
          "duration": 0.25,
          "durationTicks": 48,
          "midi": 83,
          "name": "B5",
          "ticks": 11472,
          "time": 59.75,
          "velocity": 0.7874015748031497
        },
        {
          "duration": 0.25,
          "durationTicks": 48,
          "midi": 84,
          "name": "C6",
          "ticks": 11472,
          "time": 59.75,
          "velocity": 0.7874015748031497
        },
        {
          "duration": 2,
          "durationTicks": 384,
          "midi": 60,
          "name": "C4",
          "ticks": 11520,
          "time": 60,
          "velocity": 0.7874015748031497
        },
        {
          "duration": 2,
          "durationTicks": 384,
          "midi": 61,
          "name": "C#4",
          "ticks": 11520,
          "time": 60,
          "velocity": 0.7874015748031497
        },
        {
          "duration": 2,
          "durationTicks": 384,
          "midi": 62,
          "name": "D4",
          "ticks": 11520,
          "time": 60,
          "velocity": 0.7874015748031497
        },
        {
          "duration": 2,
          "durationTicks": 384,
          "midi": 63,
          "name": "D#4",
          "ticks": 11520,
          "time": 60,
          "velocity": 0.7874015748031497
        },
        {
          "duration": 2,
          "durationTicks": 384,
          "midi": 64,
          "name": "E4",
          "ticks": 11520,
          "time": 60,
          "velocity": 0.7874015748031497
        },
        {
          "duration": 2,
          "durationTicks": 384,
          "midi": 65,
          "name": "F4",
          "ticks": 11520,
          "time": 60,
          "velocity": 0.7874015748031497
        },
        {
          "duration": 2,
          "durationTicks": 384,
          "midi": 66,
          "name": "F#4",
          "ticks": 11520,
          "time": 60,
          "velocity": 0.7874015748031497
        },
        {
          "duration": 2,
          "durationTicks": 384,
          "midi": 67,
          "name": "G4",
          "ticks": 11520,
          "time": 60,
          "velocity": 0.7874015748031497
        },
        {
          "duration": 2,
          "durationTicks": 384,
          "midi": 68,
          "name": "G#4",
          "ticks": 11520,
          "time": 60,
          "velocity": 0.7874015748031497
        },
        {
          "duration": 2,
          "durationTicks": 384,
          "midi": 69,
          "name": "A4",
          "ticks": 11520,
          "time": 60,
          "velocity": 0.7874015748031497
        },
        {
          "duration": 2,
          "durationTicks": 384,
          "midi": 70,
          "name": "A#4",
          "ticks": 11520,
          "time": 60,
          "velocity": 0.7874015748031497
        },
        {
          "duration": 2,
          "durationTicks": 384,
          "midi": 71,
          "name": "B4",
          "ticks": 11520,
          "time": 60,
          "velocity": 0.7874015748031497
        },
        {
          "duration": 2,
          "durationTicks": 384,
          "midi": 72,
          "name": "C5",
          "ticks": 11520,
          "time": 60,
          "velocity": 0.7874015748031497
        },
        {
          "duration": 2,
          "durationTicks": 384,
          "midi": 73,
          "name": "C#5",
          "ticks": 11520,
          "time": 60,
          "velocity": 0.7874015748031497
        },
        {
          "duration": 2,
          "durationTicks": 384,
          "midi": 74,
          "name": "D5",
          "ticks": 11520,
          "time": 60,
          "velocity": 0.7874015748031497
        },
        {
          "duration": 2,
          "durationTicks": 384,
          "midi": 75,
          "name": "D#5",
          "ticks": 11520,
          "time": 60,
          "velocity": 0.7874015748031497
        },
        {
          "duration": 2,
          "durationTicks": 384,
          "midi": 76,
          "name": "E5",
          "ticks": 11520,
          "time": 60,
          "velocity": 0.7874015748031497
        },
        {
          "duration": 2,
          "durationTicks": 384,
          "midi": 77,
          "name": "F5",
          "ticks": 11520,
          "time": 60,
          "velocity": 0.7874015748031497
        },
        {
          "duration": 2,
          "durationTicks": 384,
          "midi": 78,
          "name": "F#5",
          "ticks": 11520,
          "time": 60,
          "velocity": 0.7874015748031497
        },
        {
          "duration": 2,
          "durationTicks": 384,
          "midi": 79,
          "name": "G5",
          "ticks": 11520,
          "time": 60,
          "velocity": 0.7874015748031497
        },
        {
          "duration": 2,
          "durationTicks": 384,
          "midi": 80,
          "name": "G#5",
          "ticks": 11520,
          "time": 60,
          "velocity": 0.7874015748031497
        },
        {
          "duration": 2,
          "durationTicks": 384,
          "midi": 81,
          "name": "A5",
          "ticks": 11520,
          "time": 60,
          "velocity": 0.7874015748031497
        },
        {
          "duration": 2,
          "durationTicks": 384,
          "midi": 82,
          "name": "A#5",
          "ticks": 11520,
          "time": 60,
          "velocity": 0.7874015748031497
        },
        {
          "duration": 2,
          "durationTicks": 384,
          "midi": 83,
          "name": "B5",
          "ticks": 11520,
          "time": 60,
          "velocity": 0.7874015748031497
        },
        {
          "duration": 2,
          "durationTicks": 384,
          "midi": 84,
          "name": "C6",
          "ticks": 11520,
          "time": 60,
          "velocity": 0.7874015748031497
        },
        {
          "duration": 0.5,
          "durationTicks": 96,
          "midi": 60,
          "name": "C4",
          "ticks": 11904,
          "time": 62,
          "velocity": 0.7874015748031497
        },
        {
          "duration": 0.5,
          "durationTicks": 96,
          "midi": 84,
          "name": "C6",
          "ticks": 11904,
          "time": 62,
          "velocity": 0.7874015748031497
        },
        {
          "duration": 0.5,
          "durationTicks": 96,
          "midi": 60,
          "name": "C4",
          "ticks": 12000,
          "time": 62.5,
          "velocity": 0.7874015748031497
        },
        {
          "duration": 0.5,
          "durationTicks": 96,
          "midi": 84,
          "name": "C6",
          "ticks": 12000,
          "time": 62.5,
          "velocity": 0.7874015748031497
        },
        {
          "duration": 0.5,
          "durationTicks": 96,
          "midi": 60,
          "name": "C4",
          "ticks": 12096,
          "time": 63,
          "velocity": 0.7874015748031497
        },
        {
          "duration": 0.5,
          "durationTicks": 96,
          "midi": 84,
          "name": "C6",
          "ticks": 12096,
          "time": 63,
          "velocity": 0.7874015748031497
        },
        {
          "duration": 0.5,
          "durationTicks": 96,
          "midi": 60,
          "name": "C4",
          "ticks": 12192,
          "time": 63.5,
          "velocity": 0.7874015748031497
        },
        {
          "duration": 0.5,
          "durationTicks": 96,
          "midi": 84,
          "name": "C6",
          "ticks": 12192,
          "time": 63.5,
          "velocity": 0.7874015748031497
        },
        {
          "duration": 0.25,
          "durationTicks": 48,
          "midi": 60,
          "name": "C4",
          "ticks": 12288,
          "time": 64,
          "velocity": 0.7874015748031497
        },
        {
          "duration": 0.25,
          "durationTicks": 48,
          "midi": 84,
          "name": "C6",
          "ticks": 12288,
          "time": 64,
          "velocity": 0.7874015748031497
        },
        {
          "duration": 0.25,
          "durationTicks": 48,
          "midi": 60,
          "name": "C4",
          "ticks": 12336,
          "time": 64.25,
          "velocity": 0.7874015748031497
        },
        {
          "duration": 0.25,
          "durationTicks": 48,
          "midi": 84,
          "name": "C6",
          "ticks": 12336,
          "time": 64.25,
          "velocity": 0.7874015748031497
        },
        {
          "duration": 0.25,
          "durationTicks": 48,
          "midi": 60,
          "name": "C4",
          "ticks": 12384,
          "time": 64.5,
          "velocity": 0.7874015748031497
        },
        {
          "duration": 0.25,
          "durationTicks": 48,
          "midi": 84,
          "name": "C6",
          "ticks": 12384,
          "time": 64.5,
          "velocity": 0.7874015748031497
        },
        {
          "duration": 0.25,
          "durationTicks": 48,
          "midi": 60,
          "name": "C4",
          "ticks": 12432,
          "time": 64.75,
          "velocity": 0.7874015748031497
        },
        {
          "duration": 0.25,
          "durationTicks": 48,
          "midi": 84,
          "name": "C6",
          "ticks": 12432,
          "time": 64.75,
          "velocity": 0.7874015748031497
        },
        {
          "duration": 0.25,
          "durationTicks": 48,
          "midi": 60,
          "name": "C4",
          "ticks": 12480,
          "time": 65,
          "velocity": 0.7874015748031497
        },
        {
          "duration": 0.25,
          "durationTicks": 48,
          "midi": 84,
          "name": "C6",
          "ticks": 12480,
          "time": 65,
          "velocity": 0.7874015748031497
        },
        {
          "duration": 0.25,
          "durationTicks": 48,
          "midi": 60,
          "name": "C4",
          "ticks": 12528,
          "time": 65.25,
          "velocity": 0.7874015748031497
        },
        {
          "duration": 0.25,
          "durationTicks": 48,
          "midi": 84,
          "name": "C6",
          "ticks": 12528,
          "time": 65.25,
          "velocity": 0.7874015748031497
        },
        {
          "duration": 0.25,
          "durationTicks": 48,
          "midi": 60,
          "name": "C4",
          "ticks": 12576,
          "time": 65.5,
          "velocity": 0.7874015748031497
        },
        {
          "duration": 0.25,
          "durationTicks": 48,
          "midi": 84,
          "name": "C6",
          "ticks": 12576,
          "time": 65.5,
          "velocity": 0.7874015748031497
        },
        {
          "duration": 0.25,
          "durationTicks": 48,
          "midi": 60,
          "name": "C4",
          "ticks": 12624,
          "time": 65.75,
          "velocity": 0.7874015748031497
        },
        {
          "duration": 0.25,
          "durationTicks": 48,
          "midi": 61,
          "name": "C#4",
          "ticks": 12624,
          "time": 65.75,
          "velocity": 0.7874015748031497
        },
        {
          "duration": 0.25,
          "durationTicks": 48,
          "midi": 62,
          "name": "D4",
          "ticks": 12624,
          "time": 65.75,
          "velocity": 0.7874015748031497
        },
        {
          "duration": 0.25,
          "durationTicks": 48,
          "midi": 63,
          "name": "D#4",
          "ticks": 12624,
          "time": 65.75,
          "velocity": 0.7874015748031497
        },
        {
          "duration": 0.25,
          "durationTicks": 48,
          "midi": 64,
          "name": "E4",
          "ticks": 12624,
          "time": 65.75,
          "velocity": 0.7874015748031497
        },
        {
          "duration": 0.25,
          "durationTicks": 48,
          "midi": 65,
          "name": "F4",
          "ticks": 12624,
          "time": 65.75,
          "velocity": 0.7874015748031497
        },
        {
          "duration": 0.25,
          "durationTicks": 48,
          "midi": 66,
          "name": "F#4",
          "ticks": 12624,
          "time": 65.75,
          "velocity": 0.7874015748031497
        },
        {
          "duration": 0.25,
          "durationTicks": 48,
          "midi": 67,
          "name": "G4",
          "ticks": 12624,
          "time": 65.75,
          "velocity": 0.7874015748031497
        },
        {
          "duration": 0.25,
          "durationTicks": 48,
          "midi": 68,
          "name": "G#4",
          "ticks": 12624,
          "time": 65.75,
          "velocity": 0.7874015748031497
        },
        {
          "duration": 0.25,
          "durationTicks": 48,
          "midi": 69,
          "name": "A4",
          "ticks": 12624,
          "time": 65.75,
          "velocity": 0.7874015748031497
        },
        {
          "duration": 0.25,
          "durationTicks": 48,
          "midi": 70,
          "name": "A#4",
          "ticks": 12624,
          "time": 65.75,
          "velocity": 0.7874015748031497
        },
        {
          "duration": 0.25,
          "durationTicks": 48,
          "midi": 71,
          "name": "B4",
          "ticks": 12624,
          "time": 65.75,
          "velocity": 0.7874015748031497
        },
        {
          "duration": 0.25,
          "durationTicks": 48,
          "midi": 72,
          "name": "C5",
          "ticks": 12624,
          "time": 65.75,
          "velocity": 0.7874015748031497
        },
        {
          "duration": 0.25,
          "durationTicks": 48,
          "midi": 73,
          "name": "C#5",
          "ticks": 12624,
          "time": 65.75,
          "velocity": 0.7874015748031497
        },
        {
          "duration": 0.25,
          "durationTicks": 48,
          "midi": 74,
          "name": "D5",
          "ticks": 12624,
          "time": 65.75,
          "velocity": 0.7874015748031497
        },
        {
          "duration": 0.25,
          "durationTicks": 48,
          "midi": 75,
          "name": "D#5",
          "ticks": 12624,
          "time": 65.75,
          "velocity": 0.7874015748031497
        },
        {
          "duration": 0.25,
          "durationTicks": 48,
          "midi": 76,
          "name": "E5",
          "ticks": 12624,
          "time": 65.75,
          "velocity": 0.7874015748031497
        },
        {
          "duration": 0.25,
          "durationTicks": 48,
          "midi": 77,
          "name": "F5",
          "ticks": 12624,
          "time": 65.75,
          "velocity": 0.7874015748031497
        },
        {
          "duration": 0.25,
          "durationTicks": 48,
          "midi": 78,
          "name": "F#5",
          "ticks": 12624,
          "time": 65.75,
          "velocity": 0.7874015748031497
        },
        {
          "duration": 0.25,
          "durationTicks": 48,
          "midi": 79,
          "name": "G5",
          "ticks": 12624,
          "time": 65.75,
          "velocity": 0.7874015748031497
        },
        {
          "duration": 0.25,
          "durationTicks": 48,
          "midi": 80,
          "name": "G#5",
          "ticks": 12624,
          "time": 65.75,
          "velocity": 0.7874015748031497
        },
        {
          "duration": 0.25,
          "durationTicks": 48,
          "midi": 81,
          "name": "A5",
          "ticks": 12624,
          "time": 65.75,
          "velocity": 0.7874015748031497
        },
        {
          "duration": 0.25,
          "durationTicks": 48,
          "midi": 82,
          "name": "A#5",
          "ticks": 12624,
          "time": 65.75,
          "velocity": 0.7874015748031497
        },
        {
          "duration": 0.25,
          "durationTicks": 48,
          "midi": 83,
          "name": "B5",
          "ticks": 12624,
          "time": 65.75,
          "velocity": 0.7874015748031497
        },
        {
          "duration": 0.25,
          "durationTicks": 48,
          "midi": 84,
          "name": "C6",
          "ticks": 12624,
          "time": 65.75,
          "velocity": 0.7874015748031497
        },
        {
          "duration": 2,
          "durationTicks": 384,
          "midi": 60,
          "name": "C4",
          "ticks": 12672,
          "time": 66,
          "velocity": 0.7874015748031497
        },
        {
          "duration": 2,
          "durationTicks": 384,
          "midi": 61,
          "name": "C#4",
          "ticks": 12672,
          "time": 66,
          "velocity": 0.7874015748031497
        },
        {
          "duration": 2,
          "durationTicks": 384,
          "midi": 62,
          "name": "D4",
          "ticks": 12672,
          "time": 66,
          "velocity": 0.7874015748031497
        },
        {
          "duration": 2,
          "durationTicks": 384,
          "midi": 63,
          "name": "D#4",
          "ticks": 12672,
          "time": 66,
          "velocity": 0.7874015748031497
        },
        {
          "duration": 2,
          "durationTicks": 384,
          "midi": 64,
          "name": "E4",
          "ticks": 12672,
          "time": 66,
          "velocity": 0.7874015748031497
        },
        {
          "duration": 2,
          "durationTicks": 384,
          "midi": 65,
          "name": "F4",
          "ticks": 12672,
          "time": 66,
          "velocity": 0.7874015748031497
        },
        {
          "duration": 2,
          "durationTicks": 384,
          "midi": 66,
          "name": "F#4",
          "ticks": 12672,
          "time": 66,
          "velocity": 0.7874015748031497
        },
        {
          "duration": 2,
          "durationTicks": 384,
          "midi": 67,
          "name": "G4",
          "ticks": 12672,
          "time": 66,
          "velocity": 0.7874015748031497
        },
        {
          "duration": 2,
          "durationTicks": 384,
          "midi": 68,
          "name": "G#4",
          "ticks": 12672,
          "time": 66,
          "velocity": 0.7874015748031497
        },
        {
          "duration": 2,
          "durationTicks": 384,
          "midi": 69,
          "name": "A4",
          "ticks": 12672,
          "time": 66,
          "velocity": 0.7874015748031497
        },
        {
          "duration": 2,
          "durationTicks": 384,
          "midi": 70,
          "name": "A#4",
          "ticks": 12672,
          "time": 66,
          "velocity": 0.7874015748031497
        },
        {
          "duration": 2,
          "durationTicks": 384,
          "midi": 71,
          "name": "B4",
          "ticks": 12672,
          "time": 66,
          "velocity": 0.7874015748031497
        },
        {
          "duration": 2,
          "durationTicks": 384,
          "midi": 72,
          "name": "C5",
          "ticks": 12672,
          "time": 66,
          "velocity": 0.7874015748031497
        },
        {
          "duration": 2,
          "durationTicks": 384,
          "midi": 73,
          "name": "C#5",
          "ticks": 12672,
          "time": 66,
          "velocity": 0.7874015748031497
        },
        {
          "duration": 2,
          "durationTicks": 384,
          "midi": 74,
          "name": "D5",
          "ticks": 12672,
          "time": 66,
          "velocity": 0.7874015748031497
        },
        {
          "duration": 2,
          "durationTicks": 384,
          "midi": 75,
          "name": "D#5",
          "ticks": 12672,
          "time": 66,
          "velocity": 0.7874015748031497
        },
        {
          "duration": 2,
          "durationTicks": 384,
          "midi": 76,
          "name": "E5",
          "ticks": 12672,
          "time": 66,
          "velocity": 0.7874015748031497
        },
        {
          "duration": 2,
          "durationTicks": 384,
          "midi": 77,
          "name": "F5",
          "ticks": 12672,
          "time": 66,
          "velocity": 0.7874015748031497
        },
        {
          "duration": 2,
          "durationTicks": 384,
          "midi": 78,
          "name": "F#5",
          "ticks": 12672,
          "time": 66,
          "velocity": 0.7874015748031497
        },
        {
          "duration": 2,
          "durationTicks": 384,
          "midi": 79,
          "name": "G5",
          "ticks": 12672,
          "time": 66,
          "velocity": 0.7874015748031497
        },
        {
          "duration": 2,
          "durationTicks": 384,
          "midi": 80,
          "name": "G#5",
          "ticks": 12672,
          "time": 66,
          "velocity": 0.7874015748031497
        },
        {
          "duration": 2,
          "durationTicks": 384,
          "midi": 81,
          "name": "A5",
          "ticks": 12672,
          "time": 66,
          "velocity": 0.7874015748031497
        },
        {
          "duration": 2,
          "durationTicks": 384,
          "midi": 82,
          "name": "A#5",
          "ticks": 12672,
          "time": 66,
          "velocity": 0.7874015748031497
        },
        {
          "duration": 2,
          "durationTicks": 384,
          "midi": 83,
          "name": "B5",
          "ticks": 12672,
          "time": 66,
          "velocity": 0.7874015748031497
        },
        {
          "duration": 2,
          "durationTicks": 384,
          "midi": 84,
          "name": "C6",
          "ticks": 12672,
          "time": 66,
          "velocity": 0.7874015748031497
        },
        {
          "duration": 0.5,
          "durationTicks": 96,
          "midi": 60,
          "name": "C4",
          "ticks": 13056,
          "time": 68,
          "velocity": 0.7874015748031497
        },
        {
          "duration": 0.5,
          "durationTicks": 96,
          "midi": 84,
          "name": "C6",
          "ticks": 13056,
          "time": 68,
          "velocity": 0.7874015748031497
        },
        {
          "duration": 0.5,
          "durationTicks": 96,
          "midi": 60,
          "name": "C4",
          "ticks": 13152,
          "time": 68.5,
          "velocity": 0.7874015748031497
        },
        {
          "duration": 0.5,
          "durationTicks": 96,
          "midi": 84,
          "name": "C6",
          "ticks": 13152,
          "time": 68.5,
          "velocity": 0.7874015748031497
        },
        {
          "duration": 0.5,
          "durationTicks": 96,
          "midi": 60,
          "name": "C4",
          "ticks": 13248,
          "time": 69,
          "velocity": 0.7874015748031497
        },
        {
          "duration": 0.5,
          "durationTicks": 96,
          "midi": 84,
          "name": "C6",
          "ticks": 13248,
          "time": 69,
          "velocity": 0.7874015748031497
        },
        {
          "duration": 0.5,
          "durationTicks": 96,
          "midi": 60,
          "name": "C4",
          "ticks": 13344,
          "time": 69.5,
          "velocity": 0.7874015748031497
        },
        {
          "duration": 0.5,
          "durationTicks": 96,
          "midi": 84,
          "name": "C6",
          "ticks": 13344,
          "time": 69.5,
          "velocity": 0.7874015748031497
        },
        {
          "duration": 0.25,
          "durationTicks": 48,
          "midi": 60,
          "name": "C4",
          "ticks": 13440,
          "time": 70,
          "velocity": 0.7874015748031497
        },
        {
          "duration": 0.25,
          "durationTicks": 48,
          "midi": 84,
          "name": "C6",
          "ticks": 13440,
          "time": 70,
          "velocity": 0.7874015748031497
        },
        {
          "duration": 0.25,
          "durationTicks": 48,
          "midi": 60,
          "name": "C4",
          "ticks": 13488,
          "time": 70.25,
          "velocity": 0.7874015748031497
        },
        {
          "duration": 0.25,
          "durationTicks": 48,
          "midi": 84,
          "name": "C6",
          "ticks": 13488,
          "time": 70.25,
          "velocity": 0.7874015748031497
        },
        {
          "duration": 0.25,
          "durationTicks": 48,
          "midi": 60,
          "name": "C4",
          "ticks": 13536,
          "time": 70.5,
          "velocity": 0.7874015748031497
        },
        {
          "duration": 0.25,
          "durationTicks": 48,
          "midi": 84,
          "name": "C6",
          "ticks": 13536,
          "time": 70.5,
          "velocity": 0.7874015748031497
        },
        {
          "duration": 0.25,
          "durationTicks": 48,
          "midi": 60,
          "name": "C4",
          "ticks": 13584,
          "time": 70.75,
          "velocity": 0.7874015748031497
        },
        {
          "duration": 0.25,
          "durationTicks": 48,
          "midi": 84,
          "name": "C6",
          "ticks": 13584,
          "time": 70.75,
          "velocity": 0.7874015748031497
        },
        {
          "duration": 0.25,
          "durationTicks": 48,
          "midi": 60,
          "name": "C4",
          "ticks": 13632,
          "time": 71,
          "velocity": 0.7874015748031497
        },
        {
          "duration": 0.25,
          "durationTicks": 48,
          "midi": 84,
          "name": "C6",
          "ticks": 13632,
          "time": 71,
          "velocity": 0.7874015748031497
        },
        {
          "duration": 0.25,
          "durationTicks": 48,
          "midi": 60,
          "name": "C4",
          "ticks": 13680,
          "time": 71.25,
          "velocity": 0.7874015748031497
        },
        {
          "duration": 0.25,
          "durationTicks": 48,
          "midi": 84,
          "name": "C6",
          "ticks": 13680,
          "time": 71.25,
          "velocity": 0.7874015748031497
        },
        {
          "duration": 0.25,
          "durationTicks": 48,
          "midi": 60,
          "name": "C4",
          "ticks": 13728,
          "time": 71.5,
          "velocity": 0.7874015748031497
        },
        {
          "duration": 0.25,
          "durationTicks": 48,
          "midi": 84,
          "name": "C6",
          "ticks": 13728,
          "time": 71.5,
          "velocity": 0.7874015748031497
        },
        {
          "duration": 0.25,
          "durationTicks": 48,
          "midi": 60,
          "name": "C4",
          "ticks": 13776,
          "time": 71.75,
          "velocity": 0.7874015748031497
        },
        {
          "duration": 0.25,
          "durationTicks": 48,
          "midi": 61,
          "name": "C#4",
          "ticks": 13776,
          "time": 71.75,
          "velocity": 0.7874015748031497
        },
        {
          "duration": 0.25,
          "durationTicks": 48,
          "midi": 62,
          "name": "D4",
          "ticks": 13776,
          "time": 71.75,
          "velocity": 0.7874015748031497
        },
        {
          "duration": 0.25,
          "durationTicks": 48,
          "midi": 63,
          "name": "D#4",
          "ticks": 13776,
          "time": 71.75,
          "velocity": 0.7874015748031497
        },
        {
          "duration": 0.25,
          "durationTicks": 48,
          "midi": 64,
          "name": "E4",
          "ticks": 13776,
          "time": 71.75,
          "velocity": 0.7874015748031497
        },
        {
          "duration": 0.25,
          "durationTicks": 48,
          "midi": 65,
          "name": "F4",
          "ticks": 13776,
          "time": 71.75,
          "velocity": 0.7874015748031497
        },
        {
          "duration": 0.25,
          "durationTicks": 48,
          "midi": 66,
          "name": "F#4",
          "ticks": 13776,
          "time": 71.75,
          "velocity": 0.7874015748031497
        },
        {
          "duration": 0.25,
          "durationTicks": 48,
          "midi": 67,
          "name": "G4",
          "ticks": 13776,
          "time": 71.75,
          "velocity": 0.7874015748031497
        },
        {
          "duration": 0.25,
          "durationTicks": 48,
          "midi": 68,
          "name": "G#4",
          "ticks": 13776,
          "time": 71.75,
          "velocity": 0.7874015748031497
        },
        {
          "duration": 0.25,
          "durationTicks": 48,
          "midi": 69,
          "name": "A4",
          "ticks": 13776,
          "time": 71.75,
          "velocity": 0.7874015748031497
        },
        {
          "duration": 0.25,
          "durationTicks": 48,
          "midi": 70,
          "name": "A#4",
          "ticks": 13776,
          "time": 71.75,
          "velocity": 0.7874015748031497
        },
        {
          "duration": 0.25,
          "durationTicks": 48,
          "midi": 71,
          "name": "B4",
          "ticks": 13776,
          "time": 71.75,
          "velocity": 0.7874015748031497
        },
        {
          "duration": 0.25,
          "durationTicks": 48,
          "midi": 72,
          "name": "C5",
          "ticks": 13776,
          "time": 71.75,
          "velocity": 0.7874015748031497
        },
        {
          "duration": 0.25,
          "durationTicks": 48,
          "midi": 73,
          "name": "C#5",
          "ticks": 13776,
          "time": 71.75,
          "velocity": 0.7874015748031497
        },
        {
          "duration": 0.25,
          "durationTicks": 48,
          "midi": 74,
          "name": "D5",
          "ticks": 13776,
          "time": 71.75,
          "velocity": 0.7874015748031497
        },
        {
          "duration": 0.25,
          "durationTicks": 48,
          "midi": 75,
          "name": "D#5",
          "ticks": 13776,
          "time": 71.75,
          "velocity": 0.7874015748031497
        },
        {
          "duration": 0.25,
          "durationTicks": 48,
          "midi": 76,
          "name": "E5",
          "ticks": 13776,
          "time": 71.75,
          "velocity": 0.7874015748031497
        },
        {
          "duration": 0.25,
          "durationTicks": 48,
          "midi": 77,
          "name": "F5",
          "ticks": 13776,
          "time": 71.75,
          "velocity": 0.7874015748031497
        },
        {
          "duration": 0.25,
          "durationTicks": 48,
          "midi": 78,
          "name": "F#5",
          "ticks": 13776,
          "time": 71.75,
          "velocity": 0.7874015748031497
        },
        {
          "duration": 0.25,
          "durationTicks": 48,
          "midi": 79,
          "name": "G5",
          "ticks": 13776,
          "time": 71.75,
          "velocity": 0.7874015748031497
        },
        {
          "duration": 0.25,
          "durationTicks": 48,
          "midi": 80,
          "name": "G#5",
          "ticks": 13776,
          "time": 71.75,
          "velocity": 0.7874015748031497
        },
        {
          "duration": 0.25,
          "durationTicks": 48,
          "midi": 81,
          "name": "A5",
          "ticks": 13776,
          "time": 71.75,
          "velocity": 0.7874015748031497
        },
        {
          "duration": 0.25,
          "durationTicks": 48,
          "midi": 82,
          "name": "A#5",
          "ticks": 13776,
          "time": 71.75,
          "velocity": 0.7874015748031497
        },
        {
          "duration": 0.25,
          "durationTicks": 48,
          "midi": 83,
          "name": "B5",
          "ticks": 13776,
          "time": 71.75,
          "velocity": 0.7874015748031497
        },
        {
          "duration": 0.25,
          "durationTicks": 48,
          "midi": 84,
          "name": "C6",
          "ticks": 13776,
          "time": 71.75,
          "velocity": 0.7874015748031497
        },
        {
          "duration": 2,
          "durationTicks": 384,
          "midi": 60,
          "name": "C4",
          "ticks": 13824,
          "time": 72,
          "velocity": 0.7874015748031497
        },
        {
          "duration": 2,
          "durationTicks": 384,
          "midi": 61,
          "name": "C#4",
          "ticks": 13824,
          "time": 72,
          "velocity": 0.7874015748031497
        },
        {
          "duration": 2,
          "durationTicks": 384,
          "midi": 62,
          "name": "D4",
          "ticks": 13824,
          "time": 72,
          "velocity": 0.7874015748031497
        },
        {
          "duration": 2,
          "durationTicks": 384,
          "midi": 63,
          "name": "D#4",
          "ticks": 13824,
          "time": 72,
          "velocity": 0.7874015748031497
        },
        {
          "duration": 2,
          "durationTicks": 384,
          "midi": 64,
          "name": "E4",
          "ticks": 13824,
          "time": 72,
          "velocity": 0.7874015748031497
        },
        {
          "duration": 2,
          "durationTicks": 384,
          "midi": 65,
          "name": "F4",
          "ticks": 13824,
          "time": 72,
          "velocity": 0.7874015748031497
        },
        {
          "duration": 2,
          "durationTicks": 384,
          "midi": 66,
          "name": "F#4",
          "ticks": 13824,
          "time": 72,
          "velocity": 0.7874015748031497
        },
        {
          "duration": 2,
          "durationTicks": 384,
          "midi": 67,
          "name": "G4",
          "ticks": 13824,
          "time": 72,
          "velocity": 0.7874015748031497
        },
        {
          "duration": 2,
          "durationTicks": 384,
          "midi": 68,
          "name": "G#4",
          "ticks": 13824,
          "time": 72,
          "velocity": 0.7874015748031497
        },
        {
          "duration": 2,
          "durationTicks": 384,
          "midi": 69,
          "name": "A4",
          "ticks": 13824,
          "time": 72,
          "velocity": 0.7874015748031497
        },
        {
          "duration": 2,
          "durationTicks": 384,
          "midi": 70,
          "name": "A#4",
          "ticks": 13824,
          "time": 72,
          "velocity": 0.7874015748031497
        },
        {
          "duration": 2,
          "durationTicks": 384,
          "midi": 71,
          "name": "B4",
          "ticks": 13824,
          "time": 72,
          "velocity": 0.7874015748031497
        },
        {
          "duration": 2,
          "durationTicks": 384,
          "midi": 72,
          "name": "C5",
          "ticks": 13824,
          "time": 72,
          "velocity": 0.7874015748031497
        },
        {
          "duration": 2,
          "durationTicks": 384,
          "midi": 73,
          "name": "C#5",
          "ticks": 13824,
          "time": 72,
          "velocity": 0.7874015748031497
        },
        {
          "duration": 2,
          "durationTicks": 384,
          "midi": 74,
          "name": "D5",
          "ticks": 13824,
          "time": 72,
          "velocity": 0.7874015748031497
        },
        {
          "duration": 2,
          "durationTicks": 384,
          "midi": 75,
          "name": "D#5",
          "ticks": 13824,
          "time": 72,
          "velocity": 0.7874015748031497
        },
        {
          "duration": 2,
          "durationTicks": 384,
          "midi": 76,
          "name": "E5",
          "ticks": 13824,
          "time": 72,
          "velocity": 0.7874015748031497
        },
        {
          "duration": 2,
          "durationTicks": 384,
          "midi": 77,
          "name": "F5",
          "ticks": 13824,
          "time": 72,
          "velocity": 0.7874015748031497
        },
        {
          "duration": 2,
          "durationTicks": 384,
          "midi": 78,
          "name": "F#5",
          "ticks": 13824,
          "time": 72,
          "velocity": 0.7874015748031497
        },
        {
          "duration": 2,
          "durationTicks": 384,
          "midi": 79,
          "name": "G5",
          "ticks": 13824,
          "time": 72,
          "velocity": 0.7874015748031497
        },
        {
          "duration": 2,
          "durationTicks": 384,
          "midi": 80,
          "name": "G#5",
          "ticks": 13824,
          "time": 72,
          "velocity": 0.7874015748031497
        },
        {
          "duration": 2,
          "durationTicks": 384,
          "midi": 81,
          "name": "A5",
          "ticks": 13824,
          "time": 72,
          "velocity": 0.7874015748031497
        },
        {
          "duration": 2,
          "durationTicks": 384,
          "midi": 82,
          "name": "A#5",
          "ticks": 13824,
          "time": 72,
          "velocity": 0.7874015748031497
        },
        {
          "duration": 2,
          "durationTicks": 384,
          "midi": 83,
          "name": "B5",
          "ticks": 13824,
          "time": 72,
          "velocity": 0.7874015748031497
        },
        {
          "duration": 2,
          "durationTicks": 384,
          "midi": 84,
          "name": "C6",
          "ticks": 13824,
          "time": 72,
          "velocity": 0.7874015748031497
        },
        {
          "duration": 0.5,
          "durationTicks": 96,
          "midi": 60,
          "name": "C4",
          "ticks": 14208,
          "time": 74,
          "velocity": 0.7874015748031497
        },
        {
          "duration": 0.5,
          "durationTicks": 96,
          "midi": 84,
          "name": "C6",
          "ticks": 14208,
          "time": 74,
          "velocity": 0.7874015748031497
        },
        {
          "duration": 0.5,
          "durationTicks": 96,
          "midi": 60,
          "name": "C4",
          "ticks": 14304,
          "time": 74.5,
          "velocity": 0.7874015748031497
        },
        {
          "duration": 0.5,
          "durationTicks": 96,
          "midi": 84,
          "name": "C6",
          "ticks": 14304,
          "time": 74.5,
          "velocity": 0.7874015748031497
        },
        {
          "duration": 0.5,
          "durationTicks": 96,
          "midi": 60,
          "name": "C4",
          "ticks": 14400,
          "time": 75,
          "velocity": 0.7874015748031497
        },
        {
          "duration": 0.5,
          "durationTicks": 96,
          "midi": 84,
          "name": "C6",
          "ticks": 14400,
          "time": 75,
          "velocity": 0.7874015748031497
        },
        {
          "duration": 0.5,
          "durationTicks": 96,
          "midi": 60,
          "name": "C4",
          "ticks": 14496,
          "time": 75.5,
          "velocity": 0.7874015748031497
        },
        {
          "duration": 0.5,
          "durationTicks": 96,
          "midi": 84,
          "name": "C6",
          "ticks": 14496,
          "time": 75.5,
          "velocity": 0.7874015748031497
        },
        {
          "duration": 0.25,
          "durationTicks": 48,
          "midi": 60,
          "name": "C4",
          "ticks": 14592,
          "time": 76,
          "velocity": 0.7874015748031497
        },
        {
          "duration": 0.25,
          "durationTicks": 48,
          "midi": 84,
          "name": "C6",
          "ticks": 14592,
          "time": 76,
          "velocity": 0.7874015748031497
        },
        {
          "duration": 0.25,
          "durationTicks": 48,
          "midi": 60,
          "name": "C4",
          "ticks": 14640,
          "time": 76.25,
          "velocity": 0.7874015748031497
        },
        {
          "duration": 0.25,
          "durationTicks": 48,
          "midi": 84,
          "name": "C6",
          "ticks": 14640,
          "time": 76.25,
          "velocity": 0.7874015748031497
        },
        {
          "duration": 0.25,
          "durationTicks": 48,
          "midi": 60,
          "name": "C4",
          "ticks": 14688,
          "time": 76.5,
          "velocity": 0.7874015748031497
        },
        {
          "duration": 0.25,
          "durationTicks": 48,
          "midi": 84,
          "name": "C6",
          "ticks": 14688,
          "time": 76.5,
          "velocity": 0.7874015748031497
        },
        {
          "duration": 0.25,
          "durationTicks": 48,
          "midi": 60,
          "name": "C4",
          "ticks": 14736,
          "time": 76.75,
          "velocity": 0.7874015748031497
        },
        {
          "duration": 0.25,
          "durationTicks": 48,
          "midi": 84,
          "name": "C6",
          "ticks": 14736,
          "time": 76.75,
          "velocity": 0.7874015748031497
        },
        {
          "duration": 0.25,
          "durationTicks": 48,
          "midi": 60,
          "name": "C4",
          "ticks": 14784,
          "time": 77,
          "velocity": 0.7874015748031497
        },
        {
          "duration": 0.25,
          "durationTicks": 48,
          "midi": 84,
          "name": "C6",
          "ticks": 14784,
          "time": 77,
          "velocity": 0.7874015748031497
        },
        {
          "duration": 0.25,
          "durationTicks": 48,
          "midi": 60,
          "name": "C4",
          "ticks": 14832,
          "time": 77.25,
          "velocity": 0.7874015748031497
        },
        {
          "duration": 0.25,
          "durationTicks": 48,
          "midi": 84,
          "name": "C6",
          "ticks": 14832,
          "time": 77.25,
          "velocity": 0.7874015748031497
        },
        {
          "duration": 0.25,
          "durationTicks": 48,
          "midi": 60,
          "name": "C4",
          "ticks": 14880,
          "time": 77.5,
          "velocity": 0.7874015748031497
        },
        {
          "duration": 0.25,
          "durationTicks": 48,
          "midi": 84,
          "name": "C6",
          "ticks": 14880,
          "time": 77.5,
          "velocity": 0.7874015748031497
        },
        {
          "duration": 0.25,
          "durationTicks": 48,
          "midi": 60,
          "name": "C4",
          "ticks": 14928,
          "time": 77.75,
          "velocity": 0.7874015748031497
        },
        {
          "duration": 0.25,
          "durationTicks": 48,
          "midi": 61,
          "name": "C#4",
          "ticks": 14928,
          "time": 77.75,
          "velocity": 0.7874015748031497
        },
        {
          "duration": 0.25,
          "durationTicks": 48,
          "midi": 62,
          "name": "D4",
          "ticks": 14928,
          "time": 77.75,
          "velocity": 0.7874015748031497
        },
        {
          "duration": 0.25,
          "durationTicks": 48,
          "midi": 63,
          "name": "D#4",
          "ticks": 14928,
          "time": 77.75,
          "velocity": 0.7874015748031497
        },
        {
          "duration": 0.25,
          "durationTicks": 48,
          "midi": 64,
          "name": "E4",
          "ticks": 14928,
          "time": 77.75,
          "velocity": 0.7874015748031497
        },
        {
          "duration": 0.25,
          "durationTicks": 48,
          "midi": 65,
          "name": "F4",
          "ticks": 14928,
          "time": 77.75,
          "velocity": 0.7874015748031497
        },
        {
          "duration": 0.25,
          "durationTicks": 48,
          "midi": 66,
          "name": "F#4",
          "ticks": 14928,
          "time": 77.75,
          "velocity": 0.7874015748031497
        },
        {
          "duration": 0.25,
          "durationTicks": 48,
          "midi": 67,
          "name": "G4",
          "ticks": 14928,
          "time": 77.75,
          "velocity": 0.7874015748031497
        },
        {
          "duration": 0.25,
          "durationTicks": 48,
          "midi": 68,
          "name": "G#4",
          "ticks": 14928,
          "time": 77.75,
          "velocity": 0.7874015748031497
        },
        {
          "duration": 0.25,
          "durationTicks": 48,
          "midi": 69,
          "name": "A4",
          "ticks": 14928,
          "time": 77.75,
          "velocity": 0.7874015748031497
        },
        {
          "duration": 0.25,
          "durationTicks": 48,
          "midi": 70,
          "name": "A#4",
          "ticks": 14928,
          "time": 77.75,
          "velocity": 0.7874015748031497
        },
        {
          "duration": 0.25,
          "durationTicks": 48,
          "midi": 71,
          "name": "B4",
          "ticks": 14928,
          "time": 77.75,
          "velocity": 0.7874015748031497
        },
        {
          "duration": 0.25,
          "durationTicks": 48,
          "midi": 72,
          "name": "C5",
          "ticks": 14928,
          "time": 77.75,
          "velocity": 0.7874015748031497
        },
        {
          "duration": 0.25,
          "durationTicks": 48,
          "midi": 73,
          "name": "C#5",
          "ticks": 14928,
          "time": 77.75,
          "velocity": 0.7874015748031497
        },
        {
          "duration": 0.25,
          "durationTicks": 48,
          "midi": 74,
          "name": "D5",
          "ticks": 14928,
          "time": 77.75,
          "velocity": 0.7874015748031497
        },
        {
          "duration": 0.25,
          "durationTicks": 48,
          "midi": 75,
          "name": "D#5",
          "ticks": 14928,
          "time": 77.75,
          "velocity": 0.7874015748031497
        },
        {
          "duration": 0.25,
          "durationTicks": 48,
          "midi": 76,
          "name": "E5",
          "ticks": 14928,
          "time": 77.75,
          "velocity": 0.7874015748031497
        },
        {
          "duration": 0.25,
          "durationTicks": 48,
          "midi": 77,
          "name": "F5",
          "ticks": 14928,
          "time": 77.75,
          "velocity": 0.7874015748031497
        },
        {
          "duration": 0.25,
          "durationTicks": 48,
          "midi": 78,
          "name": "F#5",
          "ticks": 14928,
          "time": 77.75,
          "velocity": 0.7874015748031497
        },
        {
          "duration": 0.25,
          "durationTicks": 48,
          "midi": 79,
          "name": "G5",
          "ticks": 14928,
          "time": 77.75,
          "velocity": 0.7874015748031497
        },
        {
          "duration": 0.25,
          "durationTicks": 48,
          "midi": 80,
          "name": "G#5",
          "ticks": 14928,
          "time": 77.75,
          "velocity": 0.7874015748031497
        },
        {
          "duration": 0.25,
          "durationTicks": 48,
          "midi": 81,
          "name": "A5",
          "ticks": 14928,
          "time": 77.75,
          "velocity": 0.7874015748031497
        },
        {
          "duration": 0.25,
          "durationTicks": 48,
          "midi": 82,
          "name": "A#5",
          "ticks": 14928,
          "time": 77.75,
          "velocity": 0.7874015748031497
        },
        {
          "duration": 0.25,
          "durationTicks": 48,
          "midi": 83,
          "name": "B5",
          "ticks": 14928,
          "time": 77.75,
          "velocity": 0.7874015748031497
        },
        {
          "duration": 0.25,
          "durationTicks": 48,
          "midi": 84,
          "name": "C6",
          "ticks": 14928,
          "time": 77.75,
          "velocity": 0.7874015748031497
        },
        {
          "duration": 2,
          "durationTicks": 384,
          "midi": 60,
          "name": "C4",
          "ticks": 14976,
          "time": 78,
          "velocity": 0.7874015748031497
        },
        {
          "duration": 2,
          "durationTicks": 384,
          "midi": 61,
          "name": "C#4",
          "ticks": 14976,
          "time": 78,
          "velocity": 0.7874015748031497
        },
        {
          "duration": 2,
          "durationTicks": 384,
          "midi": 62,
          "name": "D4",
          "ticks": 14976,
          "time": 78,
          "velocity": 0.7874015748031497
        },
        {
          "duration": 2,
          "durationTicks": 384,
          "midi": 63,
          "name": "D#4",
          "ticks": 14976,
          "time": 78,
          "velocity": 0.7874015748031497
        },
        {
          "duration": 2,
          "durationTicks": 384,
          "midi": 64,
          "name": "E4",
          "ticks": 14976,
          "time": 78,
          "velocity": 0.7874015748031497
        },
        {
          "duration": 2,
          "durationTicks": 384,
          "midi": 65,
          "name": "F4",
          "ticks": 14976,
          "time": 78,
          "velocity": 0.7874015748031497
        },
        {
          "duration": 2,
          "durationTicks": 384,
          "midi": 66,
          "name": "F#4",
          "ticks": 14976,
          "time": 78,
          "velocity": 0.7874015748031497
        },
        {
          "duration": 2,
          "durationTicks": 384,
          "midi": 67,
          "name": "G4",
          "ticks": 14976,
          "time": 78,
          "velocity": 0.7874015748031497
        },
        {
          "duration": 2,
          "durationTicks": 384,
          "midi": 68,
          "name": "G#4",
          "ticks": 14976,
          "time": 78,
          "velocity": 0.7874015748031497
        },
        {
          "duration": 2,
          "durationTicks": 384,
          "midi": 69,
          "name": "A4",
          "ticks": 14976,
          "time": 78,
          "velocity": 0.7874015748031497
        },
        {
          "duration": 2,
          "durationTicks": 384,
          "midi": 70,
          "name": "A#4",
          "ticks": 14976,
          "time": 78,
          "velocity": 0.7874015748031497
        },
        {
          "duration": 2,
          "durationTicks": 384,
          "midi": 71,
          "name": "B4",
          "ticks": 14976,
          "time": 78,
          "velocity": 0.7874015748031497
        },
        {
          "duration": 2,
          "durationTicks": 384,
          "midi": 72,
          "name": "C5",
          "ticks": 14976,
          "time": 78,
          "velocity": 0.7874015748031497
        },
        {
          "duration": 2,
          "durationTicks": 384,
          "midi": 73,
          "name": "C#5",
          "ticks": 14976,
          "time": 78,
          "velocity": 0.7874015748031497
        },
        {
          "duration": 2,
          "durationTicks": 384,
          "midi": 74,
          "name": "D5",
          "ticks": 14976,
          "time": 78,
          "velocity": 0.7874015748031497
        },
        {
          "duration": 2,
          "durationTicks": 384,
          "midi": 75,
          "name": "D#5",
          "ticks": 14976,
          "time": 78,
          "velocity": 0.7874015748031497
        },
        {
          "duration": 2,
          "durationTicks": 384,
          "midi": 76,
          "name": "E5",
          "ticks": 14976,
          "time": 78,
          "velocity": 0.7874015748031497
        },
        {
          "duration": 2,
          "durationTicks": 384,
          "midi": 77,
          "name": "F5",
          "ticks": 14976,
          "time": 78,
          "velocity": 0.7874015748031497
        },
        {
          "duration": 2,
          "durationTicks": 384,
          "midi": 78,
          "name": "F#5",
          "ticks": 14976,
          "time": 78,
          "velocity": 0.7874015748031497
        },
        {
          "duration": 2,
          "durationTicks": 384,
          "midi": 79,
          "name": "G5",
          "ticks": 14976,
          "time": 78,
          "velocity": 0.7874015748031497
        },
        {
          "duration": 2,
          "durationTicks": 384,
          "midi": 80,
          "name": "G#5",
          "ticks": 14976,
          "time": 78,
          "velocity": 0.7874015748031497
        },
        {
          "duration": 2,
          "durationTicks": 384,
          "midi": 81,
          "name": "A5",
          "ticks": 14976,
          "time": 78,
          "velocity": 0.7874015748031497
        },
        {
          "duration": 2,
          "durationTicks": 384,
          "midi": 82,
          "name": "A#5",
          "ticks": 14976,
          "time": 78,
          "velocity": 0.7874015748031497
        },
        {
          "duration": 2,
          "durationTicks": 384,
          "midi": 83,
          "name": "B5",
          "ticks": 14976,
          "time": 78,
          "velocity": 0.7874015748031497
        },
        {
          "duration": 2,
          "durationTicks": 384,
          "midi": 84,
          "name": "C6",
          "ticks": 14976,
          "time": 78,
          "velocity": 0.7874015748031497
        },
        {
          "duration": 0.5,
          "durationTicks": 96,
          "midi": 60,
          "name": "C4",
          "ticks": 15360,
          "time": 80,
          "velocity": 0.7874015748031497
        },
        {
          "duration": 0.5,
          "durationTicks": 96,
          "midi": 84,
          "name": "C6",
          "ticks": 15360,
          "time": 80,
          "velocity": 0.7874015748031497
        },
        {
          "duration": 0.5,
          "durationTicks": 96,
          "midi": 60,
          "name": "C4",
          "ticks": 15456,
          "time": 80.5,
          "velocity": 0.7874015748031497
        },
        {
          "duration": 0.5,
          "durationTicks": 96,
          "midi": 84,
          "name": "C6",
          "ticks": 15456,
          "time": 80.5,
          "velocity": 0.7874015748031497
        },
        {
          "duration": 0.5,
          "durationTicks": 96,
          "midi": 60,
          "name": "C4",
          "ticks": 15552,
          "time": 81,
          "velocity": 0.7874015748031497
        },
        {
          "duration": 0.5,
          "durationTicks": 96,
          "midi": 84,
          "name": "C6",
          "ticks": 15552,
          "time": 81,
          "velocity": 0.7874015748031497
        },
        {
          "duration": 0.5,
          "durationTicks": 96,
          "midi": 60,
          "name": "C4",
          "ticks": 15648,
          "time": 81.5,
          "velocity": 0.7874015748031497
        },
        {
          "duration": 0.5,
          "durationTicks": 96,
          "midi": 84,
          "name": "C6",
          "ticks": 15648,
          "time": 81.5,
          "velocity": 0.7874015748031497
        },
        {
          "duration": 0.25,
          "durationTicks": 48,
          "midi": 60,
          "name": "C4",
          "ticks": 15744,
          "time": 82,
          "velocity": 0.7874015748031497
        },
        {
          "duration": 0.25,
          "durationTicks": 48,
          "midi": 84,
          "name": "C6",
          "ticks": 15744,
          "time": 82,
          "velocity": 0.7874015748031497
        },
        {
          "duration": 0.25,
          "durationTicks": 48,
          "midi": 60,
          "name": "C4",
          "ticks": 15792,
          "time": 82.25,
          "velocity": 0.7874015748031497
        },
        {
          "duration": 0.25,
          "durationTicks": 48,
          "midi": 84,
          "name": "C6",
          "ticks": 15792,
          "time": 82.25,
          "velocity": 0.7874015748031497
        },
        {
          "duration": 0.25,
          "durationTicks": 48,
          "midi": 60,
          "name": "C4",
          "ticks": 15840,
          "time": 82.5,
          "velocity": 0.7874015748031497
        },
        {
          "duration": 0.25,
          "durationTicks": 48,
          "midi": 84,
          "name": "C6",
          "ticks": 15840,
          "time": 82.5,
          "velocity": 0.7874015748031497
        },
        {
          "duration": 0.25,
          "durationTicks": 48,
          "midi": 60,
          "name": "C4",
          "ticks": 15888,
          "time": 82.75,
          "velocity": 0.7874015748031497
        },
        {
          "duration": 0.25,
          "durationTicks": 48,
          "midi": 84,
          "name": "C6",
          "ticks": 15888,
          "time": 82.75,
          "velocity": 0.7874015748031497
        },
        {
          "duration": 0.25,
          "durationTicks": 48,
          "midi": 60,
          "name": "C4",
          "ticks": 15936,
          "time": 83,
          "velocity": 0.7874015748031497
        },
        {
          "duration": 0.25,
          "durationTicks": 48,
          "midi": 84,
          "name": "C6",
          "ticks": 15936,
          "time": 83,
          "velocity": 0.7874015748031497
        },
        {
          "duration": 0.25,
          "durationTicks": 48,
          "midi": 60,
          "name": "C4",
          "ticks": 15984,
          "time": 83.25,
          "velocity": 0.7874015748031497
        },
        {
          "duration": 0.25,
          "durationTicks": 48,
          "midi": 84,
          "name": "C6",
          "ticks": 15984,
          "time": 83.25,
          "velocity": 0.7874015748031497
        },
        {
          "duration": 0.25,
          "durationTicks": 48,
          "midi": 60,
          "name": "C4",
          "ticks": 16032,
          "time": 83.5,
          "velocity": 0.7874015748031497
        },
        {
          "duration": 0.25,
          "durationTicks": 48,
          "midi": 84,
          "name": "C6",
          "ticks": 16032,
          "time": 83.5,
          "velocity": 0.7874015748031497
        },
        {
          "duration": 0.25,
          "durationTicks": 48,
          "midi": 60,
          "name": "C4",
          "ticks": 16080,
          "time": 83.75,
          "velocity": 0.7874015748031497
        },
        {
          "duration": 0.25,
          "durationTicks": 48,
          "midi": 61,
          "name": "C#4",
          "ticks": 16080,
          "time": 83.75,
          "velocity": 0.7874015748031497
        },
        {
          "duration": 0.25,
          "durationTicks": 48,
          "midi": 62,
          "name": "D4",
          "ticks": 16080,
          "time": 83.75,
          "velocity": 0.7874015748031497
        },
        {
          "duration": 0.25,
          "durationTicks": 48,
          "midi": 63,
          "name": "D#4",
          "ticks": 16080,
          "time": 83.75,
          "velocity": 0.7874015748031497
        },
        {
          "duration": 0.25,
          "durationTicks": 48,
          "midi": 64,
          "name": "E4",
          "ticks": 16080,
          "time": 83.75,
          "velocity": 0.7874015748031497
        },
        {
          "duration": 0.25,
          "durationTicks": 48,
          "midi": 65,
          "name": "F4",
          "ticks": 16080,
          "time": 83.75,
          "velocity": 0.7874015748031497
        },
        {
          "duration": 0.25,
          "durationTicks": 48,
          "midi": 66,
          "name": "F#4",
          "ticks": 16080,
          "time": 83.75,
          "velocity": 0.7874015748031497
        },
        {
          "duration": 0.25,
          "durationTicks": 48,
          "midi": 67,
          "name": "G4",
          "ticks": 16080,
          "time": 83.75,
          "velocity": 0.7874015748031497
        },
        {
          "duration": 0.25,
          "durationTicks": 48,
          "midi": 68,
          "name": "G#4",
          "ticks": 16080,
          "time": 83.75,
          "velocity": 0.7874015748031497
        },
        {
          "duration": 0.25,
          "durationTicks": 48,
          "midi": 69,
          "name": "A4",
          "ticks": 16080,
          "time": 83.75,
          "velocity": 0.7874015748031497
        },
        {
          "duration": 0.25,
          "durationTicks": 48,
          "midi": 70,
          "name": "A#4",
          "ticks": 16080,
          "time": 83.75,
          "velocity": 0.7874015748031497
        },
        {
          "duration": 0.25,
          "durationTicks": 48,
          "midi": 71,
          "name": "B4",
          "ticks": 16080,
          "time": 83.75,
          "velocity": 0.7874015748031497
        },
        {
          "duration": 0.25,
          "durationTicks": 48,
          "midi": 72,
          "name": "C5",
          "ticks": 16080,
          "time": 83.75,
          "velocity": 0.7874015748031497
        },
        {
          "duration": 0.25,
          "durationTicks": 48,
          "midi": 73,
          "name": "C#5",
          "ticks": 16080,
          "time": 83.75,
          "velocity": 0.7874015748031497
        },
        {
          "duration": 0.25,
          "durationTicks": 48,
          "midi": 74,
          "name": "D5",
          "ticks": 16080,
          "time": 83.75,
          "velocity": 0.7874015748031497
        },
        {
          "duration": 0.25,
          "durationTicks": 48,
          "midi": 75,
          "name": "D#5",
          "ticks": 16080,
          "time": 83.75,
          "velocity": 0.7874015748031497
        },
        {
          "duration": 0.25,
          "durationTicks": 48,
          "midi": 76,
          "name": "E5",
          "ticks": 16080,
          "time": 83.75,
          "velocity": 0.7874015748031497
        },
        {
          "duration": 0.25,
          "durationTicks": 48,
          "midi": 77,
          "name": "F5",
          "ticks": 16080,
          "time": 83.75,
          "velocity": 0.7874015748031497
        },
        {
          "duration": 0.25,
          "durationTicks": 48,
          "midi": 78,
          "name": "F#5",
          "ticks": 16080,
          "time": 83.75,
          "velocity": 0.7874015748031497
        },
        {
          "duration": 0.25,
          "durationTicks": 48,
          "midi": 79,
          "name": "G5",
          "ticks": 16080,
          "time": 83.75,
          "velocity": 0.7874015748031497
        },
        {
          "duration": 0.25,
          "durationTicks": 48,
          "midi": 80,
          "name": "G#5",
          "ticks": 16080,
          "time": 83.75,
          "velocity": 0.7874015748031497
        },
        {
          "duration": 0.25,
          "durationTicks": 48,
          "midi": 81,
          "name": "A5",
          "ticks": 16080,
          "time": 83.75,
          "velocity": 0.7874015748031497
        },
        {
          "duration": 0.25,
          "durationTicks": 48,
          "midi": 82,
          "name": "A#5",
          "ticks": 16080,
          "time": 83.75,
          "velocity": 0.7874015748031497
        },
        {
          "duration": 0.25,
          "durationTicks": 48,
          "midi": 83,
          "name": "B5",
          "ticks": 16080,
          "time": 83.75,
          "velocity": 0.7874015748031497
        },
        {
          "duration": 0.25,
          "durationTicks": 48,
          "midi": 84,
          "name": "C6",
          "ticks": 16080,
          "time": 83.75,
          "velocity": 0.7874015748031497
        },
        {
          "duration": 2,
          "durationTicks": 384,
          "midi": 60,
          "name": "C4",
          "ticks": 16128,
          "time": 84,
          "velocity": 0.7874015748031497
        },
        {
          "duration": 2,
          "durationTicks": 384,
          "midi": 61,
          "name": "C#4",
          "ticks": 16128,
          "time": 84,
          "velocity": 0.7874015748031497
        },
        {
          "duration": 2,
          "durationTicks": 384,
          "midi": 62,
          "name": "D4",
          "ticks": 16128,
          "time": 84,
          "velocity": 0.7874015748031497
        },
        {
          "duration": 2,
          "durationTicks": 384,
          "midi": 63,
          "name": "D#4",
          "ticks": 16128,
          "time": 84,
          "velocity": 0.7874015748031497
        },
        {
          "duration": 2,
          "durationTicks": 384,
          "midi": 64,
          "name": "E4",
          "ticks": 16128,
          "time": 84,
          "velocity": 0.7874015748031497
        },
        {
          "duration": 2,
          "durationTicks": 384,
          "midi": 65,
          "name": "F4",
          "ticks": 16128,
          "time": 84,
          "velocity": 0.7874015748031497
        },
        {
          "duration": 2,
          "durationTicks": 384,
          "midi": 66,
          "name": "F#4",
          "ticks": 16128,
          "time": 84,
          "velocity": 0.7874015748031497
        },
        {
          "duration": 2,
          "durationTicks": 384,
          "midi": 67,
          "name": "G4",
          "ticks": 16128,
          "time": 84,
          "velocity": 0.7874015748031497
        },
        {
          "duration": 2,
          "durationTicks": 384,
          "midi": 68,
          "name": "G#4",
          "ticks": 16128,
          "time": 84,
          "velocity": 0.7874015748031497
        },
        {
          "duration": 2,
          "durationTicks": 384,
          "midi": 69,
          "name": "A4",
          "ticks": 16128,
          "time": 84,
          "velocity": 0.7874015748031497
        },
        {
          "duration": 2,
          "durationTicks": 384,
          "midi": 70,
          "name": "A#4",
          "ticks": 16128,
          "time": 84,
          "velocity": 0.7874015748031497
        },
        {
          "duration": 2,
          "durationTicks": 384,
          "midi": 71,
          "name": "B4",
          "ticks": 16128,
          "time": 84,
          "velocity": 0.7874015748031497
        },
        {
          "duration": 2,
          "durationTicks": 384,
          "midi": 72,
          "name": "C5",
          "ticks": 16128,
          "time": 84,
          "velocity": 0.7874015748031497
        },
        {
          "duration": 2,
          "durationTicks": 384,
          "midi": 73,
          "name": "C#5",
          "ticks": 16128,
          "time": 84,
          "velocity": 0.7874015748031497
        },
        {
          "duration": 2,
          "durationTicks": 384,
          "midi": 74,
          "name": "D5",
          "ticks": 16128,
          "time": 84,
          "velocity": 0.7874015748031497
        },
        {
          "duration": 2,
          "durationTicks": 384,
          "midi": 75,
          "name": "D#5",
          "ticks": 16128,
          "time": 84,
          "velocity": 0.7874015748031497
        },
        {
          "duration": 2,
          "durationTicks": 384,
          "midi": 76,
          "name": "E5",
          "ticks": 16128,
          "time": 84,
          "velocity": 0.7874015748031497
        },
        {
          "duration": 2,
          "durationTicks": 384,
          "midi": 77,
          "name": "F5",
          "ticks": 16128,
          "time": 84,
          "velocity": 0.7874015748031497
        },
        {
          "duration": 2,
          "durationTicks": 384,
          "midi": 78,
          "name": "F#5",
          "ticks": 16128,
          "time": 84,
          "velocity": 0.7874015748031497
        },
        {
          "duration": 2,
          "durationTicks": 384,
          "midi": 79,
          "name": "G5",
          "ticks": 16128,
          "time": 84,
          "velocity": 0.7874015748031497
        },
        {
          "duration": 2,
          "durationTicks": 384,
          "midi": 80,
          "name": "G#5",
          "ticks": 16128,
          "time": 84,
          "velocity": 0.7874015748031497
        },
        {
          "duration": 2,
          "durationTicks": 384,
          "midi": 81,
          "name": "A5",
          "ticks": 16128,
          "time": 84,
          "velocity": 0.7874015748031497
        },
        {
          "duration": 2,
          "durationTicks": 384,
          "midi": 82,
          "name": "A#5",
          "ticks": 16128,
          "time": 84,
          "velocity": 0.7874015748031497
        },
        {
          "duration": 2,
          "durationTicks": 384,
          "midi": 83,
          "name": "B5",
          "ticks": 16128,
          "time": 84,
          "velocity": 0.7874015748031497
        },
        {
          "duration": 2,
          "durationTicks": 384,
          "midi": 84,
          "name": "C6",
          "ticks": 16128,
          "time": 84,
          "velocity": 0.7874015748031497
        },
        {
          "duration": 0.5,
          "durationTicks": 96,
          "midi": 60,
          "name": "C4",
          "ticks": 16512,
          "time": 86,
          "velocity": 0.7874015748031497
        },
        {
          "duration": 0.5,
          "durationTicks": 96,
          "midi": 84,
          "name": "C6",
          "ticks": 16512,
          "time": 86,
          "velocity": 0.7874015748031497
        },
        {
          "duration": 0.5,
          "durationTicks": 96,
          "midi": 60,
          "name": "C4",
          "ticks": 16608,
          "time": 86.5,
          "velocity": 0.7874015748031497
        },
        {
          "duration": 0.5,
          "durationTicks": 96,
          "midi": 84,
          "name": "C6",
          "ticks": 16608,
          "time": 86.5,
          "velocity": 0.7874015748031497
        },
        {
          "duration": 0.5,
          "durationTicks": 96,
          "midi": 60,
          "name": "C4",
          "ticks": 16704,
          "time": 87,
          "velocity": 0.7874015748031497
        },
        {
          "duration": 0.5,
          "durationTicks": 96,
          "midi": 84,
          "name": "C6",
          "ticks": 16704,
          "time": 87,
          "velocity": 0.7874015748031497
        },
        {
          "duration": 0.5,
          "durationTicks": 96,
          "midi": 60,
          "name": "C4",
          "ticks": 16800,
          "time": 87.5,
          "velocity": 0.7874015748031497
        },
        {
          "duration": 0.5,
          "durationTicks": 96,
          "midi": 84,
          "name": "C6",
          "ticks": 16800,
          "time": 87.5,
          "velocity": 0.7874015748031497
        },
        {
          "duration": 0.25,
          "durationTicks": 48,
          "midi": 60,
          "name": "C4",
          "ticks": 16896,
          "time": 88,
          "velocity": 0.7874015748031497
        },
        {
          "duration": 0.25,
          "durationTicks": 48,
          "midi": 84,
          "name": "C6",
          "ticks": 16896,
          "time": 88,
          "velocity": 0.7874015748031497
        },
        {
          "duration": 0.25,
          "durationTicks": 48,
          "midi": 60,
          "name": "C4",
          "ticks": 16944,
          "time": 88.25,
          "velocity": 0.7874015748031497
        },
        {
          "duration": 0.25,
          "durationTicks": 48,
          "midi": 84,
          "name": "C6",
          "ticks": 16944,
          "time": 88.25,
          "velocity": 0.7874015748031497
        },
        {
          "duration": 0.25,
          "durationTicks": 48,
          "midi": 60,
          "name": "C4",
          "ticks": 16992,
          "time": 88.5,
          "velocity": 0.7874015748031497
        },
        {
          "duration": 0.25,
          "durationTicks": 48,
          "midi": 84,
          "name": "C6",
          "ticks": 16992,
          "time": 88.5,
          "velocity": 0.7874015748031497
        },
        {
          "duration": 0.25,
          "durationTicks": 48,
          "midi": 60,
          "name": "C4",
          "ticks": 17040,
          "time": 88.75,
          "velocity": 0.7874015748031497
        },
        {
          "duration": 0.25,
          "durationTicks": 48,
          "midi": 84,
          "name": "C6",
          "ticks": 17040,
          "time": 88.75,
          "velocity": 0.7874015748031497
        },
        {
          "duration": 0.25,
          "durationTicks": 48,
          "midi": 60,
          "name": "C4",
          "ticks": 17088,
          "time": 89,
          "velocity": 0.7874015748031497
        },
        {
          "duration": 0.25,
          "durationTicks": 48,
          "midi": 84,
          "name": "C6",
          "ticks": 17088,
          "time": 89,
          "velocity": 0.7874015748031497
        },
        {
          "duration": 0.25,
          "durationTicks": 48,
          "midi": 60,
          "name": "C4",
          "ticks": 17136,
          "time": 89.25,
          "velocity": 0.7874015748031497
        },
        {
          "duration": 0.25,
          "durationTicks": 48,
          "midi": 84,
          "name": "C6",
          "ticks": 17136,
          "time": 89.25,
          "velocity": 0.7874015748031497
        },
        {
          "duration": 0.25,
          "durationTicks": 48,
          "midi": 60,
          "name": "C4",
          "ticks": 17184,
          "time": 89.5,
          "velocity": 0.7874015748031497
        },
        {
          "duration": 0.25,
          "durationTicks": 48,
          "midi": 84,
          "name": "C6",
          "ticks": 17184,
          "time": 89.5,
          "velocity": 0.7874015748031497
        },
        {
          "duration": 0.25,
          "durationTicks": 48,
          "midi": 60,
          "name": "C4",
          "ticks": 17232,
          "time": 89.75,
          "velocity": 0.7874015748031497
        },
        {
          "duration": 0.25,
          "durationTicks": 48,
          "midi": 61,
          "name": "C#4",
          "ticks": 17232,
          "time": 89.75,
          "velocity": 0.7874015748031497
        },
        {
          "duration": 0.25,
          "durationTicks": 48,
          "midi": 62,
          "name": "D4",
          "ticks": 17232,
          "time": 89.75,
          "velocity": 0.7874015748031497
        },
        {
          "duration": 0.25,
          "durationTicks": 48,
          "midi": 63,
          "name": "D#4",
          "ticks": 17232,
          "time": 89.75,
          "velocity": 0.7874015748031497
        },
        {
          "duration": 0.25,
          "durationTicks": 48,
          "midi": 64,
          "name": "E4",
          "ticks": 17232,
          "time": 89.75,
          "velocity": 0.7874015748031497
        },
        {
          "duration": 0.25,
          "durationTicks": 48,
          "midi": 65,
          "name": "F4",
          "ticks": 17232,
          "time": 89.75,
          "velocity": 0.7874015748031497
        },
        {
          "duration": 0.25,
          "durationTicks": 48,
          "midi": 66,
          "name": "F#4",
          "ticks": 17232,
          "time": 89.75,
          "velocity": 0.7874015748031497
        },
        {
          "duration": 0.25,
          "durationTicks": 48,
          "midi": 67,
          "name": "G4",
          "ticks": 17232,
          "time": 89.75,
          "velocity": 0.7874015748031497
        },
        {
          "duration": 0.25,
          "durationTicks": 48,
          "midi": 68,
          "name": "G#4",
          "ticks": 17232,
          "time": 89.75,
          "velocity": 0.7874015748031497
        },
        {
          "duration": 0.25,
          "durationTicks": 48,
          "midi": 69,
          "name": "A4",
          "ticks": 17232,
          "time": 89.75,
          "velocity": 0.7874015748031497
        },
        {
          "duration": 0.25,
          "durationTicks": 48,
          "midi": 70,
          "name": "A#4",
          "ticks": 17232,
          "time": 89.75,
          "velocity": 0.7874015748031497
        },
        {
          "duration": 0.25,
          "durationTicks": 48,
          "midi": 71,
          "name": "B4",
          "ticks": 17232,
          "time": 89.75,
          "velocity": 0.7874015748031497
        },
        {
          "duration": 0.25,
          "durationTicks": 48,
          "midi": 72,
          "name": "C5",
          "ticks": 17232,
          "time": 89.75,
          "velocity": 0.7874015748031497
        },
        {
          "duration": 0.25,
          "durationTicks": 48,
          "midi": 73,
          "name": "C#5",
          "ticks": 17232,
          "time": 89.75,
          "velocity": 0.7874015748031497
        },
        {
          "duration": 0.25,
          "durationTicks": 48,
          "midi": 74,
          "name": "D5",
          "ticks": 17232,
          "time": 89.75,
          "velocity": 0.7874015748031497
        },
        {
          "duration": 0.25,
          "durationTicks": 48,
          "midi": 75,
          "name": "D#5",
          "ticks": 17232,
          "time": 89.75,
          "velocity": 0.7874015748031497
        },
        {
          "duration": 0.25,
          "durationTicks": 48,
          "midi": 76,
          "name": "E5",
          "ticks": 17232,
          "time": 89.75,
          "velocity": 0.7874015748031497
        },
        {
          "duration": 0.25,
          "durationTicks": 48,
          "midi": 77,
          "name": "F5",
          "ticks": 17232,
          "time": 89.75,
          "velocity": 0.7874015748031497
        },
        {
          "duration": 0.25,
          "durationTicks": 48,
          "midi": 78,
          "name": "F#5",
          "ticks": 17232,
          "time": 89.75,
          "velocity": 0.7874015748031497
        },
        {
          "duration": 0.25,
          "durationTicks": 48,
          "midi": 79,
          "name": "G5",
          "ticks": 17232,
          "time": 89.75,
          "velocity": 0.7874015748031497
        },
        {
          "duration": 0.25,
          "durationTicks": 48,
          "midi": 80,
          "name": "G#5",
          "ticks": 17232,
          "time": 89.75,
          "velocity": 0.7874015748031497
        },
        {
          "duration": 0.25,
          "durationTicks": 48,
          "midi": 81,
          "name": "A5",
          "ticks": 17232,
          "time": 89.75,
          "velocity": 0.7874015748031497
        },
        {
          "duration": 0.25,
          "durationTicks": 48,
          "midi": 82,
          "name": "A#5",
          "ticks": 17232,
          "time": 89.75,
          "velocity": 0.7874015748031497
        },
        {
          "duration": 0.25,
          "durationTicks": 48,
          "midi": 83,
          "name": "B5",
          "ticks": 17232,
          "time": 89.75,
          "velocity": 0.7874015748031497
        },
        {
          "duration": 0.25,
          "durationTicks": 48,
          "midi": 84,
          "name": "C6",
          "ticks": 17232,
          "time": 89.75,
          "velocity": 0.7874015748031497
        }
      ],
      "endOfTrackTicks": 17280
    }
  ]
};
